<svg width="1440" height="820" viewBox="0 0 1440 820" fill="none" xmlns="http://www.w3.org/2000/svg">
<rect x="672" width="768" height="820" fill="#8257E5"/>
<path d="M1262.57 737.405C1257.53 737.405 1253.44 733.339 1253.44 728.324C1253.44 723.308 1257.53 719.243 1262.57 719.243C1267.61 719.243 1271.7 723.308 1271.7 728.324C1271.7 733.323 1267.61 737.405 1262.57 737.405Z" stroke="#04D361" stroke-width="3" stroke-miterlimit="10" stroke-linecap="round" stroke-linejoin="round"/>
<path d="M1256.27 734.888L1249.81 741.294" stroke="#04D361" stroke-width="3" stroke-miterlimit="10" stroke-linecap="round" stroke-linejoin="round"/>
<path d="M1091.22 78L1081.61 87.5541" stroke="#04D361" stroke-width="3" stroke-miterlimit="10" stroke-linecap="round" stroke-linejoin="round"/>
<path d="M1091.22 87.5541L1081.61 78" stroke="#04D361" stroke-width="3" stroke-miterlimit="10" stroke-linecap="round" stroke-linejoin="round"/>
<path d="M1077.46 652.763L1067.85 662.317" stroke="#04D361" stroke-width="3" stroke-miterlimit="10" stroke-linecap="round" stroke-linejoin="round"/>
<path d="M1077.46 662.317L1067.85 652.763" stroke="#04D361" stroke-width="3" stroke-miterlimit="10" stroke-linecap="round" stroke-linejoin="round"/>
<path d="M777.431 263.274L763.844 263.274" stroke="#04D361" stroke-width="3" stroke-miterlimit="10" stroke-linecap="round" stroke-linejoin="round"/>
<path d="M770.639 270.046L770.639 256.52" stroke="#04D361" stroke-width="3" stroke-miterlimit="10" stroke-linecap="round" stroke-linejoin="round"/>
<path d="M1174.87 214.422C1170.32 214.422 1166.61 210.752 1166.61 206.211C1166.61 201.686 1170.3 198 1174.87 198C1179.42 198 1183.12 201.67 1183.12 206.211C1183.11 210.752 1179.42 214.422 1174.87 214.422Z" stroke="#04D361" stroke-width="3" stroke-miterlimit="10" stroke-linecap="round" stroke-linejoin="round"/>
<path d="M1339.74 421.169C1335.19 421.169 1331.49 417.499 1331.49 412.958C1331.49 408.434 1335.18 404.747 1339.74 404.747C1344.29 404.747 1348 408.418 1348 412.958C1347.98 417.499 1344.29 421.169 1339.74 421.169Z" stroke="#04D361" stroke-width="3" stroke-miterlimit="10" stroke-linecap="round" stroke-linejoin="round"/>
<path d="M820.592 547.906C816.042 547.906 812.335 544.236 812.335 539.695C812.335 535.17 816.026 531.484 820.592 531.484C825.142 531.484 828.849 535.155 828.849 539.695C828.833 544.236 825.142 547.906 820.592 547.906Z" stroke="#04D361" stroke-width="3" stroke-miterlimit="10" stroke-linecap="round" stroke-linejoin="round"/>
<path d="M919.224 99.2467C919.224 100.889 920.563 102.221 922.214 102.221C923.866 102.221 925.205 100.889 925.205 99.2467C925.205 97.6044 923.866 96.2729 922.214 96.2729C920.563 96.2729 919.224 97.6044 919.224 99.2467Z" fill="#9871F5"/>
<path d="M919.224 120.02C919.224 121.662 920.563 122.994 922.214 122.994C923.866 122.994 925.205 121.662 925.205 120.02C925.205 118.378 923.866 117.046 922.214 117.046C920.563 117.046 919.224 118.378 919.224 120.02Z" fill="#9871F5"/>
<path d="M919.224 140.774C919.224 142.417 920.563 143.748 922.214 143.748C923.866 143.748 925.205 142.417 925.205 140.774C925.205 139.132 923.866 137.801 922.214 137.801C920.563 137.801 919.224 139.132 919.224 140.774Z" fill="#9871F5"/>
<path d="M919.224 161.545C919.224 163.187 920.563 164.519 922.214 164.519C923.866 164.519 925.205 163.187 925.205 161.545C925.205 159.902 923.866 158.571 922.214 158.571C920.563 158.571 919.224 159.902 919.224 161.545Z" fill="#9871F5"/>
<path d="M919.224 182.301C919.224 183.943 920.563 185.275 922.214 185.275C923.866 185.275 925.205 183.943 925.205 182.301C925.205 180.659 923.866 179.327 922.214 179.327C920.563 179.327 919.224 180.659 919.224 182.301Z" fill="#9871F5"/>
<path d="M919.224 203.071C919.224 204.714 920.563 206.045 922.214 206.045C923.866 206.045 925.205 204.714 925.205 203.071C925.205 201.429 923.866 200.098 922.214 200.098C920.563 200.098 919.224 201.429 919.224 203.071Z" fill="#9871F5"/>
<path d="M898.35 99.247C898.35 100.889 899.689 102.221 901.341 102.221C902.992 102.221 904.331 100.889 904.331 99.247C904.331 97.6046 902.992 96.2732 901.341 96.2732C899.689 96.2732 898.35 97.6046 898.35 99.247Z" fill="#9871F5"/>
<path d="M898.35 120.02C898.35 121.662 899.689 122.994 901.341 122.994C902.992 122.994 904.331 121.662 904.331 120.02C904.331 118.378 902.992 117.046 901.341 117.046C899.689 117.046 898.35 118.378 898.35 120.02Z" fill="#9871F5"/>
<path d="M898.35 140.774C898.35 142.417 899.689 143.748 901.341 143.748C902.992 143.748 904.331 142.417 904.331 140.774C904.331 139.132 902.992 137.801 901.341 137.801C899.689 137.801 898.35 139.132 898.35 140.774Z" fill="#9871F5"/>
<path d="M898.35 161.545C898.35 163.187 899.689 164.519 901.341 164.519C902.992 164.519 904.331 163.187 904.331 161.545C904.331 159.902 902.992 158.571 901.341 158.571C899.689 158.571 898.35 159.902 898.35 161.545Z" fill="#9871F5"/>
<path d="M898.35 182.301C898.35 183.943 899.689 185.275 901.341 185.275C902.992 185.275 904.331 183.943 904.331 182.301C904.331 180.659 902.992 179.327 901.341 179.327C899.689 179.327 898.35 180.659 898.35 182.301Z" fill="#9871F5"/>
<path d="M898.35 203.071C898.35 204.714 899.689 206.045 901.341 206.045C902.992 206.045 904.331 204.714 904.331 203.071C904.331 201.429 902.992 200.098 901.341 200.098C899.689 200.098 898.35 201.429 898.35 203.071Z" fill="#9871F5"/>
<path d="M877.461 99.247C877.461 100.889 878.8 102.221 880.452 102.221C882.104 102.221 883.442 100.889 883.442 99.247C883.442 97.6046 882.104 96.2732 880.452 96.2732C878.8 96.2732 877.461 97.6046 877.461 99.247Z" fill="#9871F5"/>
<path d="M877.461 120.02C877.461 121.662 878.8 122.994 880.452 122.994C882.104 122.994 883.442 121.662 883.442 120.02C883.442 118.378 882.104 117.046 880.452 117.046C878.8 117.046 877.461 118.378 877.461 120.02Z" fill="#9871F5"/>
<path d="M877.461 140.774C877.461 142.417 878.8 143.748 880.452 143.748C882.104 143.748 883.442 142.417 883.442 140.774C883.442 139.132 882.104 137.801 880.452 137.801C878.8 137.801 877.461 139.132 877.461 140.774Z" fill="#9871F5"/>
<path d="M877.461 161.545C877.461 163.187 878.8 164.519 880.452 164.519C882.104 164.519 883.442 163.187 883.442 161.545C883.442 159.902 882.104 158.571 880.452 158.571C878.8 158.571 877.461 159.902 877.461 161.545Z" fill="#9871F5"/>
<path d="M877.461 182.301C877.461 183.943 878.8 185.275 880.452 185.275C882.104 185.275 883.442 183.943 883.442 182.301C883.442 180.659 882.104 179.327 880.452 179.327C878.8 179.327 877.461 180.659 877.461 182.301Z" fill="#9871F5"/>
<path d="M877.461 203.071C877.461 204.714 878.8 206.045 880.452 206.045C882.104 206.045 883.442 204.714 883.442 203.071C883.442 201.429 882.104 200.098 880.452 200.098C878.8 200.098 877.461 201.429 877.461 203.071Z" fill="#9871F5"/>
<path d="M856.588 99.247C856.588 100.889 857.927 102.221 859.579 102.221C861.23 102.221 862.569 100.889 862.569 99.247C862.569 97.6046 861.23 96.2732 859.579 96.2732C857.927 96.2732 856.588 97.6046 856.588 99.247Z" fill="#9871F5"/>
<path d="M856.588 120.02C856.588 121.662 857.927 122.994 859.579 122.994C861.23 122.994 862.569 121.662 862.569 120.02C862.569 118.378 861.23 117.046 859.579 117.046C857.927 117.046 856.588 118.378 856.588 120.02Z" fill="#9871F5"/>
<path d="M856.588 140.774C856.588 142.417 857.927 143.748 859.579 143.748C861.23 143.748 862.569 142.417 862.569 140.774C862.569 139.132 861.23 137.801 859.579 137.801C857.927 137.801 856.588 139.132 856.588 140.774Z" fill="#9871F5"/>
<path d="M856.588 161.545C856.588 163.187 857.927 164.519 859.579 164.519C861.23 164.519 862.569 163.187 862.569 161.545C862.569 159.902 861.23 158.571 859.579 158.571C857.927 158.571 856.588 159.902 856.588 161.545Z" fill="#9871F5"/>
<path d="M856.588 182.301C856.588 183.943 857.927 185.275 859.579 185.275C861.23 185.275 862.569 183.943 862.569 182.301C862.569 180.659 861.23 179.327 859.579 179.327C857.927 179.327 856.588 180.659 856.588 182.301Z" fill="#9871F5"/>
<path d="M856.588 203.071C856.588 204.714 857.927 206.045 859.579 206.045C861.23 206.045 862.569 204.714 862.569 203.071C862.569 201.429 861.23 200.098 859.579 200.098C857.927 200.098 856.588 201.429 856.588 203.071Z" fill="#9871F5"/>
<path d="M1259.79 553.706C1259.79 555.348 1261.13 556.679 1262.78 556.679C1264.43 556.679 1265.77 555.348 1265.77 553.706C1265.77 552.063 1264.43 550.732 1262.78 550.732C1261.13 550.732 1259.79 552.063 1259.79 553.706Z" fill="#9871F5"/>
<path d="M1259.79 574.46C1259.79 576.103 1261.13 577.434 1262.78 577.434C1264.43 577.434 1265.77 576.103 1265.77 574.46C1265.77 572.818 1264.43 571.487 1262.78 571.487C1261.13 571.487 1259.79 572.818 1259.79 574.46Z" fill="#9871F5"/>
<path d="M1259.79 595.23C1259.79 596.872 1261.13 598.204 1262.78 598.204C1264.43 598.204 1265.77 596.872 1265.77 595.23C1265.77 593.588 1264.43 592.256 1262.78 592.256C1261.13 592.256 1259.79 593.588 1259.79 595.23Z" fill="#9871F5"/>
<path d="M1238.9 553.703C1238.9 555.346 1240.24 556.677 1241.89 556.677C1243.54 556.677 1244.88 555.346 1244.88 553.703C1244.88 552.061 1243.54 550.73 1241.89 550.73C1240.24 550.73 1238.9 552.061 1238.9 553.703Z" fill="#9871F5"/>
<path d="M1238.9 574.46C1238.9 576.103 1240.24 577.434 1241.89 577.434C1243.54 577.434 1244.88 576.103 1244.88 574.46C1244.88 572.818 1243.54 571.487 1241.89 571.487C1240.24 571.487 1238.9 572.818 1238.9 574.46Z" fill="#9871F5"/>
<path d="M1238.9 595.228C1238.9 596.871 1240.24 598.202 1241.89 598.202C1243.54 598.202 1244.88 596.871 1244.88 595.228C1244.88 593.586 1243.54 592.255 1241.89 592.255C1240.24 592.255 1238.9 593.586 1238.9 595.228Z" fill="#9871F5"/>
<path d="M1333.5 187.974C1333.5 189.617 1334.84 190.948 1336.49 190.948C1338.14 190.948 1339.48 189.617 1339.48 187.974C1339.48 186.332 1338.14 185.001 1336.49 185.001C1334.84 185.001 1333.5 186.332 1333.5 187.974Z" fill="#9871F5"/>
<path d="M1333.5 208.728C1333.5 210.37 1334.84 211.702 1336.49 211.702C1338.14 211.702 1339.48 210.37 1339.48 208.728C1339.48 207.086 1338.14 205.754 1336.49 205.754C1334.84 205.754 1333.5 207.086 1333.5 208.728Z" fill="#9871F5"/>
<path d="M1333.5 229.5C1333.5 231.143 1334.84 232.474 1336.49 232.474C1338.14 232.474 1339.48 231.143 1339.48 229.5C1339.48 227.858 1338.14 226.527 1336.49 226.527C1334.84 226.527 1333.5 227.858 1333.5 229.5Z" fill="#9871F5"/>
<path d="M1312.61 187.974C1312.61 189.616 1313.95 190.948 1315.6 190.948C1317.25 190.948 1318.59 189.616 1318.59 187.974C1318.59 186.331 1317.25 185 1315.6 185C1313.95 185 1312.61 186.331 1312.61 187.974Z" fill="#9871F5"/>
<path d="M1312.61 208.73C1312.61 210.372 1313.95 211.704 1315.6 211.704C1317.25 211.704 1318.59 210.372 1318.59 208.73C1318.59 207.088 1317.25 205.756 1315.6 205.756C1313.95 205.756 1312.61 207.088 1312.61 208.73Z" fill="#9871F5"/>
<path d="M1312.61 229.5C1312.61 231.143 1313.95 232.474 1315.6 232.474C1317.25 232.474 1318.59 231.143 1318.59 229.5C1318.59 227.858 1317.25 226.526 1315.6 226.526C1313.95 226.526 1312.61 227.858 1312.61 229.5Z" fill="#9871F5"/>
<path d="M926.71 738.983C926.71 740.626 928.049 741.957 929.701 741.957C931.353 741.957 932.691 740.626 932.691 738.983C932.691 737.341 931.353 736.01 929.701 736.01C928.049 736.01 926.71 737.341 926.71 738.983Z" fill="#9871F5"/>
<path d="M905.821 738.983C905.821 740.626 907.16 741.957 908.812 741.957C910.463 741.957 911.802 740.626 911.802 738.983C911.802 737.341 910.463 736.01 908.812 736.01C907.16 736.01 905.821 737.341 905.821 738.983Z" fill="#9871F5"/>
<path d="M884.948 738.983C884.948 740.626 886.287 741.957 887.939 741.957C889.59 741.957 890.929 740.626 890.929 738.983C890.929 737.341 889.59 736.01 887.939 736.01C886.287 736.01 884.948 737.341 884.948 738.983Z" fill="#9871F5"/>
<path d="M864.059 738.983C864.059 740.626 865.398 741.957 867.05 741.957C868.701 741.957 870.04 740.626 870.04 738.983C870.04 737.341 868.701 736.01 867.05 736.01C865.398 736.01 864.059 737.341 864.059 738.983Z" fill="#9871F5"/>
<path d="M843.186 738.983C843.186 740.626 844.525 741.957 846.177 741.957C847.828 741.957 849.167 740.626 849.167 738.983C849.167 737.341 847.828 736.01 846.177 736.01C844.525 736.01 843.186 737.341 843.186 738.983Z" fill="#9871F5"/>
<path d="M822.297 738.983C822.297 740.626 823.636 741.957 825.287 741.957C826.939 741.957 828.278 740.626 828.278 738.983C828.278 737.341 826.939 736.01 825.287 736.01C823.636 736.01 822.297 737.341 822.297 738.983Z" fill="#9871F5"/>
<path d="M801.424 738.983C801.424 740.626 802.763 741.957 804.414 741.957C806.066 741.957 807.405 740.626 807.405 738.983C807.405 737.341 806.066 736.01 804.414 736.01C802.763 736.01 801.424 737.341 801.424 738.983Z" fill="#9871F5"/>
<path d="M926.71 718.212C926.71 719.854 928.049 721.186 929.701 721.186C931.353 721.186 932.691 719.854 932.691 718.212C932.691 716.57 931.353 715.238 929.701 715.238C928.049 715.238 926.71 716.57 926.71 718.212Z" fill="#9871F5"/>
<path d="M905.821 718.212C905.821 719.854 907.16 721.186 908.812 721.186C910.463 721.186 911.802 719.854 911.802 718.212C911.802 716.57 910.463 715.238 908.812 715.238C907.16 715.238 905.821 716.57 905.821 718.212Z" fill="#9871F5"/>
<path d="M884.948 718.212C884.948 719.854 886.287 721.186 887.939 721.186C889.59 721.186 890.929 719.854 890.929 718.212C890.929 716.57 889.59 715.238 887.939 715.238C886.287 715.238 884.948 716.57 884.948 718.212Z" fill="#9871F5"/>
<path d="M864.059 718.212C864.059 719.854 865.398 721.186 867.05 721.186C868.701 721.186 870.04 719.854 870.04 718.212C870.04 716.57 868.701 715.238 867.05 715.238C865.398 715.238 864.059 716.57 864.059 718.212Z" fill="#9871F5"/>
<path d="M843.186 718.212C843.186 719.854 844.525 721.186 846.177 721.186C847.828 721.186 849.167 719.854 849.167 718.212C849.167 716.57 847.828 715.238 846.177 715.238C844.525 715.238 843.186 716.57 843.186 718.212Z" fill="#9871F5"/>
<path d="M822.297 718.212C822.297 719.854 823.636 721.186 825.287 721.186C826.939 721.186 828.278 719.854 828.278 718.212C828.278 716.57 826.939 715.238 825.287 715.238C823.636 715.238 822.297 716.57 822.297 718.212Z" fill="#9871F5"/>
<path d="M801.424 718.212C801.424 719.854 802.763 721.186 804.414 721.186C806.066 721.186 807.405 719.854 807.405 718.212C807.405 716.57 806.066 715.238 804.414 715.238C802.763 715.238 801.424 716.57 801.424 718.212Z" fill="#9871F5"/>
<path d="M926.71 697.456C926.71 699.098 928.049 700.43 929.701 700.43C931.353 700.43 932.691 699.098 932.691 697.456C932.691 695.814 931.353 694.482 929.701 694.482C928.049 694.482 926.71 695.814 926.71 697.456Z" fill="#9871F5"/>
<path d="M905.821 697.456C905.821 699.098 907.16 700.43 908.812 700.43C910.463 700.43 911.802 699.098 911.802 697.456C911.802 695.814 910.463 694.482 908.812 694.482C907.16 694.482 905.821 695.814 905.821 697.456Z" fill="#9871F5"/>
<path d="M884.948 697.456C884.948 699.098 886.287 700.43 887.939 700.43C889.59 700.43 890.929 699.098 890.929 697.456C890.929 695.814 889.59 694.482 887.939 694.482C886.287 694.482 884.948 695.814 884.948 697.456Z" fill="#9871F5"/>
<path d="M864.059 697.456C864.059 699.098 865.398 700.43 867.05 700.43C868.701 700.43 870.04 699.098 870.04 697.456C870.04 695.814 868.701 694.482 867.05 694.482C865.398 694.482 864.059 695.814 864.059 697.456Z" fill="#9871F5"/>
<path d="M843.186 697.456C843.186 699.098 844.525 700.43 846.177 700.43C847.828 700.43 849.167 699.098 849.167 697.456C849.167 695.814 847.828 694.482 846.177 694.482C844.525 694.482 843.186 695.814 843.186 697.456Z" fill="#9871F5"/>
<path d="M822.297 697.456C822.297 699.098 823.636 700.43 825.287 700.43C826.939 700.43 828.278 699.098 828.278 697.456C828.278 695.814 826.939 694.482 825.287 694.482C823.636 694.482 822.297 695.814 822.297 697.456Z" fill="#9871F5"/>
<path d="M801.424 697.456C801.424 699.098 802.763 700.43 804.414 700.43C806.066 700.43 807.405 699.098 807.405 697.456C807.405 695.814 806.066 694.482 804.414 694.482C802.763 694.482 801.424 695.814 801.424 697.456Z" fill="#9871F5"/>
<path d="M926.709 676.686C926.709 678.328 928.047 679.66 929.699 679.66C931.351 679.66 932.689 678.328 932.689 676.686C932.689 675.043 931.351 673.712 929.699 673.712C928.047 673.712 926.709 675.043 926.709 676.686Z" fill="#9871F5"/>
<path d="M905.821 676.685C905.821 678.328 907.16 679.659 908.812 679.659C910.463 679.659 911.802 678.328 911.802 676.685C911.802 675.043 910.463 673.712 908.812 673.712C907.16 673.712 905.821 675.043 905.821 676.685Z" fill="#9871F5"/>
<path d="M884.948 676.685C884.948 678.328 886.287 679.659 887.939 679.659C889.59 679.659 890.929 678.328 890.929 676.685C890.929 675.043 889.59 673.712 887.939 673.712C886.287 673.712 884.948 675.043 884.948 676.685Z" fill="#9871F5"/>
<path d="M864.059 676.685C864.059 678.328 865.398 679.659 867.05 679.659C868.701 679.659 870.04 678.328 870.04 676.685C870.04 675.043 868.701 673.712 867.05 673.712C865.398 673.712 864.059 675.043 864.059 676.685Z" fill="#9871F5"/>
<path d="M843.186 676.685C843.186 678.328 844.525 679.659 846.177 679.659C847.828 679.659 849.167 678.328 849.167 676.685C849.167 675.043 847.828 673.712 846.177 673.712C844.525 673.712 843.186 675.043 843.186 676.685Z" fill="#9871F5"/>
<path d="M822.297 676.685C822.297 678.328 823.636 679.659 825.287 679.659C826.939 679.659 828.278 678.328 828.278 676.685C828.278 675.043 826.939 673.712 825.287 673.712C823.636 673.712 822.297 675.043 822.297 676.685Z" fill="#9871F5"/>
<path d="M801.424 676.685C801.424 678.328 802.763 679.659 804.414 679.659C806.066 679.659 807.405 678.328 807.405 676.685C807.405 675.043 806.066 673.712 804.414 673.712C802.763 673.712 801.424 675.043 801.424 676.685Z" fill="#9871F5"/>
<g clip-path="url(#clip0)">
<path d="M945.023 330.13H905.018C894.373 330.13 889 335.29 889 345.511V400.21C889 401.55 889.721 402.375 891.273 402.375H903.366C904.813 402.375 905.745 401.55 905.745 400.21V398.133C905.745 393.067 907.883 390.306 913.197 389.773H945.023C956.7 389.773 961.973 384.719 961.973 373.673V346.23C961.973 335.185 956.7 330.13 945.023 330.13ZM945.246 369.028C945.246 375.019 943.886 376.253 936.75 376.253H919.8C912.67 376.253 908.118 378.629 905.739 383.274V349.536C905.739 344.891 906.876 343.65 912.559 343.65H936.75C943.886 343.65 945.246 344.891 945.246 350.875V369.028Z" fill="white"/>
<path d="M1000.32 360.37C991.121 360.37 987.19 365.015 987.19 372.86V400.414C987.19 401.655 986.569 402.374 985.122 402.374H974.165C972.718 402.374 971.998 401.655 971.998 400.414V350.05C971.998 348.81 972.718 348.084 974.165 348.084H983.364C984.711 348.084 985.432 348.81 985.432 350.05V358.176C987.19 351.472 992.258 348.061 1001.25 348.061H1004.97C1006.31 348.061 1007.03 348.786 1007.03 350.027V358.41C1007.03 359.75 1006.31 360.37 1004.97 360.37H1000.32Z" fill="white"/>
<path d="M1071.63 387.613C1071.63 397.834 1067.09 402.373 1056.24 402.373H1029.36C1018.61 402.373 1013.96 397.834 1013.96 387.613V362.855C1013.96 352.641 1018.61 348.095 1029.36 348.095H1056.24C1067.09 348.095 1071.63 352.641 1071.63 362.855V387.613ZM1056.44 366.769C1056.44 361.399 1055.41 360.369 1049 360.369H1036.7C1030.19 360.369 1029.15 361.399 1029.15 366.769V383.694C1029.15 389.058 1030.19 390.094 1036.7 390.094H1049C1055.41 390.094 1056.44 389.058 1056.44 383.694V366.769Z" fill="white"/>
<path d="M1086.93 360.37H1081.76C1080.41 360.37 1079.69 359.75 1079.69 358.41V350.05C1079.69 348.81 1080.41 348.085 1081.76 348.085H1086.93V341.38C1086.93 331.16 1092.3 326 1102.95 326H1115.66C1117.11 326 1117.73 326.726 1117.73 327.96V336.32C1117.73 337.665 1117.11 338.28 1115.66 338.28H1108.95C1103.26 338.28 1102.12 339.52 1102.12 344.165V348.085H1115.66C1117.11 348.085 1117.73 348.81 1117.73 350.05V358.41C1117.73 359.75 1117.11 360.37 1115.66 360.37H1102.12V400.415C1102.12 401.655 1101.4 402.374 1099.96 402.374H1089C1087.55 402.374 1086.93 401.655 1086.93 400.415V360.37Z" fill="white"/>
<path d="M1129.1 360.37H1123.94C1122.6 360.37 1121.88 359.75 1121.88 358.41V350.05C1121.88 348.81 1122.6 348.085 1123.94 348.085H1129.12V341.38C1129.1 331.16 1134.49 326 1145.12 326H1157.84C1159.28 326 1159.91 326.726 1159.91 327.96V336.32C1159.91 337.665 1159.28 338.28 1157.84 338.28H1151.12C1145.43 338.28 1144.3 339.52 1144.3 344.165V348.085H1157.84C1159.28 348.085 1159.91 348.81 1159.91 350.05V358.41C1159.91 359.75 1159.28 360.37 1157.84 360.37H1144.3V400.415C1144.3 401.655 1143.57 402.374 1142.12 402.374H1131.17C1129.72 402.374 1129.1 401.655 1129.1 400.415V360.37Z" fill="white"/>
<path d="M1206.1 423.429H1183.57C1173.44 423.429 1169.1 419.51 1169.1 409.804V408.775C1169.07 408.498 1169.11 408.218 1169.2 407.955C1169.29 407.692 1169.44 407.454 1169.64 407.258C1169.84 407.062 1170.08 406.913 1170.34 406.822C1170.61 406.731 1170.89 406.701 1171.17 406.733H1181.71C1183.16 406.733 1183.88 407.458 1183.88 408.798V409.313C1183.88 411.378 1185.02 412.203 1187.3 412.203H1200.32C1206.52 412.203 1208.07 410.658 1208.07 405.393V389.112C1205.69 393.757 1201.15 396.132 1194.01 396.132H1183.46C1172.71 396.132 1167.96 391.593 1167.96 381.372V350.05C1167.94 349.78 1167.99 349.51 1168.09 349.258C1168.19 349.007 1168.34 348.78 1168.54 348.593C1168.73 348.406 1168.97 348.264 1169.22 348.176C1169.48 348.089 1169.75 348.057 1170.02 348.085H1181.09C1182.43 348.085 1183.15 348.81 1183.15 350.05V377.482C1183.15 382.847 1184.29 383.882 1190.7 383.882H1198.56C1205.38 383.882 1208.07 381.092 1208.07 375.417V350.05C1208.07 348.81 1208.79 348.085 1210.13 348.085H1221.2C1221.47 348.059 1221.73 348.093 1221.98 348.183C1222.23 348.272 1222.46 348.416 1222.65 348.604C1222.84 348.792 1222.98 349.02 1223.07 349.27C1223.16 349.52 1223.19 349.786 1223.16 350.05V407.02C1223.16 417.848 1217.37 423.429 1206.1 423.429Z" fill="white"/>
</g>
<path d="M903.691 452.213C903.691 445.072 893.269 448.172 893.269 443.19C893.269 441.114 894.904 440.034 896.983 440.09C899.339 440.117 900.559 441.584 900.725 442.885H903.497C903.192 439.951 900.781 437.931 897.094 437.931C893.269 437.931 890.691 440.09 890.691 443.273C890.691 450.441 901.141 447.12 901.141 452.323C901.141 454.15 899.7 455.534 897.26 455.534C894.572 455.534 893.435 453.929 893.269 452.323H890.58C890.635 455.506 893.38 457.665 897.26 457.665C901.446 457.665 903.691 454.953 903.691 452.213Z" fill="#D4C2FF"/>
<path d="M920.875 442.304H918.352V450.635C918.352 453.901 916.606 455.506 914 455.506C911.45 455.506 909.759 453.929 909.759 450.857V442.304H907.265V451.189C907.265 455.534 910.009 457.693 913.502 457.693C915.525 457.693 917.382 456.807 918.352 455.23V457.472H920.875V442.304Z" fill="#D4C2FF"/>
<path d="M924.191 449.832C924.191 454.538 927.324 457.721 931.371 457.721C934.17 457.721 936.139 456.281 937.053 454.648V457.472H939.603V442.304H937.053V445.072C936.166 443.494 934.226 442.055 931.399 442.055C927.324 442.055 924.191 445.1 924.191 449.832ZM937.053 449.86C937.053 453.431 934.669 455.506 931.897 455.506C929.126 455.506 926.769 453.403 926.769 449.832C926.769 446.262 929.126 444.241 931.897 444.241C934.669 444.241 937.053 446.345 937.053 449.86Z" fill="#D4C2FF"/>
<path d="M953.779 445.1V442.304H951.256V464.668H953.779V454.676C954.721 456.226 956.689 457.721 959.461 457.721C963.536 457.721 966.668 454.538 966.668 449.832C966.668 445.1 963.536 442.055 959.461 442.055C956.689 442.055 954.693 443.494 953.779 445.1ZM964.09 449.832C964.09 453.403 961.734 455.506 958.934 455.506C956.19 455.506 953.779 453.431 953.779 449.86C953.779 446.345 956.19 444.241 958.934 444.241C961.734 444.241 964.09 446.262 964.09 449.832Z" fill="#D4C2FF"/>
<path d="M969.988 457.472H972.511V436.99H969.988V457.472Z" fill="#D4C2FF"/>
<path d="M975.868 449.832C975.868 454.538 979 457.721 983.047 457.721C985.847 457.721 987.815 456.281 988.729 454.648V457.472H991.28V442.304H988.729V445.072C987.842 443.494 985.902 442.055 983.075 442.055C979 442.055 975.868 445.1 975.868 449.832ZM988.729 449.86C988.729 453.431 986.346 455.506 983.574 455.506C980.802 455.506 978.445 453.403 978.445 449.832C978.445 446.262 980.802 444.241 983.574 444.241C986.346 444.241 988.729 446.345 988.729 449.86Z" fill="#D4C2FF"/>
<path d="M996.014 457.472H998.536V444.38H1001.72V442.304H998.536V441.225C998.536 439.259 999.284 438.429 1001.56 438.429V436.326C997.677 436.326 996.014 437.848 996.014 441.225V442.304H994.045V444.38H996.014V457.472Z" fill="#D4C2FF"/>
<path d="M1019.08 449.86C1019.08 445.072 1015.72 442.055 1011.4 442.055C1007.1 442.055 1003.72 445.072 1003.72 449.86C1003.72 454.676 1006.99 457.721 1011.29 457.721C1015.61 457.721 1019.08 454.676 1019.08 449.86ZM1006.3 449.86C1006.3 446.041 1008.71 444.241 1011.37 444.241C1013.98 444.241 1016.5 446.041 1016.5 449.86C1016.5 453.707 1013.92 455.506 1011.29 455.506C1008.66 455.506 1006.3 453.707 1006.3 449.86Z" fill="#D4C2FF"/>
<path d="M1024.92 449.224C1024.92 445.708 1026.75 444.629 1029.16 444.629H1029.82V442.027C1027.41 442.027 1025.78 443.079 1024.92 444.767V442.304H1022.4V457.472H1024.92V449.224Z" fill="#D4C2FF"/>
<path d="M1054.66 457.472H1057.16V448.532C1057.16 444.186 1054.47 442.027 1051 442.027C1048.67 442.027 1046.51 443.217 1045.63 445.404C1044.63 443.134 1042.55 442.027 1040.05 442.027C1038.06 442.027 1036.26 442.885 1035.26 444.491V442.304H1032.74V457.472H1035.26V449.113C1035.26 445.847 1037 444.214 1039.56 444.214C1042.05 444.214 1043.71 445.791 1043.71 448.891V457.472H1046.21V449.113C1046.21 445.847 1047.95 444.214 1050.5 444.214C1053 444.214 1054.66 445.791 1054.66 448.891V457.472Z" fill="#D4C2FF"/>
<path d="M1060.35 449.832C1060.35 454.538 1063.48 457.721 1067.53 457.721C1070.33 457.721 1072.3 456.281 1073.21 454.648V457.472H1075.76V442.304H1073.21V445.072C1072.33 443.494 1070.39 442.055 1067.56 442.055C1063.48 442.055 1060.35 445.1 1060.35 449.832ZM1073.21 449.86C1073.21 453.431 1070.83 455.506 1068.06 455.506C1065.29 455.506 1062.93 453.403 1062.93 449.832C1062.93 446.262 1065.29 444.241 1068.06 444.241C1070.83 444.241 1073.21 446.345 1073.21 449.86Z" fill="#D4C2FF"/>
<path d="M1086.47 449.832C1086.47 454.538 1089.61 457.721 1093.68 457.721C1096.45 457.721 1098.42 456.309 1099.34 454.621V457.472H1101.89V436.99H1099.34V445.016C1098.28 443.273 1096.09 442.055 1093.71 442.055C1089.61 442.055 1086.47 445.1 1086.47 449.832ZM1099.34 449.86C1099.34 453.431 1096.95 455.506 1094.18 455.506C1091.41 455.506 1089.05 453.403 1089.05 449.832C1089.05 446.262 1091.41 444.241 1094.18 444.241C1096.95 444.241 1099.34 446.345 1099.34 449.86Z" fill="#D4C2FF"/>
<path d="M1112.61 444.186C1115.21 444.186 1117.43 445.819 1117.4 448.781H1107.81C1108.09 445.819 1110.14 444.186 1112.61 444.186ZM1119.7 452.794H1116.99C1116.43 454.427 1114.99 455.589 1112.72 455.589C1110.14 455.589 1107.98 453.901 1107.78 450.829H1119.93C1119.98 450.303 1120.01 449.86 1120.01 449.307C1120.01 445.155 1117.13 442.055 1112.72 442.055C1108.28 442.055 1105.21 445.072 1105.21 449.86C1105.21 454.676 1108.39 457.721 1112.72 457.721C1116.49 457.721 1118.93 455.562 1119.7 452.794Z" fill="#D4C2FF"/>
<path d="M897.593 479.553C900.199 479.553 902.416 481.186 902.388 484.147H892.798C893.075 481.186 895.126 479.553 897.593 479.553ZM904.689 488.16H901.973C901.418 489.793 899.977 490.956 897.704 490.956C895.126 490.956 892.964 489.268 892.77 486.195H904.911C904.966 485.669 904.994 485.227 904.994 484.673C904.994 480.521 902.111 477.421 897.704 477.421C893.269 477.421 890.192 480.438 890.192 485.227C890.192 490.043 893.38 493.087 897.704 493.087C901.474 493.087 903.913 490.928 904.689 488.16Z" fill="#D4C2FF"/>
<path d="M919.245 488.714C919.134 483.289 910.319 485.254 910.319 481.656C910.319 480.438 911.428 479.553 913.285 479.553C915.309 479.553 916.473 480.66 916.584 482.182H919.106C918.94 479.22 916.723 477.421 913.369 477.421C909.987 477.421 907.797 479.331 907.797 481.656C907.797 487.302 916.778 485.337 916.778 488.714C916.778 489.959 915.669 490.956 913.673 490.956C911.539 490.956 910.236 489.849 910.098 488.382H907.492C907.658 491.15 910.153 493.087 913.701 493.087C917.055 493.087 919.245 491.205 919.245 488.714Z" fill="#D4C2FF"/>
<path d="M923.36 488.686C923.36 491.731 924.885 492.838 927.574 492.838H929.847V490.707H927.989C926.437 490.707 925.883 490.181 925.883 488.686V479.746H929.847V477.67H925.883V473.851H923.36V477.67H921.392V479.746H923.36V488.686Z" fill="#D4C2FF"/>
<path d="M946.375 477.67H943.852V486.002C943.852 489.268 942.106 490.873 939.5 490.873C936.95 490.873 935.259 489.295 935.259 486.223V477.67H932.764V486.555C932.764 490.901 935.509 493.059 939.001 493.059C941.025 493.059 942.882 492.174 943.852 490.596V492.838H946.375V477.67Z" fill="#D4C2FF"/>
<path d="M949.691 485.199C949.691 489.904 952.823 493.087 956.898 493.087C959.67 493.087 961.638 491.676 962.553 489.987V492.838H965.103V472.356H962.553V480.383C961.5 478.639 959.31 477.421 956.926 477.421C952.823 477.421 949.691 480.466 949.691 485.199ZM962.553 485.227C962.553 488.797 960.169 490.873 957.397 490.873C954.625 490.873 952.269 488.769 952.269 485.199C952.269 481.628 954.625 479.608 957.397 479.608C960.169 479.608 962.553 481.711 962.553 485.227Z" fill="#D4C2FF"/>
<path d="M983.78 485.227C983.78 480.438 980.426 477.421 976.102 477.421C971.805 477.421 968.423 480.438 968.423 485.227C968.423 490.043 971.694 493.087 975.991 493.087C980.315 493.087 983.78 490.043 983.78 485.227ZM971.001 485.227C971.001 481.407 973.413 479.608 976.074 479.608C978.68 479.608 981.202 481.407 981.202 485.227C981.202 489.074 978.624 490.873 975.991 490.873C973.357 490.873 971.001 489.074 971.001 485.227Z" fill="#D4C2FF"/>
<path d="M998.018 488.714C997.907 483.289 989.092 485.254 989.092 481.656C989.092 480.438 990.201 479.553 992.058 479.553C994.082 479.553 995.246 480.66 995.357 482.182H997.879C997.713 479.22 995.496 477.421 992.141 477.421C988.76 477.421 986.57 479.331 986.57 481.656C986.57 487.302 995.551 485.337 995.551 488.714C995.551 489.959 994.442 490.956 992.446 490.956C990.312 490.956 989.009 489.849 988.871 488.382H986.265C986.431 491.15 988.926 493.087 992.474 493.087C995.828 493.087 998.018 491.205 998.018 488.714Z" fill="#D4C2FF"/>
<path d="M1023.38 485.227C1023.38 480.438 1020.03 477.421 1015.7 477.421C1011.41 477.421 1008.03 480.438 1008.03 485.227C1008.03 490.043 1011.3 493.087 1015.59 493.087C1019.92 493.087 1023.38 490.043 1023.38 485.227ZM1010.6 485.227C1010.6 481.407 1013.02 479.608 1015.68 479.608C1018.28 479.608 1020.81 481.407 1020.81 485.227C1020.81 489.074 1018.23 490.873 1015.59 490.873C1012.96 490.873 1010.6 489.074 1010.6 485.227Z" fill="#D4C2FF"/>
<path d="M1037.82 492.838H1040.31V483.898C1040.31 479.553 1037.62 477.394 1034.1 477.394C1032.05 477.394 1030.22 478.252 1029.22 479.829V477.67H1026.7V492.838H1029.22V484.452C1029.22 481.186 1031 479.58 1033.57 479.58C1036.12 479.58 1037.82 481.158 1037.82 484.258V492.838Z" fill="#D4C2FF"/>
<path d="M1044.43 492.838H1046.95V472.356H1044.43V492.838Z" fill="#D4C2FF"/>
<path d="M1051.25 492.838H1053.77V477.67H1051.25V492.838ZM1052.55 475.207C1053.47 475.207 1054.22 474.46 1054.22 473.491C1054.22 472.522 1053.47 471.775 1052.55 471.775C1051.58 471.775 1050.84 472.522 1050.84 473.491C1050.84 474.46 1051.58 475.207 1052.55 475.207Z" fill="#D4C2FF"/>
<path d="M1069.19 492.838H1071.68V483.898C1071.68 479.553 1068.99 477.394 1065.47 477.394C1063.42 477.394 1061.59 478.252 1060.6 479.829V477.67H1058.07V492.838H1060.6V484.452C1060.6 481.186 1062.37 479.58 1064.95 479.58C1067.5 479.58 1069.19 481.158 1069.19 484.258V492.838Z" fill="#D4C2FF"/>
<path d="M1082.26 479.553C1084.87 479.553 1087.09 481.186 1087.06 484.147H1077.47C1077.74 481.186 1079.8 479.553 1082.26 479.553ZM1089.36 488.16H1086.64C1086.09 489.793 1084.65 490.956 1082.37 490.956C1079.8 490.956 1077.63 489.268 1077.44 486.195H1089.58C1089.64 485.669 1089.66 485.227 1089.66 484.673C1089.66 480.521 1086.78 477.421 1082.37 477.421C1077.94 477.421 1074.86 480.438 1074.86 485.227C1074.86 490.043 1078.05 493.087 1082.37 493.087C1086.14 493.087 1088.58 490.928 1089.36 488.16Z" fill="#D4C2FF"/>
<path d="M1095.46 491.288C1095.46 490.319 1094.71 489.572 1093.8 489.572C1092.83 489.572 1092.08 490.319 1092.08 491.288C1092.08 492.257 1092.83 493.004 1093.8 493.004C1094.71 493.004 1095.46 492.257 1095.46 491.288Z" fill="#D4C2FF"/>
<rect x="160" y="618" width="352" height="56" rx="8" fill="#04D361"/>
<path d="M275.79 652.192C274.062 652.192 272.745 651.728 271.838 650.8C270.932 649.872 270.478 648.443 270.478 646.512C270.478 644.613 270.937 643.195 271.854 642.256C272.772 641.307 274.084 640.832 275.79 640.832C276.729 640.832 277.561 640.992 278.286 641.312C279.012 641.621 279.582 642.096 279.998 642.736C280.425 643.365 280.638 644.144 280.638 645.072H278.542C278.542 644.272 278.292 643.653 277.79 643.216C277.3 642.779 276.644 642.56 275.822 642.56C274.724 642.56 273.908 642.875 273.374 643.504C272.841 644.133 272.574 645.083 272.574 646.352V646.672C272.574 647.952 272.836 648.907 273.358 649.536C273.892 650.155 274.713 650.464 275.822 650.464C276.686 650.464 277.369 650.251 277.87 649.824C278.372 649.387 278.622 648.773 278.622 647.984H280.638C280.638 649.36 280.19 650.405 279.294 651.12C278.409 651.835 277.241 652.192 275.79 652.192ZM286.057 652.192C284.671 652.192 283.631 651.835 282.937 651.12C282.255 650.405 281.913 649.296 281.913 647.792C281.913 646.288 282.255 645.179 282.937 644.464C283.631 643.749 284.671 643.392 286.057 643.392C287.444 643.392 288.479 643.749 289.161 644.464C289.855 645.179 290.201 646.288 290.201 647.792C290.201 649.296 289.855 650.405 289.161 651.12C288.479 651.835 287.444 652.192 286.057 652.192ZM286.057 650.624C286.815 650.624 287.364 650.405 287.705 649.968C288.047 649.52 288.217 648.832 288.217 647.904V647.68C288.217 646.752 288.047 646.069 287.705 645.632C287.364 645.184 286.815 644.96 286.057 644.96C285.289 644.96 284.735 645.184 284.393 645.632C284.063 646.069 283.897 646.752 283.897 647.68V647.904C283.897 648.832 284.063 649.52 284.393 649.968C284.735 650.405 285.289 650.624 286.057 650.624ZM291.91 643.584H293.494L293.654 644.704H293.766C294.075 644.288 294.454 643.968 294.902 643.744C295.361 643.509 295.883 643.392 296.47 643.392C297.323 643.392 297.99 643.627 298.47 644.096C298.95 644.555 299.19 645.296 299.19 646.32V652H297.27V646.656C297.27 646.08 297.137 645.669 296.87 645.424C296.614 645.179 296.23 645.056 295.718 645.056C295.185 645.056 294.737 645.248 294.374 645.632C294.011 646.016 293.83 646.507 293.83 647.104V652H291.91V643.584ZM304.755 652.192C303.432 652.192 302.451 651.835 301.811 651.12C301.171 650.405 300.851 649.296 300.851 647.792C300.851 646.288 301.171 645.179 301.811 644.464C302.461 643.749 303.443 643.392 304.755 643.392C305.896 643.392 306.776 643.675 307.395 644.24C308.013 644.805 308.323 645.637 308.323 646.736H306.371C306.371 646.139 306.237 645.691 305.971 645.392C305.704 645.093 305.288 644.944 304.723 644.944C304.061 644.944 303.576 645.173 303.267 645.632C302.957 646.08 302.803 646.773 302.803 647.712V647.904C302.803 648.843 302.957 649.536 303.267 649.984C303.587 650.421 304.099 650.64 304.803 650.64C305.347 650.64 305.757 650.485 306.035 650.176C306.323 649.867 306.467 649.424 306.467 648.848H308.323C308.323 649.904 308.008 650.725 307.379 651.312C306.76 651.899 305.885 652.192 304.755 652.192ZM309.973 640.432H311.893V652H309.973V640.432ZM316.785 652.192C314.972 652.192 314.065 651.216 314.065 649.264V643.584H315.985V648.928C315.985 649.504 316.113 649.915 316.369 650.16C316.636 650.405 317.025 650.528 317.537 650.528C318.07 650.528 318.518 650.336 318.881 649.952C319.244 649.568 319.425 649.077 319.425 648.48V643.584H321.345V652H319.761L319.601 650.88H319.489C319.18 651.296 318.796 651.621 318.337 651.856C317.889 652.08 317.372 652.192 316.785 652.192ZM323.582 640.432H325.47V642.32H323.582V640.432ZM323.582 643.584H325.502V652H323.582V643.584ZM327.723 643.584H329.307L329.483 644.912H329.595C329.979 643.899 330.608 643.392 331.483 643.392C331.781 643.392 332.048 643.44 332.283 643.536V645.344H331.675C330.32 645.344 329.643 646.101 329.643 647.616V652H327.723V643.584ZM341.474 652.192C340.151 652.192 339.17 651.835 338.53 651.12C337.89 650.405 337.57 649.296 337.57 647.792C337.57 646.288 337.89 645.179 338.53 644.464C339.18 643.749 340.162 643.392 341.474 643.392C342.615 643.392 343.495 643.675 344.114 644.24C344.732 644.805 345.042 645.637 345.042 646.736H343.09C343.09 646.139 342.956 645.691 342.69 645.392C342.423 645.093 342.007 644.944 341.442 644.944C340.78 644.944 340.295 645.173 339.986 645.632C339.676 646.08 339.522 646.773 339.522 647.712V647.904C339.522 648.843 339.676 649.536 339.986 649.984C340.306 650.421 340.818 650.64 341.522 650.64C342.066 650.64 342.476 650.485 342.754 650.176C343.042 649.867 343.186 649.424 343.186 648.848H345.042C345.042 649.904 344.727 650.725 344.098 651.312C343.479 651.899 342.604 652.192 341.474 652.192ZM348.739 652.192C348.057 652.192 347.438 652.027 346.883 651.696C346.339 651.355 346.067 650.731 346.067 649.824C346.067 648.747 346.526 647.989 347.443 647.552C348.361 647.115 349.662 646.896 351.347 646.896V646.192C351.347 645.787 351.241 645.472 351.027 645.248C350.825 645.024 350.451 644.912 349.907 644.912C349.342 644.912 348.942 645.003 348.707 645.184C348.473 645.365 348.355 645.589 348.355 645.856V646.08H346.499C346.489 646.016 346.483 645.899 346.483 645.728C346.483 645.003 346.793 644.432 347.411 644.016C348.041 643.6 348.873 643.392 349.907 643.392C351.027 643.392 351.865 643.621 352.419 644.08C352.985 644.539 353.267 645.195 353.267 646.048V650.064C353.267 650.256 353.321 650.4 353.427 650.496C353.534 650.581 353.667 650.624 353.827 650.624H354.339V651.936C353.998 652.096 353.598 652.176 353.139 652.176C352.723 652.176 352.377 652.075 352.099 651.872C351.822 651.669 351.635 651.392 351.539 651.04H351.427C350.798 651.808 349.902 652.192 348.739 652.192ZM349.315 650.656C349.945 650.656 350.441 650.475 350.803 650.112C351.166 649.749 351.347 649.259 351.347 648.64V648.256C350.313 648.256 349.502 648.357 348.915 648.56C348.329 648.752 348.035 649.109 348.035 649.632C348.035 650.315 348.462 650.656 349.315 650.656ZM358.398 652.192C357.331 652.192 356.505 651.829 355.918 651.104C355.331 650.379 355.038 649.269 355.038 647.776C355.038 646.325 355.331 645.232 355.918 644.496C356.505 643.76 357.289 643.392 358.27 643.392C359.443 643.392 360.286 643.781 360.798 644.56H360.894V640.432H362.814V652H361.23L361.07 650.88H360.974C360.697 651.307 360.334 651.632 359.886 651.856C359.438 652.08 358.942 652.192 358.398 652.192ZM358.974 650.544C359.635 650.544 360.121 650.325 360.43 649.888C360.739 649.44 360.894 648.779 360.894 647.904V647.712C360.894 645.931 360.254 645.04 358.974 645.04C358.27 645.04 357.769 645.253 357.47 645.68C357.171 646.096 357.022 646.768 357.022 647.696V647.904C357.022 648.821 357.171 649.493 357.47 649.92C357.769 650.336 358.27 650.544 358.974 650.544ZM367.099 652.192C366.416 652.192 365.797 652.027 365.243 651.696C364.699 651.355 364.427 650.731 364.427 649.824C364.427 648.747 364.885 647.989 365.803 647.552C366.72 647.115 368.021 646.896 369.707 646.896V646.192C369.707 645.787 369.6 645.472 369.387 645.248C369.184 645.024 368.811 644.912 368.267 644.912C367.701 644.912 367.301 645.003 367.067 645.184C366.832 645.365 366.715 645.589 366.715 645.856V646.08H364.859C364.848 646.016 364.843 645.899 364.843 645.728C364.843 645.003 365.152 644.432 365.771 644.016C366.4 643.6 367.232 643.392 368.267 643.392C369.387 643.392 370.224 643.621 370.779 644.08C371.344 644.539 371.627 645.195 371.627 646.048V650.064C371.627 650.256 371.68 650.4 371.787 650.496C371.893 650.581 372.027 650.624 372.187 650.624H372.699V651.936C372.357 652.096 371.957 652.176 371.499 652.176C371.083 652.176 370.736 652.075 370.459 651.872C370.181 651.669 369.995 651.392 369.899 651.04H369.787C369.157 651.808 368.261 652.192 367.099 652.192ZM367.675 650.656C368.304 650.656 368.8 650.475 369.163 650.112C369.525 649.749 369.707 649.259 369.707 648.64V648.256C368.672 648.256 367.861 648.357 367.275 648.56C366.688 648.752 366.395 649.109 366.395 649.632C366.395 650.315 366.821 650.656 367.675 650.656ZM377.125 652.192C375.963 652.192 375.061 651.952 374.421 651.472C373.792 650.992 373.477 650.368 373.477 649.6C373.477 649.504 373.477 649.44 373.477 649.408C373.488 649.376 373.493 649.355 373.493 649.344H375.365V649.472C375.376 649.888 375.552 650.197 375.893 650.4C376.245 650.592 376.683 650.688 377.205 650.688C377.675 650.688 378.075 650.613 378.405 650.464C378.736 650.304 378.901 650.069 378.901 649.76C378.901 649.515 378.811 649.317 378.629 649.168C378.448 649.008 378.224 648.885 377.957 648.8C377.691 648.704 377.312 648.597 376.821 648.48C376.16 648.32 375.616 648.16 375.189 648C374.773 647.84 374.416 647.589 374.117 647.248C373.819 646.907 373.669 646.459 373.669 645.904C373.669 645.104 374 644.485 374.661 644.048C375.323 643.611 376.181 643.392 377.237 643.392C377.888 643.392 378.469 643.488 378.981 643.68C379.493 643.872 379.888 644.144 380.165 644.496C380.453 644.837 380.597 645.232 380.597 645.68L380.581 646.032H378.709V645.968C378.709 645.637 378.571 645.381 378.293 645.2C378.027 645.008 377.637 644.912 377.125 644.912C376.624 644.912 376.245 644.992 375.989 645.152C375.733 645.301 375.605 645.499 375.605 645.744C375.605 646.043 375.76 646.267 376.069 646.416C376.389 646.555 376.875 646.693 377.525 646.832C378.229 646.992 378.795 647.157 379.221 647.328C379.659 647.488 380.037 647.744 380.357 648.096C380.677 648.448 380.837 648.923 380.837 649.52C380.837 650.448 380.501 651.125 379.829 651.552C379.168 651.979 378.267 652.192 377.125 652.192ZM384.663 652.192C383.948 652.192 383.431 651.995 383.111 651.6C382.802 651.195 382.647 650.693 382.647 650.096V645.152H381.623V643.584H382.679L383.031 641.232H384.567V643.584H386.007V645.152H384.567V649.904C384.567 650.384 384.796 650.624 385.255 650.624H386.007V651.936C385.836 652 385.623 652.059 385.367 652.112C385.111 652.165 384.876 652.192 384.663 652.192ZM387.566 643.584H389.15L389.326 644.912H389.438C389.822 643.899 390.452 643.392 391.326 643.392C391.625 643.392 391.892 643.44 392.126 643.536V645.344H391.518C390.164 645.344 389.486 646.101 389.486 647.616V652H387.566V643.584ZM397.104 652.192C395.717 652.192 394.677 651.835 393.984 651.12C393.301 650.405 392.96 649.296 392.96 647.792C392.96 646.288 393.301 645.179 393.984 644.464C394.677 643.749 395.717 643.392 397.104 643.392C398.491 643.392 399.525 643.749 400.208 644.464C400.901 645.179 401.248 646.288 401.248 647.792C401.248 649.296 400.901 650.405 400.208 651.12C399.525 651.835 398.491 652.192 397.104 652.192ZM397.104 650.624C397.861 650.624 398.411 650.405 398.752 649.968C399.093 649.52 399.264 648.832 399.264 647.904V647.68C399.264 646.752 399.093 646.069 398.752 645.632C398.411 645.184 397.861 644.96 397.104 644.96C396.336 644.96 395.781 645.184 395.44 645.632C395.109 646.069 394.944 646.752 394.944 647.68V647.904C394.944 648.832 395.109 649.52 395.44 649.968C395.781 650.405 396.336 650.624 397.104 650.624Z" fill="white"/>
<path d="M160.5 301C160.5 296.858 163.858 293.5 168 293.5H504C508.142 293.5 511.5 296.858 511.5 301V364.5H160.5V301Z" fill="#FAFAFC" stroke="#E6E6F0"/>
<path d="M190.408 312.624V319.272L186.016 312.624H184.924V321H186.016V314.34L190.408 321H191.5V312.624H190.408ZM199.602 317.7C199.602 315.624 198.15 314.316 196.278 314.316C194.418 314.316 192.954 315.624 192.954 317.7C192.954 319.788 194.37 321.108 196.23 321.108C198.102 321.108 199.602 319.788 199.602 317.7ZM194.07 317.7C194.07 316.044 195.114 315.264 196.266 315.264C197.394 315.264 198.486 316.044 198.486 317.7C198.486 319.368 197.37 320.148 196.23 320.148C195.09 320.148 194.07 319.368 194.07 317.7ZM210.529 321H211.609V317.124C211.609 315.24 210.445 314.304 208.945 314.304C207.937 314.304 207.001 314.82 206.617 315.768C206.185 314.784 205.285 314.304 204.205 314.304C203.341 314.304 202.561 314.676 202.129 315.372V314.424H201.037V321H202.129V317.376C202.129 315.96 202.885 315.252 203.989 315.252C205.069 315.252 205.789 315.936 205.789 317.28V321H206.869V317.376C206.869 315.96 207.625 315.252 208.729 315.252C209.809 315.252 210.529 315.936 210.529 317.28V321ZM216.197 315.24C217.325 315.24 218.285 315.948 218.273 317.232H214.121C214.241 315.948 215.129 315.24 216.197 315.24ZM219.269 318.972H218.093C217.853 319.68 217.229 320.184 216.245 320.184C215.129 320.184 214.193 319.452 214.109 318.12H219.365C219.389 317.892 219.401 317.7 219.401 317.46C219.401 315.66 218.153 314.316 216.245 314.316C214.325 314.316 212.993 315.624 212.993 317.7C212.993 319.788 214.373 321.108 216.245 321.108C217.877 321.108 218.933 320.172 219.269 318.972Z" fill="#C1BCCC"/>
<path d="M184.544 335.032H187.6V345H189.056V335.032H192.096V333.848H184.544V335.032ZM193.888 345H195.344V336.232H193.888V345ZM194.64 334.808C195.168 334.808 195.6 334.376 195.6 333.816C195.6 333.256 195.168 332.824 194.64 332.824C194.08 332.824 193.648 333.256 193.648 333.816C193.648 334.376 194.08 334.808 194.64 334.808ZM197.282 340.584C197.282 343.304 199.09 345.144 201.426 345.144C203.042 345.144 204.178 344.312 204.706 343.368V345H206.178V336.232H204.706V337.832C204.194 336.92 203.074 336.088 201.442 336.088C199.09 336.088 197.282 337.848 197.282 340.584ZM204.706 340.6C204.706 342.664 203.33 343.864 201.73 343.864C200.13 343.864 198.77 342.648 198.77 340.584C198.77 338.52 200.13 337.352 201.73 337.352C203.33 337.352 204.706 338.568 204.706 340.6ZM208.094 340.584C208.094 343.304 209.902 345.144 212.254 345.144C213.854 345.144 214.99 344.296 215.518 343.352V345.192C215.518 347.064 214.35 348.056 212.798 348.056C211.358 348.056 210.318 347.336 209.998 346.28H208.558C208.846 348.152 210.494 349.32 212.798 349.32C215.374 349.32 216.99 347.608 216.99 345.192V336.232H215.518V337.832C215.006 336.888 213.854 336.088 212.254 336.088C209.902 336.088 208.094 337.848 208.094 340.584ZM215.518 340.6C215.518 342.664 214.142 343.864 212.542 343.864C210.942 343.864 209.582 342.648 209.582 340.584C209.582 338.52 210.942 337.352 212.542 337.352C214.142 337.352 215.518 338.568 215.518 340.6ZM227.771 340.6C227.771 337.832 225.835 336.088 223.339 336.088C220.859 336.088 218.907 337.832 218.907 340.6C218.907 343.384 220.795 345.144 223.275 345.144C225.771 345.144 227.771 343.384 227.771 340.6ZM220.395 340.6C220.395 338.392 221.787 337.352 223.323 337.352C224.827 337.352 226.283 338.392 226.283 340.6C226.283 342.824 224.795 343.864 223.275 343.864C221.755 343.864 220.395 342.824 220.395 340.6Z" fill="#6A6180"/>
<path d="M160.5 364.5H511.5V435.5H160.5V364.5Z" fill="#FAFAFC" stroke="#E6E6F0"/>
<path d="M190.36 389.72C190.36 386.624 185.848 387.968 185.848 385.808C185.848 384.908 186.556 384.44 187.456 384.464C188.476 384.476 189.004 385.112 189.076 385.676H190.276C190.144 384.404 189.1 383.528 187.504 383.528C185.848 383.528 184.732 384.464 184.732 385.844C184.732 388.952 189.256 387.512 189.256 389.768C189.256 390.56 188.632 391.16 187.576 391.16C186.412 391.16 185.92 390.464 185.848 389.768H184.684C184.708 391.148 185.896 392.084 187.576 392.084C189.388 392.084 190.36 390.908 190.36 389.72ZM198.207 388.7C198.207 386.624 196.755 385.316 194.883 385.316C193.023 385.316 191.559 386.624 191.559 388.7C191.559 390.788 192.975 392.108 194.835 392.108C196.707 392.108 198.207 390.788 198.207 388.7ZM192.675 388.7C192.675 387.044 193.719 386.264 194.871 386.264C195.999 386.264 197.091 387.044 197.091 388.7C197.091 390.368 195.975 391.148 194.835 391.148C193.695 391.148 192.675 390.368 192.675 388.7ZM200.735 386.648V383.12H199.643V392H200.735V390.788C201.143 391.508 201.995 392.108 203.195 392.108C204.959 392.108 206.315 390.728 206.315 388.688C206.315 386.636 204.971 385.316 203.195 385.316C202.031 385.316 201.155 385.916 200.735 386.648ZM205.199 388.688C205.199 390.236 204.179 391.148 202.967 391.148C201.779 391.148 200.735 390.248 200.735 388.7C200.735 387.176 201.779 386.264 202.967 386.264C204.179 386.264 205.199 387.14 205.199 388.688ZM208.844 388.424C208.844 386.9 209.636 386.432 210.68 386.432H210.968V385.304C209.924 385.304 209.216 385.76 208.844 386.492V385.424H207.752V392H208.844V388.424ZM215.025 386.24C216.153 386.24 217.113 386.948 217.101 388.232H212.949C213.069 386.948 213.957 386.24 215.025 386.24ZM218.097 389.972H216.921C216.681 390.68 216.057 391.184 215.073 391.184C213.957 391.184 213.021 390.452 212.937 389.12H218.193C218.217 388.892 218.229 388.7 218.229 388.46C218.229 386.66 216.981 385.316 215.073 385.316C213.153 385.316 211.821 386.624 211.821 388.7C211.821 390.788 213.201 392.108 215.073 392.108C216.705 392.108 217.761 391.172 218.097 389.972ZM224.482 392H225.562V388.124C225.562 386.24 224.398 385.304 222.874 385.304C221.986 385.304 221.194 385.676 220.762 386.36V385.424H219.67V392H220.762V388.364C220.762 386.948 221.53 386.252 222.646 386.252C223.75 386.252 224.482 386.936 224.482 388.28V392ZM233.586 388.7C233.586 386.624 232.134 385.316 230.262 385.316C228.402 385.316 226.938 386.624 226.938 388.7C226.938 390.788 228.354 392.108 230.214 392.108C232.086 392.108 233.586 390.788 233.586 388.7ZM228.054 388.7C228.054 387.044 229.098 386.264 230.25 386.264C231.378 386.264 232.47 387.044 232.47 388.7C232.47 390.368 231.354 391.148 230.214 391.148C229.074 391.148 228.054 390.368 228.054 388.7ZM244.514 392H245.594V388.124C245.594 386.24 244.43 385.304 242.93 385.304C241.922 385.304 240.986 385.82 240.602 386.768C240.17 385.784 239.27 385.304 238.19 385.304C237.326 385.304 236.546 385.676 236.114 386.372V385.424H235.022V392H236.114V388.376C236.114 386.96 236.87 386.252 237.974 386.252C239.054 386.252 239.774 386.936 239.774 388.28V392H240.854V388.376C240.854 386.96 241.61 386.252 242.714 386.252C243.794 386.252 244.514 386.936 244.514 388.28V392ZM250.181 386.24C251.309 386.24 252.269 386.948 252.257 388.232H248.105C248.225 386.948 249.113 386.24 250.181 386.24ZM253.253 389.972H252.077C251.837 390.68 251.213 391.184 250.229 391.184C249.113 391.184 248.177 390.452 248.093 389.12H253.349C253.373 388.892 253.385 388.7 253.385 388.46C253.385 386.66 252.137 385.316 250.229 385.316C248.309 385.316 246.977 386.624 246.977 388.7C246.977 390.788 248.357 392.108 250.229 392.108C251.861 392.108 252.917 391.172 253.253 389.972Z" fill="#C1BCCC"/>
<path d="M185.232 404.848V416H190.592V414.816H186.688V404.848H185.232ZM199.914 407.232H198.458V412.048C198.458 413.936 197.45 414.864 195.946 414.864C194.474 414.864 193.498 413.952 193.498 412.176V407.232H192.058V412.368C192.058 414.88 193.642 416.128 195.658 416.128C196.826 416.128 197.898 415.616 198.458 414.704V416H199.914V407.232ZM201.829 411.6C201.829 414.384 203.605 416.144 206.101 416.144C208.277 416.144 209.701 414.928 210.149 413.184H208.581C208.261 414.288 207.397 414.912 206.101 414.912C204.501 414.912 203.317 413.776 203.317 411.6C203.317 409.456 204.501 408.32 206.101 408.32C207.397 408.32 208.277 408.992 208.581 410.048H210.149C209.701 408.208 208.277 407.088 206.101 407.088C203.605 407.088 201.829 408.848 201.829 411.6ZM212.091 416H213.547V411.152C213.547 409.264 214.571 408.336 216.059 408.336C217.531 408.336 218.507 409.248 218.507 411.04V416H219.947V410.832C219.947 408.32 218.395 407.072 216.443 407.072C215.211 407.072 214.123 407.568 213.547 408.496V404.16H212.091V416ZM222.646 413.6C222.646 415.36 223.526 416 225.078 416H226.39V414.768H225.318C224.422 414.768 224.102 414.464 224.102 413.6V408.432H226.39V407.232H224.102V405.024H222.646V407.232H221.51V408.432H222.646V413.6ZM231.882 408.32C233.386 408.32 234.666 409.264 234.65 410.976H229.114C229.274 409.264 230.458 408.32 231.882 408.32ZM235.978 413.296H234.41C234.09 414.24 233.258 414.912 231.946 414.912C230.458 414.912 229.21 413.936 229.098 412.16H236.106C236.138 411.856 236.154 411.6 236.154 411.28C236.154 408.88 234.49 407.088 231.946 407.088C229.386 407.088 227.61 408.832 227.61 411.6C227.61 414.384 229.45 416.144 231.946 416.144C234.122 416.144 235.53 414.896 235.978 413.296ZM244.492 416H245.932V410.832C245.932 408.32 244.38 407.072 242.348 407.072C241.164 407.072 240.108 407.568 239.532 408.48V407.232H238.076V416H239.532V411.152C239.532 409.264 240.556 408.336 242.044 408.336C243.516 408.336 244.492 409.248 244.492 411.04V416ZM249.766 408.864V404.16H248.31V416H249.766V414.384C250.31 415.344 251.446 416.144 253.046 416.144C255.398 416.144 257.206 414.304 257.206 411.584C257.206 408.848 255.414 407.088 253.046 407.088C251.494 407.088 250.326 407.888 249.766 408.864ZM255.718 411.584C255.718 413.648 254.358 414.864 252.742 414.864C251.158 414.864 249.766 413.664 249.766 411.6C249.766 409.568 251.158 408.352 252.742 408.352C254.358 408.352 255.718 409.52 255.718 411.584ZM262.851 408.32C264.355 408.32 265.635 409.264 265.619 410.976H260.083C260.243 409.264 261.427 408.32 262.851 408.32ZM266.947 413.296H265.379C265.059 414.24 264.227 414.912 262.915 414.912C261.427 414.912 260.179 413.936 260.067 412.16H267.075C267.107 411.856 267.123 411.6 267.123 411.28C267.123 408.88 265.459 407.088 262.915 407.088C260.355 407.088 258.579 408.832 258.579 411.6C258.579 414.384 260.419 416.144 262.915 416.144C265.091 416.144 266.499 414.896 266.947 413.296ZM270.501 411.232C270.501 409.2 271.557 408.576 272.949 408.576H273.333V407.072C271.941 407.072 270.997 407.68 270.501 408.656V407.232H269.045V416H270.501V411.232ZM274.469 411.584C274.469 414.304 276.277 416.144 278.629 416.144C280.229 416.144 281.365 415.296 281.893 414.352V416.192C281.893 418.064 280.725 419.056 279.173 419.056C277.733 419.056 276.693 418.336 276.373 417.28H274.933C275.221 419.152 276.869 420.32 279.173 420.32C281.749 420.32 283.365 418.608 283.365 416.192V407.232H281.893V408.832C281.381 407.888 280.229 407.088 278.629 407.088C276.277 407.088 274.469 408.848 274.469 411.584ZM281.893 411.6C281.893 413.664 280.517 414.864 278.917 414.864C277.317 414.864 275.957 413.648 275.957 411.584C275.957 409.52 277.317 408.352 278.917 408.352C280.517 408.352 281.893 409.568 281.893 411.6Z" fill="#6A6180"/>
<path d="M160.5 435.5H511.5V506.5H160.5V435.5Z" fill="#FAFAFC" stroke="#E6E6F0"/>
<path d="M189.424 454.624H184.924V463H189.424V462.1H186.016V459.22H189.064V458.32H186.016V455.524H189.424V454.624ZM190.848 459.064H195.636V458.14H190.848V459.064ZM207.178 463H208.258V459.124C208.258 457.24 207.094 456.304 205.594 456.304C204.586 456.304 203.65 456.82 203.266 457.768C202.834 456.784 201.934 456.304 200.854 456.304C199.99 456.304 199.21 456.676 198.778 457.372V456.424H197.686V463H198.778V459.376C198.778 457.96 199.534 457.252 200.638 457.252C201.718 457.252 202.438 457.936 202.438 459.28V463H203.518V459.376C203.518 457.96 204.274 457.252 205.378 457.252C206.458 457.252 207.178 457.936 207.178 459.28V463ZM209.641 459.688C209.641 461.728 210.997 463.108 212.749 463.108C213.961 463.108 214.813 462.484 215.209 461.776V463H216.313V456.424H215.209V457.624C214.825 456.94 213.985 456.316 212.761 456.316C210.997 456.316 209.641 457.636 209.641 459.688ZM215.209 459.7C215.209 461.248 214.177 462.148 212.977 462.148C211.777 462.148 210.757 461.236 210.757 459.688C210.757 458.14 211.777 457.264 212.977 457.264C214.177 457.264 215.209 458.176 215.209 459.7ZM218.158 463H219.25V456.424H218.158V463ZM218.722 455.356C219.118 455.356 219.442 455.032 219.442 454.612C219.442 454.192 219.118 453.868 218.722 453.868C218.302 453.868 217.978 454.192 217.978 454.612C217.978 455.032 218.302 455.356 218.722 455.356ZM221.112 463H222.204V454.12H221.112V463Z" fill="#C1BCCC"/>
<path d="M185.552 484.6C185.552 486.36 186.432 487 187.984 487H189.296V485.768H188.224C187.328 485.768 187.008 485.464 187.008 484.6V479.432H189.296V478.232H187.008V476.024H185.552V478.232H184.416V479.432H185.552V484.6ZM191.06 487H192.516V478.232H191.06V487ZM191.812 476.808C192.34 476.808 192.772 476.376 192.772 475.816C192.772 475.256 192.34 474.824 191.812 474.824C191.252 474.824 190.82 475.256 190.82 475.816C190.82 476.376 191.252 476.808 191.812 476.808ZM194.454 482.584C194.454 485.304 196.262 487.144 198.598 487.144C200.214 487.144 201.35 486.312 201.878 485.368V487H203.35V478.232H201.878V479.832C201.366 478.92 200.246 478.088 198.614 478.088C196.262 478.088 194.454 479.848 194.454 482.584ZM201.878 482.6C201.878 484.664 200.502 485.864 198.902 485.864C197.302 485.864 195.942 484.648 195.942 482.584C195.942 480.52 197.302 479.352 198.902 479.352C200.502 479.352 201.878 480.568 201.878 482.6ZM205.266 482.584C205.266 485.304 207.074 487.144 209.426 487.144C211.026 487.144 212.162 486.296 212.69 485.352V487.192C212.69 489.064 211.522 490.056 209.97 490.056C208.53 490.056 207.49 489.336 207.17 488.28H205.73C206.018 490.152 207.666 491.32 209.97 491.32C212.546 491.32 214.162 489.608 214.162 487.192V478.232H212.69V479.832C212.178 478.888 211.026 478.088 209.426 478.088C207.074 478.088 205.266 479.848 205.266 482.584ZM212.69 482.6C212.69 484.664 211.314 485.864 209.714 485.864C208.114 485.864 206.754 484.648 206.754 482.584C206.754 480.52 208.114 479.352 209.714 479.352C211.314 479.352 212.69 480.568 212.69 482.6ZM224.943 482.6C224.943 479.832 223.007 478.088 220.511 478.088C218.031 478.088 216.079 479.832 216.079 482.6C216.079 485.384 217.967 487.144 220.447 487.144C222.943 487.144 224.943 485.384 224.943 482.6ZM217.567 482.6C217.567 480.392 218.959 479.352 220.495 479.352C221.999 479.352 223.455 480.392 223.455 482.6C223.455 484.824 221.967 485.864 220.447 485.864C218.927 485.864 217.567 484.824 217.567 482.6ZM226.857 487H228.313V475.16H226.857V487ZM238.571 478.232H237.115V483.048C237.115 484.936 236.107 485.864 234.603 485.864C233.131 485.864 232.155 484.952 232.155 483.176V478.232H230.715V483.368C230.715 485.88 232.299 487.128 234.315 487.128C235.483 487.128 236.555 486.616 237.115 485.704V487H238.571V478.232ZM240.485 482.6C240.485 485.384 242.261 487.144 244.757 487.144C246.933 487.144 248.357 485.928 248.805 484.184H247.237C246.917 485.288 246.053 485.912 244.757 485.912C243.157 485.912 241.973 484.776 241.973 482.6C241.973 480.456 243.157 479.32 244.757 479.32C246.053 479.32 246.933 479.992 247.237 481.048H248.805C248.357 479.208 246.933 478.088 244.757 478.088C242.261 478.088 240.485 479.848 240.485 482.6ZM250.748 487H252.204V482.152C252.204 480.264 253.228 479.336 254.716 479.336C256.188 479.336 257.164 480.248 257.164 482.04V487H258.604V481.832C258.604 479.32 257.052 478.072 255.1 478.072C253.868 478.072 252.78 478.568 252.204 479.496V475.16H250.748V487ZM261.302 484.6C261.302 486.36 262.182 487 263.734 487H265.046V485.768H263.974C263.078 485.768 262.758 485.464 262.758 484.6V479.432H265.046V478.232H262.758V476.024H261.302V478.232H260.166V479.432H261.302V484.6ZM270.538 479.32C272.042 479.32 273.322 480.264 273.306 481.976H267.77C267.93 480.264 269.114 479.32 270.538 479.32ZM274.634 484.296H273.066C272.746 485.24 271.914 485.912 270.602 485.912C269.114 485.912 267.866 484.936 267.754 483.16H274.762C274.794 482.856 274.81 482.6 274.81 482.28C274.81 479.88 273.146 478.088 270.602 478.088C268.042 478.088 266.266 479.832 266.266 482.6C266.266 485.384 268.106 487.144 270.602 487.144C272.778 487.144 274.186 485.896 274.634 484.296ZM283.148 487H284.588V481.832C284.588 479.32 283.036 478.072 281.004 478.072C279.82 478.072 278.764 478.568 278.188 479.48V478.232H276.732V487H278.188V482.152C278.188 480.264 279.212 479.336 280.7 479.336C282.172 479.336 283.148 480.248 283.148 482.04V487ZM288.422 479.864V475.16H286.966V487H288.422V485.384C288.966 486.344 290.102 487.144 291.702 487.144C294.054 487.144 295.862 485.304 295.862 482.584C295.862 479.848 294.07 478.088 291.702 478.088C290.15 478.088 288.982 478.888 288.422 479.864ZM294.374 482.584C294.374 484.648 293.014 485.864 291.398 485.864C289.814 485.864 288.422 484.664 288.422 482.6C288.422 480.568 289.814 479.352 291.398 479.352C293.014 479.352 294.374 480.52 294.374 482.584ZM301.507 479.32C303.011 479.32 304.291 480.264 304.275 481.976H298.739C298.899 480.264 300.083 479.32 301.507 479.32ZM305.603 484.296H304.035C303.715 485.24 302.883 485.912 301.571 485.912C300.083 485.912 298.835 484.936 298.723 483.16H305.731C305.763 482.856 305.779 482.6 305.779 482.28C305.779 479.88 304.115 478.088 301.571 478.088C299.011 478.088 297.235 479.832 297.235 482.6C297.235 485.384 299.075 487.144 301.571 487.144C303.747 487.144 305.155 485.896 305.603 484.296ZM309.157 482.232C309.157 480.2 310.213 479.576 311.605 479.576H311.989V478.072C310.597 478.072 309.653 478.68 309.157 479.656V478.232H307.701V487H309.157V482.232ZM313.126 482.584C313.126 485.304 314.934 487.144 317.286 487.144C318.886 487.144 320.022 486.296 320.55 485.352V487.192C320.55 489.064 319.382 490.056 317.83 490.056C316.39 490.056 315.35 489.336 315.03 488.28H313.59C313.878 490.152 315.526 491.32 317.83 491.32C320.406 491.32 322.022 489.608 322.022 487.192V478.232H320.55V479.832C320.038 478.888 318.886 478.088 317.286 478.088C314.934 478.088 313.126 479.848 313.126 482.584ZM320.55 482.6C320.55 484.664 319.174 485.864 317.574 485.864C315.974 485.864 314.614 484.648 314.614 482.584C314.614 480.52 315.974 479.352 317.574 479.352C319.174 479.352 320.55 480.568 320.55 482.6ZM334.818 487.112C337.042 487.112 338.29 484.552 338.29 482.088C338.29 478.92 336.098 476.744 332.482 476.744C327.778 476.744 324.402 480.312 324.402 484.872C324.402 488.12 326.69 490.184 330.146 490.184C331.25 490.184 332.322 489.992 333.282 489.592L333.09 488.6C332.274 488.984 331.314 489.144 330.434 489.144C327.426 489.144 325.602 487.592 325.618 484.744C325.618 480.824 328.434 477.768 332.306 477.768C335.362 477.768 337.106 479.384 337.106 482.168C337.106 483.848 336.418 486.12 335.042 486.12C334.226 486.12 334.098 485.512 334.242 484.6L335.042 479.976H333.778L333.602 480.968C333.25 480.2 332.562 479.816 331.554 479.816C329.218 479.816 327.618 481.976 327.618 484.36C327.618 486.024 328.578 487.112 330.226 487.112C331.346 487.112 332.434 486.552 333.09 485.624C333.17 486.52 333.73 487.112 334.818 487.112ZM333.282 483.048C333.186 484.696 332.066 485.976 330.658 485.976C329.538 485.976 328.978 485.224 328.978 484.136C328.978 482.552 329.954 480.936 331.554 480.936C332.802 480.936 333.378 481.88 333.282 483.048ZM340.141 482.584C340.141 485.304 341.949 487.144 344.301 487.144C345.901 487.144 347.037 486.296 347.565 485.352V487.192C347.565 489.064 346.397 490.056 344.845 490.056C343.405 490.056 342.365 489.336 342.045 488.28H340.605C340.893 490.152 342.541 491.32 344.845 491.32C347.421 491.32 349.037 489.608 349.037 487.192V478.232H347.565V479.832C347.053 478.888 345.901 478.088 344.301 478.088C341.949 478.088 340.141 479.848 340.141 482.584ZM347.565 482.6C347.565 484.664 346.189 485.864 344.589 485.864C342.989 485.864 341.629 484.648 341.629 482.584C341.629 480.52 342.989 479.352 344.589 479.352C346.189 479.352 347.565 480.568 347.565 482.6ZM364.154 487H365.594V481.832C365.594 479.32 364.042 478.072 362.042 478.072C360.698 478.072 359.45 478.76 358.938 480.024C358.362 478.712 357.162 478.072 355.722 478.072C354.57 478.072 353.53 478.568 352.954 479.496V478.232H351.498V487H352.954V482.168C352.954 480.28 353.962 479.336 355.434 479.336C356.874 479.336 357.834 480.248 357.834 482.04V487H359.274V482.168C359.274 480.28 360.282 479.336 361.754 479.336C363.194 479.336 364.154 480.248 364.154 482.04V487ZM367.438 482.584C367.438 485.304 369.246 487.144 371.582 487.144C373.198 487.144 374.334 486.312 374.862 485.368V487H376.334V478.232H374.862V479.832C374.35 478.92 373.23 478.088 371.598 478.088C369.246 478.088 367.438 479.848 367.438 482.584ZM374.862 482.6C374.862 484.664 373.486 485.864 371.886 485.864C370.286 485.864 368.926 484.648 368.926 482.584C368.926 480.52 370.286 479.352 371.886 479.352C373.486 479.352 374.862 480.568 374.862 482.6ZM378.795 487H380.251V478.232H378.795V487ZM379.547 476.808C380.075 476.808 380.507 476.376 380.507 475.816C380.507 475.256 380.075 474.824 379.547 474.824C378.987 474.824 378.555 475.256 378.555 475.816C378.555 476.376 378.987 476.808 379.547 476.808ZM382.732 487H384.188V475.16H382.732V487ZM388.094 486.104C388.094 485.544 387.662 485.112 387.134 485.112C386.574 485.112 386.142 485.544 386.142 486.104C386.142 486.664 386.574 487.096 387.134 487.096C387.662 487.096 388.094 486.664 388.094 486.104ZM389.485 482.6C389.485 485.384 391.261 487.144 393.757 487.144C395.933 487.144 397.357 485.928 397.805 484.184H396.237C395.917 485.288 395.053 485.912 393.757 485.912C392.157 485.912 390.973 484.776 390.973 482.6C390.973 480.456 392.157 479.32 393.757 479.32C395.053 479.32 395.933 479.992 396.237 481.048H397.805C397.357 479.208 395.933 478.088 393.757 478.088C391.261 478.088 389.485 479.848 389.485 482.6ZM408.068 482.6C408.068 479.832 406.132 478.088 403.636 478.088C401.156 478.088 399.204 479.832 399.204 482.6C399.204 485.384 401.092 487.144 403.572 487.144C406.068 487.144 408.068 485.384 408.068 482.6ZM400.692 482.6C400.692 480.392 402.084 479.352 403.62 479.352C405.124 479.352 406.58 480.392 406.58 482.6C406.58 484.824 405.092 485.864 403.572 485.864C402.052 485.864 400.692 484.824 400.692 482.6ZM422.638 487H424.078V481.832C424.078 479.32 422.526 478.072 420.526 478.072C419.182 478.072 417.934 478.76 417.422 480.024C416.846 478.712 415.646 478.072 414.206 478.072C413.054 478.072 412.014 478.568 411.438 479.496V478.232H409.982V487H411.438V482.168C411.438 480.28 412.446 479.336 413.918 479.336C415.358 479.336 416.318 480.248 416.318 482.04V487H417.758V482.168C417.758 480.28 418.766 479.336 420.238 479.336C421.678 479.336 422.638 480.248 422.638 482.04V487Z" fill="#6A6180"/>
<path d="M160.5 506.5H511.5V570C511.5 574.142 508.142 577.5 504 577.5H168C163.858 577.5 160.5 574.142 160.5 570V506.5Z" fill="#FAFAFC" stroke="#E6E6F0"/>
<path d="M190.36 531.72C190.36 528.624 185.848 529.968 185.848 527.808C185.848 526.908 186.556 526.44 187.456 526.464C188.476 526.476 189.004 527.112 189.076 527.676H190.276C190.144 526.404 189.1 525.528 187.504 525.528C185.848 525.528 184.732 526.464 184.732 527.844C184.732 530.952 189.256 529.512 189.256 531.768C189.256 532.56 188.632 533.16 187.576 533.16C186.412 533.16 185.92 532.464 185.848 531.768H184.684C184.708 533.148 185.896 534.084 187.576 534.084C189.388 534.084 190.36 532.908 190.36 531.72ZM194.763 528.24C195.891 528.24 196.851 528.948 196.839 530.232H192.687C192.807 528.948 193.695 528.24 194.763 528.24ZM197.835 531.972H196.659C196.419 532.68 195.795 533.184 194.811 533.184C193.695 533.184 192.759 532.452 192.675 531.12H197.931C197.955 530.892 197.967 530.7 197.967 530.46C197.967 528.66 196.719 527.316 194.811 527.316C192.891 527.316 191.559 528.624 191.559 530.7C191.559 532.788 192.939 534.108 194.811 534.108C196.443 534.108 197.499 533.172 197.835 531.972ZM204.22 534H205.3V530.124C205.3 528.24 204.136 527.304 202.612 527.304C201.724 527.304 200.932 527.676 200.5 528.36V527.424H199.408V534H200.5V530.364C200.5 528.948 201.268 528.252 202.384 528.252C203.488 528.252 204.22 528.936 204.22 530.28V534ZM207.084 534H208.176V530.364C208.176 528.948 208.944 528.252 210.06 528.252C211.164 528.252 211.896 528.936 211.896 530.28V534H212.976V530.124C212.976 528.24 211.812 527.304 210.348 527.304C209.424 527.304 208.608 527.676 208.176 528.372V525.12H207.084V534ZM214.352 530.688C214.352 532.728 215.708 534.108 217.46 534.108C218.672 534.108 219.524 533.484 219.92 532.776V534H221.024V527.424H219.92V528.624C219.536 527.94 218.696 527.316 217.472 527.316C215.708 527.316 214.352 528.636 214.352 530.688ZM219.92 530.7C219.92 532.248 218.888 533.148 217.688 533.148C216.488 533.148 215.468 532.236 215.468 530.688C215.468 529.14 216.488 528.264 217.688 528.264C218.888 528.264 219.92 529.176 219.92 530.7Z" fill="#C1BCCC"/>
<path d="M188.512 549.256H187.296L187.552 551.688L185.568 550.264L184.976 551.336L187.2 552.232L184.976 553.16L185.6 554.248L187.536 552.824L187.296 555.24H188.496L188.24 552.824L190.176 554.232L190.784 553.16L188.544 552.248L190.768 551.32L190.192 550.28L188.24 551.688L188.512 549.256ZM196.293 549.256H195.077L195.333 551.688L193.349 550.264L192.757 551.336L194.981 552.232L192.757 553.16L193.381 554.248L195.317 552.824L195.077 555.24H196.277L196.021 552.824L197.957 554.232L198.565 553.16L196.325 552.248L198.549 551.32L197.973 550.28L196.021 551.688L196.293 549.256ZM204.075 549.256H202.859L203.115 551.688L201.131 550.264L200.539 551.336L202.763 552.232L200.539 553.16L201.163 554.248L203.099 552.824L202.859 555.24H204.059L203.803 552.824L205.739 554.232L206.347 553.16L204.107 552.248L206.331 551.32L205.755 550.28L203.803 551.688L204.075 549.256ZM211.856 549.256H210.64L210.896 551.688L208.912 550.264L208.32 551.336L210.544 552.232L208.32 553.16L208.944 554.248L210.88 552.824L210.64 555.24H211.84L211.584 552.824L213.52 554.232L214.128 553.16L211.888 552.248L214.112 551.32L213.536 550.28L211.584 551.688L211.856 549.256ZM219.637 549.256H218.421L218.677 551.688L216.693 550.264L216.101 551.336L218.325 552.232L216.101 553.16L216.725 554.248L218.661 552.824L218.421 555.24H219.621L219.365 552.824L221.301 554.232L221.909 553.16L219.669 552.248L221.893 551.32L221.317 550.28L219.365 551.688L219.637 549.256ZM227.418 549.256H226.202L226.458 551.688L224.474 550.264L223.882 551.336L226.106 552.232L223.882 553.16L224.506 554.248L226.442 552.824L226.202 555.24H227.402L227.146 552.824L229.082 554.232L229.69 553.16L227.45 552.248L229.674 551.32L229.098 550.28L227.146 551.688L227.418 549.256ZM235.2 549.256H233.984L234.24 551.688L232.256 550.264L231.664 551.336L233.888 552.232L231.664 553.16L232.288 554.248L234.224 552.824L233.984 555.24H235.184L234.928 552.824L236.864 554.232L237.472 553.16L235.232 552.248L237.456 551.32L236.88 550.28L234.928 551.688L235.2 549.256ZM242.981 549.256H241.765L242.021 551.688L240.037 550.264L239.445 551.336L241.669 552.232L239.445 553.16L240.069 554.248L242.005 552.824L241.765 555.24H242.965L242.709 552.824L244.645 554.232L245.253 553.16L243.013 552.248L245.237 551.32L244.661 550.28L242.709 551.688L242.981 549.256ZM250.762 549.256H249.546L249.802 551.688L247.818 550.264L247.226 551.336L249.45 552.232L247.226 553.16L247.85 554.248L249.786 552.824L249.546 555.24H250.746L250.49 552.824L252.426 554.232L253.034 553.16L250.794 552.248L253.018 551.32L252.442 550.28L250.49 551.688L250.762 549.256ZM258.543 549.256H257.327L257.583 551.688L255.599 550.264L255.007 551.336L257.231 552.232L255.007 553.16L255.631 554.248L257.567 552.824L257.327 555.24H258.527L258.271 552.824L260.207 554.232L260.815 553.16L258.575 552.248L260.799 551.32L260.223 550.28L258.271 551.688L258.543 549.256ZM266.325 549.256H265.109L265.365 551.688L263.381 550.264L262.789 551.336L265.013 552.232L262.789 553.16L263.413 554.248L265.349 552.824L265.109 555.24H266.309L266.053 552.824L267.989 554.232L268.597 553.16L266.357 552.248L268.581 551.32L268.005 550.28L266.053 551.688L266.325 549.256ZM274.106 549.256H272.89L273.146 551.688L271.162 550.264L270.57 551.336L272.794 552.232L270.57 553.16L271.194 554.248L273.13 552.824L272.89 555.24H274.09L273.834 552.824L275.77 554.232L276.378 553.16L274.138 552.248L276.362 551.32L275.786 550.28L273.834 551.688L274.106 549.256ZM281.887 549.256H280.671L280.927 551.688L278.943 550.264L278.351 551.336L280.575 552.232L278.351 553.16L278.975 554.248L280.911 552.824L280.671 555.24H281.871L281.615 552.824L283.551 554.232L284.159 553.16L281.919 552.248L284.143 551.32L283.567 550.28L281.615 551.688L281.887 549.256ZM289.668 549.256H288.452L288.708 551.688L286.724 550.264L286.132 551.336L288.356 552.232L286.132 553.16L286.756 554.248L288.692 552.824L288.452 555.24H289.652L289.396 552.824L291.332 554.232L291.94 553.16L289.7 552.248L291.924 551.32L291.348 550.28L289.396 551.688L289.668 549.256ZM297.45 549.256H296.234L296.49 551.688L294.506 550.264L293.914 551.336L296.138 552.232L293.914 553.16L294.538 554.248L296.474 552.824L296.234 555.24H297.434L297.178 552.824L299.114 554.232L299.722 553.16L297.482 552.248L299.706 551.32L299.13 550.28L297.178 551.688L297.45 549.256ZM305.231 549.256H304.015L304.271 551.688L302.287 550.264L301.695 551.336L303.919 552.232L301.695 553.16L302.319 554.248L304.255 552.824L304.015 555.24H305.215L304.959 552.824L306.895 554.232L307.503 553.16L305.263 552.248L307.487 551.32L306.911 550.28L304.959 551.688L305.231 549.256ZM313.012 549.256H311.796L312.052 551.688L310.068 550.264L309.476 551.336L311.7 552.232L309.476 553.16L310.1 554.248L312.036 552.824L311.796 555.24H312.996L312.74 552.824L314.676 554.232L315.284 553.16L313.044 552.248L315.268 551.32L314.692 550.28L312.74 551.688L313.012 549.256ZM320.793 549.256H319.577L319.833 551.688L317.849 550.264L317.257 551.336L319.481 552.232L317.257 553.16L317.881 554.248L319.817 552.824L319.577 555.24H320.777L320.521 552.824L322.457 554.232L323.065 553.16L320.825 552.248L323.049 551.32L322.473 550.28L320.521 551.688L320.793 549.256ZM328.575 549.256H327.359L327.615 551.688L325.631 550.264L325.039 551.336L327.263 552.232L325.039 553.16L325.663 554.248L327.599 552.824L327.359 555.24H328.559L328.303 552.824L330.239 554.232L330.847 553.16L328.607 552.248L330.831 551.32L330.255 550.28L328.303 551.688L328.575 549.256ZM336.356 549.256H335.14L335.396 551.688L333.412 550.264L332.82 551.336L335.044 552.232L332.82 553.16L333.444 554.248L335.38 552.824L335.14 555.24H336.34L336.084 552.824L338.02 554.232L338.628 553.16L336.388 552.248L338.612 551.32L338.036 550.28L336.084 551.688L336.356 549.256Z" fill="#6A6180"/>
<path d="M478.122 539.88C479.293 541.051 479.293 542.952 478.122 544.125C476.951 545.296 475.05 545.296 473.877 544.125C472.706 542.954 472.706 541.053 473.877 539.88C475.05 538.707 476.95 538.707 478.122 539.88Z" stroke="#9C98A6" stroke-width="1.5" stroke-linecap="round" stroke-linejoin="round"/>
<path d="M467 542C467 541.341 467.152 540.689 467.446 540.088C468.961 536.991 472.309 535 476 535C479.691 535 483.039 536.991 484.554 540.088C484.848 540.689 485 541.341 485 542C485 542.659 484.848 543.311 484.554 543.912C483.039 547.009 479.691 549 476 549C472.309 549 468.961 547.009 467.446 543.912C467.152 543.311 467 542.659 467 542V542Z" stroke="#9C98A6" stroke-width="1.5" stroke-linecap="round" stroke-linejoin="round"/>
<path d="M161.26 163.4C161.26 170.924 166.768 176.216 174.004 176.216C179.584 176.216 184.12 173.264 185.812 168.08H180.016C178.828 170.528 176.668 171.716 173.968 171.716C169.576 171.716 166.444 168.476 166.444 163.4C166.444 158.288 169.576 155.084 173.968 155.084C176.668 155.084 178.828 156.272 180.016 158.684H185.812C184.12 153.536 179.584 150.548 174.004 150.548C166.768 150.548 161.26 155.876 161.26 163.4ZM188.821 165.956C188.821 172.184 192.853 176.324 197.893 176.324C201.061 176.324 203.329 174.812 204.517 173.084V176H209.593V156.056H204.517V158.9C203.329 157.244 201.133 155.732 197.929 155.732C192.853 155.732 188.821 159.728 188.821 165.956ZM204.517 166.028C204.517 169.808 201.997 171.896 199.225 171.896C196.525 171.896 193.969 169.736 193.969 165.956C193.969 162.176 196.525 160.16 199.225 160.16C201.997 160.16 204.517 162.248 204.517 166.028ZM213.219 165.956C213.219 172.184 217.251 176.324 222.327 176.324C225.459 176.324 227.691 174.884 228.879 173.048V176H233.991V149.36H228.879V158.828C227.511 156.956 224.991 155.732 222.363 155.732C217.251 155.732 213.219 159.728 213.219 165.956ZM228.915 166.028C228.915 169.808 226.395 171.896 223.623 171.896C220.923 171.896 218.367 169.736 218.367 165.956C218.367 162.176 220.923 160.16 223.623 160.16C226.395 160.16 228.915 162.248 228.915 166.028ZM237.618 165.956C237.618 172.184 241.65 176.324 246.69 176.324C249.858 176.324 252.126 174.812 253.314 173.084V176H258.39V156.056H253.314V158.9C252.126 157.244 249.93 155.732 246.726 155.732C241.65 155.732 237.618 159.728 237.618 165.956ZM253.314 166.028C253.314 169.808 250.794 171.896 248.022 171.896C245.322 171.896 242.766 169.736 242.766 165.956C242.766 162.176 245.322 160.16 248.022 160.16C250.794 160.16 253.314 162.248 253.314 166.028ZM278.792 170.312C278.648 163.004 267.596 165.272 267.596 161.636C267.596 160.484 268.568 159.728 270.44 159.728C272.42 159.728 273.644 160.772 273.788 162.32H278.612C278.324 158.36 275.408 155.732 270.584 155.732C265.652 155.732 262.7 158.396 262.7 161.708C262.7 169.016 273.968 166.748 273.968 170.312C273.968 171.464 272.888 172.364 270.908 172.364C268.892 172.364 267.488 171.212 267.308 169.7H262.232C262.448 173.408 265.94 176.324 270.944 176.324C275.804 176.324 278.792 173.732 278.792 170.312ZM283.721 169.808C283.721 174.38 286.277 176 290.093 176H293.261V171.752H290.921C289.337 171.752 288.797 171.176 288.797 169.844V160.196H293.261V156.056H288.797V151.124H283.721V156.056H281.345V160.196H283.721V169.808ZM301.926 166.064C301.926 162.212 303.726 161.06 306.714 161.06H308.046V155.768C305.274 155.768 303.186 157.1 301.926 159.152V156.056H296.886V176H301.926V166.064ZM330.701 166.028C330.701 159.728 326.201 155.732 320.441 155.732C314.681 155.732 310.181 159.728 310.181 166.028C310.181 172.292 314.537 176.324 320.297 176.324C326.093 176.324 330.701 172.292 330.701 166.028ZM315.293 166.028C315.293 162.032 317.705 160.124 320.369 160.124C323.033 160.124 325.517 162.032 325.517 166.028C325.517 169.988 322.961 171.932 320.297 171.932C317.597 171.932 315.293 169.988 315.293 166.028Z" fill="#32264D"/>
<path d="M162.688 214.144V210.048H164.832C166.496 210.048 167.2 210.816 167.2 212.112C167.2 213.36 166.496 214.144 164.832 214.144H162.688ZM168.688 212.112C168.688 210.288 167.456 208.848 164.832 208.848H161.232V220H162.688V215.344H164.832C167.6 215.344 168.688 213.808 168.688 212.112ZM171.954 215.232C171.954 213.2 173.01 212.576 174.402 212.576H174.786V211.072C173.394 211.072 172.45 211.68 171.954 212.656V211.232H170.498V220H171.954V215.232ZM180.194 212.32C181.698 212.32 182.978 213.264 182.962 214.976H177.426C177.586 213.264 178.77 212.32 180.194 212.32ZM184.29 217.296H182.722C182.402 218.24 181.57 218.912 180.258 218.912C178.77 218.912 177.522 217.936 177.41 216.16H184.418C184.45 215.856 184.466 215.6 184.466 215.28C184.466 212.88 182.802 211.088 180.258 211.088C177.698 211.088 175.922 212.832 175.922 215.6C175.922 218.384 177.762 220.144 180.258 220.144C182.434 220.144 183.842 218.896 184.29 217.296ZM190.116 212.32C191.62 212.32 192.9 213.264 192.884 214.976H187.348C187.508 213.264 188.692 212.32 190.116 212.32ZM194.212 217.296H192.644C192.324 218.24 191.492 218.912 190.18 218.912C188.692 218.912 187.444 217.936 187.332 216.16H194.34C194.372 215.856 194.388 215.6 194.388 215.28C194.388 212.88 192.724 211.088 190.18 211.088C187.62 211.088 185.844 212.832 185.844 215.6C185.844 218.384 187.684 220.144 190.18 220.144C192.356 220.144 193.764 218.896 194.212 217.296ZM202.726 220H204.166V214.832C204.166 212.32 202.614 211.072 200.582 211.072C199.398 211.072 198.342 211.568 197.766 212.48V211.232H196.31V220H197.766V215.152C197.766 213.264 198.79 212.336 200.278 212.336C201.75 212.336 202.726 213.248 202.726 215.04V220ZM206.001 215.6C206.001 218.384 207.777 220.144 210.273 220.144C212.449 220.144 213.873 218.928 214.321 217.184H212.753C212.433 218.288 211.569 218.912 210.273 218.912C208.673 218.912 207.489 217.776 207.489 215.6C207.489 213.456 208.673 212.32 210.273 212.32C211.569 212.32 212.449 212.992 212.753 214.048H214.321C213.873 212.208 212.449 211.088 210.273 211.088C207.777 211.088 206.001 212.848 206.001 215.6ZM216.263 220H217.719V215.152C217.719 213.264 218.743 212.336 220.231 212.336C221.703 212.336 222.679 213.248 222.679 215.04V220H224.119V214.832C224.119 212.32 222.567 211.072 220.615 211.072C219.383 211.072 218.295 211.568 217.719 212.496V208.16H216.263V220ZM225.954 215.584C225.954 218.304 227.762 220.144 230.098 220.144C231.714 220.144 232.85 219.312 233.378 218.368V220H234.85V211.232H233.378V212.832C232.866 211.92 231.746 211.088 230.114 211.088C227.762 211.088 225.954 212.848 225.954 215.584ZM233.378 215.6C233.378 217.664 232.002 218.864 230.402 218.864C228.802 218.864 227.442 217.648 227.442 215.584C227.442 213.52 228.802 212.352 230.402 212.352C232.002 212.352 233.378 213.568 233.378 215.6ZM249.896 215.6C249.896 212.832 247.96 211.088 245.464 211.088C242.984 211.088 241.032 212.832 241.032 215.6C241.032 218.384 242.92 220.144 245.4 220.144C247.896 220.144 249.896 218.384 249.896 215.6ZM242.52 215.6C242.52 213.392 243.912 212.352 245.448 212.352C246.952 212.352 248.408 213.392 248.408 215.6C248.408 217.824 246.92 218.864 245.4 218.864C243.88 218.864 242.52 217.824 242.52 215.6ZM258.114 217.616C258.05 214.48 252.962 215.616 252.962 213.536C252.962 212.832 253.602 212.32 254.674 212.32C255.842 212.32 256.514 212.96 256.578 213.84H258.034C257.938 212.128 256.658 211.088 254.722 211.088C252.77 211.088 251.506 212.192 251.506 213.536C251.506 216.8 256.69 215.664 256.69 217.616C256.69 218.336 256.05 218.912 254.898 218.912C253.666 218.912 252.914 218.272 252.834 217.424H251.33C251.426 219.024 252.866 220.144 254.914 220.144C256.85 220.144 258.114 219.056 258.114 217.616ZM263.891 215.584C263.891 218.304 265.699 220.144 268.051 220.144C269.651 220.144 270.787 219.328 271.315 218.352V220H272.787V208.16H271.315V212.8C270.707 211.792 269.443 211.088 268.067 211.088C265.699 211.088 263.891 212.848 263.891 215.584ZM271.315 215.6C271.315 217.664 269.939 218.864 268.339 218.864C266.739 218.864 265.379 217.648 265.379 215.584C265.379 213.52 266.739 212.352 268.339 212.352C269.939 212.352 271.315 213.568 271.315 215.6ZM274.704 215.584C274.704 218.304 276.512 220.144 278.848 220.144C280.464 220.144 281.6 219.312 282.128 218.368V220H283.6V211.232H282.128V212.832C281.616 211.92 280.496 211.088 278.864 211.088C276.512 211.088 274.704 212.848 274.704 215.584ZM282.128 215.6C282.128 217.664 280.752 218.864 279.152 218.864C277.552 218.864 276.192 217.648 276.192 215.584C276.192 213.52 277.552 212.352 279.152 212.352C280.752 212.352 282.128 213.568 282.128 215.6ZM285.516 215.584C285.516 218.304 287.324 220.144 289.676 220.144C291.276 220.144 292.412 219.328 292.94 218.352V220H294.412V208.16H292.94V212.8C292.332 211.792 291.068 211.088 289.692 211.088C287.324 211.088 285.516 212.848 285.516 215.584ZM292.94 215.6C292.94 217.664 291.564 218.864 289.964 218.864C288.364 218.864 287.004 217.648 287.004 215.584C287.004 213.52 288.364 212.352 289.964 212.352C291.564 212.352 292.94 213.568 292.94 215.6ZM305.193 215.6C305.193 212.832 303.257 211.088 300.761 211.088C298.281 211.088 296.329 212.832 296.329 215.6C296.329 218.384 298.217 220.144 300.697 220.144C303.193 220.144 305.193 218.384 305.193 215.6ZM297.817 215.6C297.817 213.392 299.209 212.352 300.745 212.352C302.249 212.352 303.705 213.392 303.705 215.6C303.705 217.824 302.217 218.864 300.697 218.864C299.177 218.864 297.817 217.824 297.817 215.6ZM313.411 217.616C313.347 214.48 308.259 215.616 308.259 213.536C308.259 212.832 308.899 212.32 309.971 212.32C311.139 212.32 311.811 212.96 311.875 213.84H313.331C313.235 212.128 311.955 211.088 310.019 211.088C308.067 211.088 306.803 212.192 306.803 213.536C306.803 216.8 311.987 215.664 311.987 217.616C311.987 218.336 311.347 218.912 310.195 218.912C308.963 218.912 308.211 218.272 308.131 217.424H306.627C306.723 219.024 308.163 220.144 310.211 220.144C312.147 220.144 313.411 219.056 313.411 217.616ZM319.188 215.584C319.188 218.304 320.996 220.144 323.332 220.144C324.948 220.144 326.084 219.312 326.612 218.368V220H328.084V211.232H326.612V212.832C326.1 211.92 324.98 211.088 323.348 211.088C320.996 211.088 319.188 212.848 319.188 215.584ZM326.612 215.6C326.612 217.664 325.236 218.864 323.636 218.864C322.036 218.864 320.676 217.648 320.676 215.584C320.676 213.52 322.036 212.352 323.636 212.352C325.236 212.352 326.612 213.568 326.612 215.6ZM332.001 212.864V208.16H330.545V220H332.001V218.384C332.545 219.344 333.681 220.144 335.281 220.144C337.633 220.144 339.441 218.304 339.441 215.584C339.441 212.848 337.649 211.088 335.281 211.088C333.729 211.088 332.561 211.888 332.001 212.864ZM337.953 215.584C337.953 217.648 336.593 218.864 334.977 218.864C333.393 218.864 332.001 217.664 332.001 215.6C332.001 213.568 333.393 212.352 334.977 212.352C336.593 212.352 337.953 213.52 337.953 215.584ZM340.813 215.584C340.813 218.304 342.621 220.144 344.957 220.144C346.573 220.144 347.709 219.312 348.237 218.368V220H349.709V211.232H348.237V212.832C347.725 211.92 346.605 211.088 344.973 211.088C342.621 211.088 340.813 212.848 340.813 215.584ZM348.237 215.6C348.237 217.664 346.861 218.864 345.261 218.864C343.661 218.864 342.301 217.648 342.301 215.584C342.301 213.52 343.661 212.352 345.261 212.352C346.861 212.352 348.237 213.568 348.237 215.6ZM352.17 220H353.626V211.232H352.17V220ZM352.922 209.808C353.45 209.808 353.882 209.376 353.882 208.816C353.882 208.256 353.45 207.824 352.922 207.824C352.362 207.824 351.93 208.256 351.93 208.816C351.93 209.376 352.362 209.808 352.922 209.808ZM360.683 220H362.331L359.499 215.568L362.315 211.232H360.795L358.811 214.48L356.731 211.232H355.083L357.915 215.648L355.083 220H356.603L358.603 216.736L360.683 220ZM372.083 215.6C372.083 212.832 370.147 211.088 367.651 211.088C365.171 211.088 363.219 212.832 363.219 215.6C363.219 218.384 365.107 220.144 367.587 220.144C370.083 220.144 372.083 218.384 372.083 215.6ZM364.707 215.6C364.707 213.392 366.099 212.352 367.635 212.352C369.139 212.352 370.595 213.392 370.595 215.6C370.595 217.824 369.107 218.864 367.587 218.864C366.067 218.864 364.707 217.824 364.707 215.6ZM162.688 238.848V237.232H161.232V250.16H162.688V244.384C163.232 245.28 164.368 246.144 165.968 246.144C168.32 246.144 170.128 244.304 170.128 241.584C170.128 238.848 168.32 237.088 165.968 237.088C164.368 237.088 163.216 237.92 162.688 238.848ZM168.64 241.584C168.64 243.648 167.28 244.864 165.664 244.864C164.08 244.864 162.688 243.664 162.688 241.6C162.688 239.568 164.08 238.352 165.664 238.352C167.28 238.352 168.64 239.52 168.64 241.584ZM171.501 241.584C171.501 244.304 173.309 246.144 175.645 246.144C177.261 246.144 178.397 245.312 178.925 244.368V246H180.397V237.232H178.925V238.832C178.413 237.92 177.293 237.088 175.661 237.088C173.309 237.088 171.501 238.848 171.501 241.584ZM178.925 241.6C178.925 243.664 177.549 244.864 175.949 244.864C174.349 244.864 172.989 243.648 172.989 241.584C172.989 239.52 174.349 238.352 175.949 238.352C177.549 238.352 178.925 239.568 178.925 241.6ZM184.313 241.232C184.313 239.2 185.369 238.576 186.761 238.576H187.145V237.072C185.753 237.072 184.809 237.68 184.313 238.656V237.232H182.857V246H184.313V241.232ZM188.282 241.584C188.282 244.304 190.09 246.144 192.426 246.144C194.042 246.144 195.178 245.312 195.706 244.368V246H197.178V237.232H195.706V238.832C195.194 237.92 194.074 237.088 192.442 237.088C190.09 237.088 188.282 238.848 188.282 241.584ZM195.706 241.6C195.706 243.664 194.33 244.864 192.73 244.864C191.13 244.864 189.77 243.648 189.77 241.584C189.77 239.52 191.13 238.352 192.73 238.352C194.33 238.352 195.706 239.568 195.706 241.6ZM203.36 241.6C203.36 244.384 205.136 246.144 207.632 246.144C209.808 246.144 211.232 244.928 211.68 243.184H210.112C209.792 244.288 208.928 244.912 207.632 244.912C206.032 244.912 204.848 243.776 204.848 241.6C204.848 239.456 206.032 238.32 207.632 238.32C208.928 238.32 209.808 238.992 210.112 240.048H211.68C211.232 238.208 209.808 237.088 207.632 237.088C205.136 237.088 203.36 238.848 203.36 241.6ZM221.943 241.6C221.943 238.832 220.007 237.088 217.511 237.088C215.031 237.088 213.079 238.832 213.079 241.6C213.079 244.384 214.967 246.144 217.447 246.144C219.943 246.144 221.943 244.384 221.943 241.6ZM214.567 241.6C214.567 239.392 215.959 238.352 217.495 238.352C218.999 238.352 220.455 239.392 220.455 241.6C220.455 243.824 218.967 244.864 217.447 244.864C215.927 244.864 214.567 243.824 214.567 241.6ZM236.513 246H237.953V240.832C237.953 238.32 236.401 237.072 234.401 237.072C233.057 237.072 231.809 237.76 231.297 239.024C230.721 237.712 229.521 237.072 228.081 237.072C226.929 237.072 225.889 237.568 225.313 238.496V237.232H223.857V246H225.313V241.168C225.313 239.28 226.321 238.336 227.793 238.336C229.233 238.336 230.193 239.248 230.193 241.04V246H231.633V241.168C231.633 239.28 232.641 238.336 234.113 238.336C235.553 238.336 236.513 239.248 236.513 241.04V246ZM244.069 238.32C245.573 238.32 246.853 239.264 246.837 240.976H241.301C241.461 239.264 242.645 238.32 244.069 238.32ZM248.165 243.296H246.597C246.277 244.24 245.445 244.912 244.133 244.912C242.645 244.912 241.397 243.936 241.285 242.16H248.293C248.325 241.856 248.341 241.6 248.341 241.28C248.341 238.88 246.677 237.088 244.133 237.088C241.573 237.088 239.797 238.832 239.797 241.6C239.797 244.384 241.637 246.144 244.133 246.144C246.309 246.144 247.717 244.896 248.165 243.296ZM249.719 241.6C249.719 244.176 251.255 245.888 253.463 246.112V247.824H254.263C254.951 247.824 255.287 248.016 255.287 248.512C255.287 249.024 254.951 249.216 254.263 249.216H252.711V250.16H254.551C255.687 250.16 256.503 249.52 256.503 248.512C256.503 247.456 255.671 246.912 254.439 246.928V246.128C256.359 245.968 257.623 244.8 258.039 243.184H256.471C256.151 244.288 255.287 244.912 253.991 244.912C252.391 244.912 251.207 243.776 251.207 241.6C251.207 239.456 252.391 238.32 253.991 238.32C255.287 238.32 256.167 238.992 256.471 240.048H258.039C257.591 238.208 256.167 237.088 253.991 237.088C251.495 237.088 249.719 238.848 249.719 241.6ZM259.438 241.584C259.438 244.304 261.246 246.144 263.582 246.144C265.198 246.144 266.334 245.312 266.862 244.368V246H268.334V237.232H266.862V238.832C266.35 237.92 265.23 237.088 263.598 237.088C261.246 237.088 259.438 238.848 259.438 241.584ZM266.862 241.6C266.862 243.664 265.486 244.864 263.886 244.864C262.286 244.864 260.926 243.648 260.926 241.584C260.926 239.52 262.286 238.352 263.886 238.352C265.486 238.352 266.862 239.568 266.862 241.6ZM272.251 241.232C272.251 239.2 273.307 238.576 274.699 238.576H275.083V237.072C273.691 237.072 272.747 237.68 272.251 238.656V237.232H270.795V246H272.251V241.232ZM278.187 245.104C278.187 244.544 277.755 244.112 277.227 244.112C276.667 244.112 276.235 244.544 276.235 245.104C276.235 245.664 276.667 246.096 277.227 246.096C277.755 246.096 278.187 245.664 278.187 245.104Z" fill="#6A6180"/>
<g clip-path="url(#clip1)">
<path d="M162 32H208" stroke="#8257E5" stroke-width="1.5" stroke-linecap="round" stroke-linejoin="round"/>
<path d="M166.001 37.001L161 32L166.001 26.999" stroke="#8257E5" stroke-width="1.5" stroke-linecap="round" stroke-linejoin="round"/>
</g>
<defs>
<clipPath id="clip0">
<rect width="334.173" height="97.6421" fill="white" transform="translate(889 326)"/>
</clipPath>
<clipPath id="clip1">
<rect width="32" height="49" fill="white" transform="translate(209 16) rotate(90)"/>
</clipPath>
</defs>
</svg>
