<svg width="1440" height="820" viewBox="0 0 1440 820" fill="none" xmlns="http://www.w3.org/2000/svg">
<rect x="672" width="768" height="820" fill="#8257E5"/>
<path d="M1262.57 737.405C1257.53 737.405 1253.44 733.339 1253.44 728.324C1253.44 723.308 1257.53 719.243 1262.57 719.243C1267.61 719.243 1271.7 723.308 1271.7 728.324C1271.7 733.323 1267.61 737.405 1262.57 737.405Z" stroke="#04D361" stroke-width="3" stroke-miterlimit="10" stroke-linecap="round" stroke-linejoin="round"/>
<path d="M1256.27 734.888L1249.81 741.294" stroke="#04D361" stroke-width="3" stroke-miterlimit="10" stroke-linecap="round" stroke-linejoin="round"/>
<path d="M1091.22 78L1081.61 87.5541" stroke="#04D361" stroke-width="3" stroke-miterlimit="10" stroke-linecap="round" stroke-linejoin="round"/>
<path d="M1091.22 87.5541L1081.61 78" stroke="#04D361" stroke-width="3" stroke-miterlimit="10" stroke-linecap="round" stroke-linejoin="round"/>
<path d="M1077.46 652.763L1067.85 662.317" stroke="#04D361" stroke-width="3" stroke-miterlimit="10" stroke-linecap="round" stroke-linejoin="round"/>
<path d="M1077.46 662.317L1067.85 652.763" stroke="#04D361" stroke-width="3" stroke-miterlimit="10" stroke-linecap="round" stroke-linejoin="round"/>
<path d="M777.431 263.274L763.844 263.274" stroke="#04D361" stroke-width="3" stroke-miterlimit="10" stroke-linecap="round" stroke-linejoin="round"/>
<path d="M770.639 270.046L770.639 256.52" stroke="#04D361" stroke-width="3" stroke-miterlimit="10" stroke-linecap="round" stroke-linejoin="round"/>
<path d="M1174.87 214.422C1170.32 214.422 1166.61 210.752 1166.61 206.211C1166.61 201.686 1170.3 198 1174.87 198C1179.42 198 1183.12 201.67 1183.12 206.211C1183.11 210.752 1179.42 214.422 1174.87 214.422Z" stroke="#04D361" stroke-width="3" stroke-miterlimit="10" stroke-linecap="round" stroke-linejoin="round"/>
<path d="M1339.74 421.169C1335.19 421.169 1331.49 417.499 1331.49 412.958C1331.49 408.434 1335.18 404.747 1339.74 404.747C1344.29 404.747 1348 408.418 1348 412.958C1347.98 417.499 1344.29 421.169 1339.74 421.169Z" stroke="#04D361" stroke-width="3" stroke-miterlimit="10" stroke-linecap="round" stroke-linejoin="round"/>
<path d="M820.592 547.906C816.042 547.906 812.335 544.236 812.335 539.695C812.335 535.17 816.026 531.484 820.592 531.484C825.142 531.484 828.849 535.155 828.849 539.695C828.833 544.236 825.142 547.906 820.592 547.906Z" stroke="#04D361" stroke-width="3" stroke-miterlimit="10" stroke-linecap="round" stroke-linejoin="round"/>
<path d="M919.224 99.2467C919.224 100.889 920.563 102.221 922.214 102.221C923.866 102.221 925.205 100.889 925.205 99.2467C925.205 97.6044 923.866 96.2729 922.214 96.2729C920.563 96.2729 919.224 97.6044 919.224 99.2467Z" fill="#9871F5"/>
<path d="M919.224 120.02C919.224 121.662 920.563 122.994 922.214 122.994C923.866 122.994 925.205 121.662 925.205 120.02C925.205 118.378 923.866 117.046 922.214 117.046C920.563 117.046 919.224 118.378 919.224 120.02Z" fill="#9871F5"/>
<path d="M919.224 140.774C919.224 142.417 920.563 143.748 922.214 143.748C923.866 143.748 925.205 142.417 925.205 140.774C925.205 139.132 923.866 137.801 922.214 137.801C920.563 137.801 919.224 139.132 919.224 140.774Z" fill="#9871F5"/>
<path d="M919.224 161.545C919.224 163.187 920.563 164.519 922.214 164.519C923.866 164.519 925.205 163.187 925.205 161.545C925.205 159.902 923.866 158.571 922.214 158.571C920.563 158.571 919.224 159.902 919.224 161.545Z" fill="#9871F5"/>
<path d="M919.224 182.301C919.224 183.943 920.563 185.275 922.214 185.275C923.866 185.275 925.205 183.943 925.205 182.301C925.205 180.659 923.866 179.327 922.214 179.327C920.563 179.327 919.224 180.659 919.224 182.301Z" fill="#9871F5"/>
<path d="M919.224 203.071C919.224 204.714 920.563 206.045 922.214 206.045C923.866 206.045 925.205 204.714 925.205 203.071C925.205 201.429 923.866 200.098 922.214 200.098C920.563 200.098 919.224 201.429 919.224 203.071Z" fill="#9871F5"/>
<path d="M898.35 99.247C898.35 100.889 899.689 102.221 901.341 102.221C902.992 102.221 904.331 100.889 904.331 99.247C904.331 97.6046 902.992 96.2732 901.341 96.2732C899.689 96.2732 898.35 97.6046 898.35 99.247Z" fill="#9871F5"/>
<path d="M898.35 120.02C898.35 121.662 899.689 122.994 901.341 122.994C902.992 122.994 904.331 121.662 904.331 120.02C904.331 118.378 902.992 117.046 901.341 117.046C899.689 117.046 898.35 118.378 898.35 120.02Z" fill="#9871F5"/>
<path d="M898.35 140.774C898.35 142.417 899.689 143.748 901.341 143.748C902.992 143.748 904.331 142.417 904.331 140.774C904.331 139.132 902.992 137.801 901.341 137.801C899.689 137.801 898.35 139.132 898.35 140.774Z" fill="#9871F5"/>
<path d="M898.35 161.545C898.35 163.187 899.689 164.519 901.341 164.519C902.992 164.519 904.331 163.187 904.331 161.545C904.331 159.902 902.992 158.571 901.341 158.571C899.689 158.571 898.35 159.902 898.35 161.545Z" fill="#9871F5"/>
<path d="M898.35 182.301C898.35 183.943 899.689 185.275 901.341 185.275C902.992 185.275 904.331 183.943 904.331 182.301C904.331 180.659 902.992 179.327 901.341 179.327C899.689 179.327 898.35 180.659 898.35 182.301Z" fill="#9871F5"/>
<path d="M898.35 203.071C898.35 204.714 899.689 206.045 901.341 206.045C902.992 206.045 904.331 204.714 904.331 203.071C904.331 201.429 902.992 200.098 901.341 200.098C899.689 200.098 898.35 201.429 898.35 203.071Z" fill="#9871F5"/>
<path d="M877.461 99.247C877.461 100.889 878.8 102.221 880.452 102.221C882.104 102.221 883.442 100.889 883.442 99.247C883.442 97.6046 882.104 96.2732 880.452 96.2732C878.8 96.2732 877.461 97.6046 877.461 99.247Z" fill="#9871F5"/>
<path d="M877.461 120.02C877.461 121.662 878.8 122.994 880.452 122.994C882.104 122.994 883.442 121.662 883.442 120.02C883.442 118.378 882.104 117.046 880.452 117.046C878.8 117.046 877.461 118.378 877.461 120.02Z" fill="#9871F5"/>
<path d="M877.461 140.774C877.461 142.417 878.8 143.748 880.452 143.748C882.104 143.748 883.442 142.417 883.442 140.774C883.442 139.132 882.104 137.801 880.452 137.801C878.8 137.801 877.461 139.132 877.461 140.774Z" fill="#9871F5"/>
<path d="M877.461 161.545C877.461 163.187 878.8 164.519 880.452 164.519C882.104 164.519 883.442 163.187 883.442 161.545C883.442 159.902 882.104 158.571 880.452 158.571C878.8 158.571 877.461 159.902 877.461 161.545Z" fill="#9871F5"/>
<path d="M877.461 182.301C877.461 183.943 878.8 185.275 880.452 185.275C882.104 185.275 883.442 183.943 883.442 182.301C883.442 180.659 882.104 179.327 880.452 179.327C878.8 179.327 877.461 180.659 877.461 182.301Z" fill="#9871F5"/>
<path d="M877.461 203.071C877.461 204.714 878.8 206.045 880.452 206.045C882.104 206.045 883.442 204.714 883.442 203.071C883.442 201.429 882.104 200.098 880.452 200.098C878.8 200.098 877.461 201.429 877.461 203.071Z" fill="#9871F5"/>
<path d="M856.588 99.247C856.588 100.889 857.927 102.221 859.579 102.221C861.23 102.221 862.569 100.889 862.569 99.247C862.569 97.6046 861.23 96.2732 859.579 96.2732C857.927 96.2732 856.588 97.6046 856.588 99.247Z" fill="#9871F5"/>
<path d="M856.588 120.02C856.588 121.662 857.927 122.994 859.579 122.994C861.23 122.994 862.569 121.662 862.569 120.02C862.569 118.378 861.23 117.046 859.579 117.046C857.927 117.046 856.588 118.378 856.588 120.02Z" fill="#9871F5"/>
<path d="M856.588 140.774C856.588 142.417 857.927 143.748 859.579 143.748C861.23 143.748 862.569 142.417 862.569 140.774C862.569 139.132 861.23 137.801 859.579 137.801C857.927 137.801 856.588 139.132 856.588 140.774Z" fill="#9871F5"/>
<path d="M856.588 161.545C856.588 163.187 857.927 164.519 859.579 164.519C861.23 164.519 862.569 163.187 862.569 161.545C862.569 159.902 861.23 158.571 859.579 158.571C857.927 158.571 856.588 159.902 856.588 161.545Z" fill="#9871F5"/>
<path d="M856.588 182.301C856.588 183.943 857.927 185.275 859.579 185.275C861.23 185.275 862.569 183.943 862.569 182.301C862.569 180.659 861.23 179.327 859.579 179.327C857.927 179.327 856.588 180.659 856.588 182.301Z" fill="#9871F5"/>
<path d="M856.588 203.071C856.588 204.714 857.927 206.045 859.579 206.045C861.23 206.045 862.569 204.714 862.569 203.071C862.569 201.429 861.23 200.098 859.579 200.098C857.927 200.098 856.588 201.429 856.588 203.071Z" fill="#9871F5"/>
<path d="M1259.79 553.706C1259.79 555.348 1261.13 556.679 1262.78 556.679C1264.43 556.679 1265.77 555.348 1265.77 553.706C1265.77 552.063 1264.43 550.732 1262.78 550.732C1261.13 550.732 1259.79 552.063 1259.79 553.706Z" fill="#9871F5"/>
<path d="M1259.79 574.46C1259.79 576.103 1261.13 577.434 1262.78 577.434C1264.43 577.434 1265.77 576.103 1265.77 574.46C1265.77 572.818 1264.43 571.487 1262.78 571.487C1261.13 571.487 1259.79 572.818 1259.79 574.46Z" fill="#9871F5"/>
<path d="M1259.79 595.23C1259.79 596.872 1261.13 598.204 1262.78 598.204C1264.43 598.204 1265.77 596.872 1265.77 595.23C1265.77 593.588 1264.43 592.256 1262.78 592.256C1261.13 592.256 1259.79 593.588 1259.79 595.23Z" fill="#9871F5"/>
<path d="M1238.9 553.703C1238.9 555.346 1240.24 556.677 1241.89 556.677C1243.54 556.677 1244.88 555.346 1244.88 553.703C1244.88 552.061 1243.54 550.73 1241.89 550.73C1240.24 550.73 1238.9 552.061 1238.9 553.703Z" fill="#9871F5"/>
<path d="M1238.9 574.46C1238.9 576.103 1240.24 577.434 1241.89 577.434C1243.54 577.434 1244.88 576.103 1244.88 574.46C1244.88 572.818 1243.54 571.487 1241.89 571.487C1240.24 571.487 1238.9 572.818 1238.9 574.46Z" fill="#9871F5"/>
<path d="M1238.9 595.228C1238.9 596.871 1240.24 598.202 1241.89 598.202C1243.54 598.202 1244.88 596.871 1244.88 595.228C1244.88 593.586 1243.54 592.255 1241.89 592.255C1240.24 592.255 1238.9 593.586 1238.9 595.228Z" fill="#9871F5"/>
<path d="M1333.5 187.974C1333.5 189.617 1334.84 190.948 1336.49 190.948C1338.14 190.948 1339.48 189.617 1339.48 187.974C1339.48 186.332 1338.14 185.001 1336.49 185.001C1334.84 185.001 1333.5 186.332 1333.5 187.974Z" fill="#9871F5"/>
<path d="M1333.5 208.728C1333.5 210.37 1334.84 211.702 1336.49 211.702C1338.14 211.702 1339.48 210.37 1339.48 208.728C1339.48 207.086 1338.14 205.754 1336.49 205.754C1334.84 205.754 1333.5 207.086 1333.5 208.728Z" fill="#9871F5"/>
<path d="M1333.5 229.5C1333.5 231.143 1334.84 232.474 1336.49 232.474C1338.14 232.474 1339.48 231.143 1339.48 229.5C1339.48 227.858 1338.14 226.527 1336.49 226.527C1334.84 226.527 1333.5 227.858 1333.5 229.5Z" fill="#9871F5"/>
<path d="M1312.61 187.974C1312.61 189.616 1313.95 190.948 1315.6 190.948C1317.25 190.948 1318.59 189.616 1318.59 187.974C1318.59 186.331 1317.25 185 1315.6 185C1313.95 185 1312.61 186.331 1312.61 187.974Z" fill="#9871F5"/>
<path d="M1312.61 208.73C1312.61 210.372 1313.95 211.704 1315.6 211.704C1317.25 211.704 1318.59 210.372 1318.59 208.73C1318.59 207.088 1317.25 205.756 1315.6 205.756C1313.95 205.756 1312.61 207.088 1312.61 208.73Z" fill="#9871F5"/>
<path d="M1312.61 229.5C1312.61 231.143 1313.95 232.474 1315.6 232.474C1317.25 232.474 1318.59 231.143 1318.59 229.5C1318.59 227.858 1317.25 226.526 1315.6 226.526C1313.95 226.526 1312.61 227.858 1312.61 229.5Z" fill="#9871F5"/>
<path d="M926.71 738.983C926.71 740.626 928.049 741.957 929.701 741.957C931.353 741.957 932.691 740.626 932.691 738.983C932.691 737.341 931.353 736.01 929.701 736.01C928.049 736.01 926.71 737.341 926.71 738.983Z" fill="#9871F5"/>
<path d="M905.821 738.983C905.821 740.626 907.16 741.957 908.812 741.957C910.463 741.957 911.802 740.626 911.802 738.983C911.802 737.341 910.463 736.01 908.812 736.01C907.16 736.01 905.821 737.341 905.821 738.983Z" fill="#9871F5"/>
<path d="M884.948 738.983C884.948 740.626 886.287 741.957 887.939 741.957C889.59 741.957 890.929 740.626 890.929 738.983C890.929 737.341 889.59 736.01 887.939 736.01C886.287 736.01 884.948 737.341 884.948 738.983Z" fill="#9871F5"/>
<path d="M864.059 738.983C864.059 740.626 865.398 741.957 867.05 741.957C868.701 741.957 870.04 740.626 870.04 738.983C870.04 737.341 868.701 736.01 867.05 736.01C865.398 736.01 864.059 737.341 864.059 738.983Z" fill="#9871F5"/>
<path d="M843.186 738.983C843.186 740.626 844.525 741.957 846.177 741.957C847.828 741.957 849.167 740.626 849.167 738.983C849.167 737.341 847.828 736.01 846.177 736.01C844.525 736.01 843.186 737.341 843.186 738.983Z" fill="#9871F5"/>
<path d="M822.297 738.983C822.297 740.626 823.636 741.957 825.287 741.957C826.939 741.957 828.278 740.626 828.278 738.983C828.278 737.341 826.939 736.01 825.287 736.01C823.636 736.01 822.297 737.341 822.297 738.983Z" fill="#9871F5"/>
<path d="M801.424 738.983C801.424 740.626 802.763 741.957 804.414 741.957C806.066 741.957 807.405 740.626 807.405 738.983C807.405 737.341 806.066 736.01 804.414 736.01C802.763 736.01 801.424 737.341 801.424 738.983Z" fill="#9871F5"/>
<path d="M926.71 718.212C926.71 719.854 928.049 721.186 929.701 721.186C931.353 721.186 932.691 719.854 932.691 718.212C932.691 716.57 931.353 715.238 929.701 715.238C928.049 715.238 926.71 716.57 926.71 718.212Z" fill="#9871F5"/>
<path d="M905.821 718.212C905.821 719.854 907.16 721.186 908.812 721.186C910.463 721.186 911.802 719.854 911.802 718.212C911.802 716.57 910.463 715.238 908.812 715.238C907.16 715.238 905.821 716.57 905.821 718.212Z" fill="#9871F5"/>
<path d="M884.948 718.212C884.948 719.854 886.287 721.186 887.939 721.186C889.59 721.186 890.929 719.854 890.929 718.212C890.929 716.57 889.59 715.238 887.939 715.238C886.287 715.238 884.948 716.57 884.948 718.212Z" fill="#9871F5"/>
<path d="M864.059 718.212C864.059 719.854 865.398 721.186 867.05 721.186C868.701 721.186 870.04 719.854 870.04 718.212C870.04 716.57 868.701 715.238 867.05 715.238C865.398 715.238 864.059 716.57 864.059 718.212Z" fill="#9871F5"/>
<path d="M843.186 718.212C843.186 719.854 844.525 721.186 846.177 721.186C847.828 721.186 849.167 719.854 849.167 718.212C849.167 716.57 847.828 715.238 846.177 715.238C844.525 715.238 843.186 716.57 843.186 718.212Z" fill="#9871F5"/>
<path d="M822.297 718.212C822.297 719.854 823.636 721.186 825.287 721.186C826.939 721.186 828.278 719.854 828.278 718.212C828.278 716.57 826.939 715.238 825.287 715.238C823.636 715.238 822.297 716.57 822.297 718.212Z" fill="#9871F5"/>
<path d="M801.424 718.212C801.424 719.854 802.763 721.186 804.414 721.186C806.066 721.186 807.405 719.854 807.405 718.212C807.405 716.57 806.066 715.238 804.414 715.238C802.763 715.238 801.424 716.57 801.424 718.212Z" fill="#9871F5"/>
<path d="M926.71 697.456C926.71 699.098 928.049 700.43 929.701 700.43C931.353 700.43 932.691 699.098 932.691 697.456C932.691 695.814 931.353 694.482 929.701 694.482C928.049 694.482 926.71 695.814 926.71 697.456Z" fill="#9871F5"/>
<path d="M905.821 697.456C905.821 699.098 907.16 700.43 908.812 700.43C910.463 700.43 911.802 699.098 911.802 697.456C911.802 695.814 910.463 694.482 908.812 694.482C907.16 694.482 905.821 695.814 905.821 697.456Z" fill="#9871F5"/>
<path d="M884.948 697.456C884.948 699.098 886.287 700.43 887.939 700.43C889.59 700.43 890.929 699.098 890.929 697.456C890.929 695.814 889.59 694.482 887.939 694.482C886.287 694.482 884.948 695.814 884.948 697.456Z" fill="#9871F5"/>
<path d="M864.059 697.456C864.059 699.098 865.398 700.43 867.05 700.43C868.701 700.43 870.04 699.098 870.04 697.456C870.04 695.814 868.701 694.482 867.05 694.482C865.398 694.482 864.059 695.814 864.059 697.456Z" fill="#9871F5"/>
<path d="M843.186 697.456C843.186 699.098 844.525 700.43 846.177 700.43C847.828 700.43 849.167 699.098 849.167 697.456C849.167 695.814 847.828 694.482 846.177 694.482C844.525 694.482 843.186 695.814 843.186 697.456Z" fill="#9871F5"/>
<path d="M822.297 697.456C822.297 699.098 823.636 700.43 825.287 700.43C826.939 700.43 828.278 699.098 828.278 697.456C828.278 695.814 826.939 694.482 825.287 694.482C823.636 694.482 822.297 695.814 822.297 697.456Z" fill="#9871F5"/>
<path d="M801.424 697.456C801.424 699.098 802.763 700.43 804.414 700.43C806.066 700.43 807.405 699.098 807.405 697.456C807.405 695.814 806.066 694.482 804.414 694.482C802.763 694.482 801.424 695.814 801.424 697.456Z" fill="#9871F5"/>
<path d="M926.709 676.686C926.709 678.328 928.047 679.66 929.699 679.66C931.351 679.66 932.689 678.328 932.689 676.686C932.689 675.043 931.351 673.712 929.699 673.712C928.047 673.712 926.709 675.043 926.709 676.686Z" fill="#9871F5"/>
<path d="M905.821 676.685C905.821 678.328 907.16 679.659 908.812 679.659C910.463 679.659 911.802 678.328 911.802 676.685C911.802 675.043 910.463 673.712 908.812 673.712C907.16 673.712 905.821 675.043 905.821 676.685Z" fill="#9871F5"/>
<path d="M884.948 676.685C884.948 678.328 886.287 679.659 887.939 679.659C889.59 679.659 890.929 678.328 890.929 676.685C890.929 675.043 889.59 673.712 887.939 673.712C886.287 673.712 884.948 675.043 884.948 676.685Z" fill="#9871F5"/>
<path d="M864.059 676.685C864.059 678.328 865.398 679.659 867.05 679.659C868.701 679.659 870.04 678.328 870.04 676.685C870.04 675.043 868.701 673.712 867.05 673.712C865.398 673.712 864.059 675.043 864.059 676.685Z" fill="#9871F5"/>
<path d="M843.186 676.685C843.186 678.328 844.525 679.659 846.177 679.659C847.828 679.659 849.167 678.328 849.167 676.685C849.167 675.043 847.828 673.712 846.177 673.712C844.525 673.712 843.186 675.043 843.186 676.685Z" fill="#9871F5"/>
<path d="M822.297 676.685C822.297 678.328 823.636 679.659 825.287 679.659C826.939 679.659 828.278 678.328 828.278 676.685C828.278 675.043 826.939 673.712 825.287 673.712C823.636 673.712 822.297 675.043 822.297 676.685Z" fill="#9871F5"/>
<path d="M801.424 676.685C801.424 678.328 802.763 679.659 804.414 679.659C806.066 679.659 807.405 678.328 807.405 676.685C807.405 675.043 806.066 673.712 804.414 673.712C802.763 673.712 801.424 675.043 801.424 676.685Z" fill="#9871F5"/>
<g clip-path="url(#clip0)">
<path d="M945.023 330.13H905.018C894.373 330.13 889 335.29 889 345.511V400.21C889 401.55 889.721 402.375 891.273 402.375H903.366C904.813 402.375 905.745 401.55 905.745 400.21V398.133C905.745 393.067 907.883 390.306 913.197 389.773H945.023C956.7 389.773 961.973 384.719 961.973 373.673V346.23C961.973 335.185 956.7 330.13 945.023 330.13ZM945.246 369.028C945.246 375.019 943.886 376.253 936.75 376.253H919.8C912.67 376.253 908.118 378.629 905.739 383.274V349.536C905.739 344.891 906.876 343.65 912.559 343.65H936.75C943.886 343.65 945.246 344.891 945.246 350.875V369.028Z" fill="white"/>
<path d="M1000.32 360.37C991.121 360.37 987.19 365.015 987.19 372.86V400.414C987.19 401.655 986.569 402.374 985.122 402.374H974.165C972.718 402.374 971.998 401.655 971.998 400.414V350.05C971.998 348.81 972.718 348.084 974.165 348.084H983.364C984.711 348.084 985.432 348.81 985.432 350.05V358.176C987.19 351.472 992.258 348.061 1001.25 348.061H1004.97C1006.31 348.061 1007.03 348.786 1007.03 350.027V358.41C1007.03 359.75 1006.31 360.37 1004.97 360.37H1000.32Z" fill="white"/>
<path d="M1071.63 387.613C1071.63 397.834 1067.09 402.373 1056.24 402.373H1029.36C1018.61 402.373 1013.96 397.834 1013.96 387.613V362.855C1013.96 352.641 1018.61 348.095 1029.36 348.095H1056.24C1067.09 348.095 1071.63 352.641 1071.63 362.855V387.613ZM1056.44 366.769C1056.44 361.399 1055.41 360.369 1049 360.369H1036.7C1030.19 360.369 1029.15 361.399 1029.15 366.769V383.694C1029.15 389.058 1030.19 390.094 1036.7 390.094H1049C1055.41 390.094 1056.44 389.058 1056.44 383.694V366.769Z" fill="white"/>
<path d="M1086.93 360.37H1081.76C1080.41 360.37 1079.69 359.75 1079.69 358.41V350.05C1079.69 348.81 1080.41 348.085 1081.76 348.085H1086.93V341.38C1086.93 331.16 1092.3 326 1102.95 326H1115.66C1117.11 326 1117.73 326.726 1117.73 327.96V336.32C1117.73 337.665 1117.11 338.28 1115.66 338.28H1108.95C1103.26 338.28 1102.12 339.52 1102.12 344.165V348.085H1115.66C1117.11 348.085 1117.73 348.81 1117.73 350.05V358.41C1117.73 359.75 1117.11 360.37 1115.66 360.37H1102.12V400.415C1102.12 401.655 1101.4 402.374 1099.96 402.374H1089C1087.55 402.374 1086.93 401.655 1086.93 400.415V360.37Z" fill="white"/>
<path d="M1129.1 360.37H1123.94C1122.6 360.37 1121.88 359.75 1121.88 358.41V350.05C1121.88 348.81 1122.6 348.085 1123.94 348.085H1129.12V341.38C1129.1 331.16 1134.49 326 1145.12 326H1157.84C1159.28 326 1159.91 326.726 1159.91 327.96V336.32C1159.91 337.665 1159.28 338.28 1157.84 338.28H1151.12C1145.43 338.28 1144.3 339.52 1144.3 344.165V348.085H1157.84C1159.28 348.085 1159.91 348.81 1159.91 350.05V358.41C1159.91 359.75 1159.28 360.37 1157.84 360.37H1144.3V400.415C1144.3 401.655 1143.57 402.374 1142.12 402.374H1131.17C1129.72 402.374 1129.1 401.655 1129.1 400.415V360.37Z" fill="white"/>
<path d="M1206.1 423.429H1183.57C1173.44 423.429 1169.1 419.51 1169.1 409.804V408.775C1169.07 408.498 1169.11 408.218 1169.2 407.955C1169.29 407.692 1169.44 407.454 1169.64 407.258C1169.84 407.062 1170.08 406.913 1170.34 406.822C1170.61 406.731 1170.89 406.701 1171.17 406.733H1181.71C1183.16 406.733 1183.88 407.458 1183.88 408.798V409.313C1183.88 411.378 1185.02 412.203 1187.3 412.203H1200.32C1206.52 412.203 1208.07 410.658 1208.07 405.393V389.112C1205.69 393.757 1201.15 396.132 1194.01 396.132H1183.46C1172.71 396.132 1167.96 391.593 1167.96 381.372V350.05C1167.94 349.78 1167.99 349.51 1168.09 349.258C1168.19 349.007 1168.34 348.78 1168.54 348.593C1168.73 348.406 1168.97 348.264 1169.22 348.176C1169.48 348.089 1169.75 348.057 1170.02 348.085H1181.09C1182.43 348.085 1183.15 348.81 1183.15 350.05V377.482C1183.15 382.847 1184.29 383.882 1190.7 383.882H1198.56C1205.38 383.882 1208.07 381.092 1208.07 375.417V350.05C1208.07 348.81 1208.79 348.085 1210.13 348.085H1221.2C1221.47 348.059 1221.73 348.093 1221.98 348.183C1222.23 348.272 1222.46 348.416 1222.65 348.604C1222.84 348.792 1222.98 349.02 1223.07 349.27C1223.16 349.52 1223.19 349.786 1223.16 350.05V407.02C1223.16 417.848 1217.37 423.429 1206.1 423.429Z" fill="white"/>
</g>
<path d="M903.691 452.213C903.691 445.072 893.269 448.172 893.269 443.19C893.269 441.114 894.904 440.034 896.983 440.09C899.339 440.117 900.559 441.584 900.725 442.885H903.497C903.192 439.951 900.781 437.931 897.094 437.931C893.269 437.931 890.691 440.09 890.691 443.273C890.691 450.441 901.141 447.12 901.141 452.323C901.141 454.15 899.7 455.534 897.26 455.534C894.572 455.534 893.435 453.929 893.269 452.323H890.58C890.635 455.506 893.38 457.665 897.26 457.665C901.446 457.665 903.691 454.953 903.691 452.213Z" fill="#D4C2FF"/>
<path d="M920.875 442.304H918.352V450.635C918.352 453.901 916.606 455.506 914 455.506C911.45 455.506 909.759 453.929 909.759 450.857V442.304H907.265V451.189C907.265 455.534 910.009 457.693 913.502 457.693C915.525 457.693 917.382 456.807 918.352 455.23V457.472H920.875V442.304Z" fill="#D4C2FF"/>
<path d="M924.191 449.832C924.191 454.538 927.324 457.721 931.371 457.721C934.17 457.721 936.139 456.281 937.053 454.648V457.472H939.603V442.304H937.053V445.072C936.166 443.494 934.226 442.055 931.399 442.055C927.324 442.055 924.191 445.1 924.191 449.832ZM937.053 449.86C937.053 453.431 934.669 455.506 931.897 455.506C929.126 455.506 926.769 453.403 926.769 449.832C926.769 446.262 929.126 444.241 931.897 444.241C934.669 444.241 937.053 446.345 937.053 449.86Z" fill="#D4C2FF"/>
<path d="M953.779 445.1V442.304H951.256V464.668H953.779V454.676C954.721 456.226 956.689 457.721 959.461 457.721C963.536 457.721 966.668 454.538 966.668 449.832C966.668 445.1 963.536 442.055 959.461 442.055C956.689 442.055 954.693 443.494 953.779 445.1ZM964.09 449.832C964.09 453.403 961.734 455.506 958.934 455.506C956.19 455.506 953.779 453.431 953.779 449.86C953.779 446.345 956.19 444.241 958.934 444.241C961.734 444.241 964.09 446.262 964.09 449.832Z" fill="#D4C2FF"/>
<path d="M969.988 457.472H972.511V436.99H969.988V457.472Z" fill="#D4C2FF"/>
<path d="M975.868 449.832C975.868 454.538 979 457.721 983.047 457.721C985.847 457.721 987.815 456.281 988.729 454.648V457.472H991.28V442.304H988.729V445.072C987.842 443.494 985.902 442.055 983.075 442.055C979 442.055 975.868 445.1 975.868 449.832ZM988.729 449.86C988.729 453.431 986.346 455.506 983.574 455.506C980.802 455.506 978.445 453.403 978.445 449.832C978.445 446.262 980.802 444.241 983.574 444.241C986.346 444.241 988.729 446.345 988.729 449.86Z" fill="#D4C2FF"/>
<path d="M996.014 457.472H998.536V444.38H1001.72V442.304H998.536V441.225C998.536 439.259 999.284 438.429 1001.56 438.429V436.326C997.677 436.326 996.014 437.848 996.014 441.225V442.304H994.045V444.38H996.014V457.472Z" fill="#D4C2FF"/>
<path d="M1019.08 449.86C1019.08 445.072 1015.72 442.055 1011.4 442.055C1007.1 442.055 1003.72 445.072 1003.72 449.86C1003.72 454.676 1006.99 457.721 1011.29 457.721C1015.61 457.721 1019.08 454.676 1019.08 449.86ZM1006.3 449.86C1006.3 446.041 1008.71 444.241 1011.37 444.241C1013.98 444.241 1016.5 446.041 1016.5 449.86C1016.5 453.707 1013.92 455.506 1011.29 455.506C1008.66 455.506 1006.3 453.707 1006.3 449.86Z" fill="#D4C2FF"/>
<path d="M1024.92 449.224C1024.92 445.708 1026.75 444.629 1029.16 444.629H1029.82V442.027C1027.41 442.027 1025.78 443.079 1024.92 444.767V442.304H1022.4V457.472H1024.92V449.224Z" fill="#D4C2FF"/>
<path d="M1054.66 457.472H1057.16V448.532C1057.16 444.186 1054.47 442.027 1051 442.027C1048.67 442.027 1046.51 443.217 1045.63 445.404C1044.63 443.134 1042.55 442.027 1040.05 442.027C1038.06 442.027 1036.26 442.885 1035.26 444.491V442.304H1032.74V457.472H1035.26V449.113C1035.26 445.847 1037 444.214 1039.56 444.214C1042.05 444.214 1043.71 445.791 1043.71 448.891V457.472H1046.21V449.113C1046.21 445.847 1047.95 444.214 1050.5 444.214C1053 444.214 1054.66 445.791 1054.66 448.891V457.472Z" fill="#D4C2FF"/>
<path d="M1060.35 449.832C1060.35 454.538 1063.48 457.721 1067.53 457.721C1070.33 457.721 1072.3 456.281 1073.21 454.648V457.472H1075.76V442.304H1073.21V445.072C1072.33 443.494 1070.39 442.055 1067.56 442.055C1063.48 442.055 1060.35 445.1 1060.35 449.832ZM1073.21 449.86C1073.21 453.431 1070.83 455.506 1068.06 455.506C1065.29 455.506 1062.93 453.403 1062.93 449.832C1062.93 446.262 1065.29 444.241 1068.06 444.241C1070.83 444.241 1073.21 446.345 1073.21 449.86Z" fill="#D4C2FF"/>
<path d="M1086.47 449.832C1086.47 454.538 1089.61 457.721 1093.68 457.721C1096.45 457.721 1098.42 456.309 1099.34 454.621V457.472H1101.89V436.99H1099.34V445.016C1098.28 443.273 1096.09 442.055 1093.71 442.055C1089.61 442.055 1086.47 445.1 1086.47 449.832ZM1099.34 449.86C1099.34 453.431 1096.95 455.506 1094.18 455.506C1091.41 455.506 1089.05 453.403 1089.05 449.832C1089.05 446.262 1091.41 444.241 1094.18 444.241C1096.95 444.241 1099.34 446.345 1099.34 449.86Z" fill="#D4C2FF"/>
<path d="M1112.61 444.186C1115.21 444.186 1117.43 445.819 1117.4 448.781H1107.81C1108.09 445.819 1110.14 444.186 1112.61 444.186ZM1119.7 452.794H1116.99C1116.43 454.427 1114.99 455.589 1112.72 455.589C1110.14 455.589 1107.98 453.901 1107.78 450.829H1119.93C1119.98 450.303 1120.01 449.86 1120.01 449.307C1120.01 445.155 1117.13 442.055 1112.72 442.055C1108.28 442.055 1105.21 445.072 1105.21 449.86C1105.21 454.676 1108.39 457.721 1112.72 457.721C1116.49 457.721 1118.93 455.562 1119.7 452.794Z" fill="#D4C2FF"/>
<path d="M897.593 479.553C900.199 479.553 902.416 481.186 902.388 484.147H892.798C893.075 481.186 895.126 479.553 897.593 479.553ZM904.689 488.16H901.973C901.418 489.793 899.977 490.956 897.704 490.956C895.126 490.956 892.964 489.268 892.77 486.195H904.911C904.966 485.669 904.994 485.227 904.994 484.673C904.994 480.521 902.111 477.421 897.704 477.421C893.269 477.421 890.192 480.438 890.192 485.227C890.192 490.043 893.38 493.087 897.704 493.087C901.474 493.087 903.913 490.928 904.689 488.16Z" fill="#D4C2FF"/>
<path d="M919.245 488.714C919.134 483.289 910.319 485.254 910.319 481.656C910.319 480.438 911.428 479.553 913.285 479.553C915.309 479.553 916.473 480.66 916.584 482.182H919.106C918.94 479.22 916.723 477.421 913.369 477.421C909.987 477.421 907.797 479.331 907.797 481.656C907.797 487.302 916.778 485.337 916.778 488.714C916.778 489.959 915.669 490.956 913.673 490.956C911.539 490.956 910.236 489.849 910.098 488.382H907.492C907.658 491.15 910.153 493.087 913.701 493.087C917.055 493.087 919.245 491.205 919.245 488.714Z" fill="#D4C2FF"/>
<path d="M923.36 488.686C923.36 491.731 924.885 492.838 927.574 492.838H929.847V490.707H927.989C926.437 490.707 925.883 490.181 925.883 488.686V479.746H929.847V477.67H925.883V473.851H923.36V477.67H921.392V479.746H923.36V488.686Z" fill="#D4C2FF"/>
<path d="M946.375 477.67H943.852V486.002C943.852 489.268 942.106 490.873 939.5 490.873C936.95 490.873 935.259 489.295 935.259 486.223V477.67H932.764V486.555C932.764 490.901 935.509 493.059 939.001 493.059C941.025 493.059 942.882 492.174 943.852 490.596V492.838H946.375V477.67Z" fill="#D4C2FF"/>
<path d="M949.691 485.199C949.691 489.904 952.823 493.087 956.898 493.087C959.67 493.087 961.638 491.676 962.553 489.987V492.838H965.103V472.356H962.553V480.383C961.5 478.639 959.31 477.421 956.926 477.421C952.823 477.421 949.691 480.466 949.691 485.199ZM962.553 485.227C962.553 488.797 960.169 490.873 957.397 490.873C954.625 490.873 952.269 488.769 952.269 485.199C952.269 481.628 954.625 479.608 957.397 479.608C960.169 479.608 962.553 481.711 962.553 485.227Z" fill="#D4C2FF"/>
<path d="M983.78 485.227C983.78 480.438 980.426 477.421 976.102 477.421C971.805 477.421 968.423 480.438 968.423 485.227C968.423 490.043 971.694 493.087 975.991 493.087C980.315 493.087 983.78 490.043 983.78 485.227ZM971.001 485.227C971.001 481.407 973.413 479.608 976.074 479.608C978.68 479.608 981.202 481.407 981.202 485.227C981.202 489.074 978.624 490.873 975.991 490.873C973.357 490.873 971.001 489.074 971.001 485.227Z" fill="#D4C2FF"/>
<path d="M998.018 488.714C997.907 483.289 989.092 485.254 989.092 481.656C989.092 480.438 990.201 479.553 992.058 479.553C994.082 479.553 995.246 480.66 995.357 482.182H997.879C997.713 479.22 995.496 477.421 992.141 477.421C988.76 477.421 986.57 479.331 986.57 481.656C986.57 487.302 995.551 485.337 995.551 488.714C995.551 489.959 994.442 490.956 992.446 490.956C990.312 490.956 989.009 489.849 988.871 488.382H986.265C986.431 491.15 988.926 493.087 992.474 493.087C995.828 493.087 998.018 491.205 998.018 488.714Z" fill="#D4C2FF"/>
<path d="M1023.38 485.227C1023.38 480.438 1020.03 477.421 1015.7 477.421C1011.41 477.421 1008.03 480.438 1008.03 485.227C1008.03 490.043 1011.3 493.087 1015.59 493.087C1019.92 493.087 1023.38 490.043 1023.38 485.227ZM1010.6 485.227C1010.6 481.407 1013.02 479.608 1015.68 479.608C1018.28 479.608 1020.81 481.407 1020.81 485.227C1020.81 489.074 1018.23 490.873 1015.59 490.873C1012.96 490.873 1010.6 489.074 1010.6 485.227Z" fill="#D4C2FF"/>
<path d="M1037.82 492.838H1040.31V483.898C1040.31 479.553 1037.62 477.394 1034.1 477.394C1032.05 477.394 1030.22 478.252 1029.22 479.829V477.67H1026.7V492.838H1029.22V484.452C1029.22 481.186 1031 479.58 1033.57 479.58C1036.12 479.58 1037.82 481.158 1037.82 484.258V492.838Z" fill="#D4C2FF"/>
<path d="M1044.43 492.838H1046.95V472.356H1044.43V492.838Z" fill="#D4C2FF"/>
<path d="M1051.25 492.838H1053.77V477.67H1051.25V492.838ZM1052.55 475.207C1053.47 475.207 1054.22 474.46 1054.22 473.491C1054.22 472.522 1053.47 471.775 1052.55 471.775C1051.58 471.775 1050.84 472.522 1050.84 473.491C1050.84 474.46 1051.58 475.207 1052.55 475.207Z" fill="#D4C2FF"/>
<path d="M1069.19 492.838H1071.68V483.898C1071.68 479.553 1068.99 477.394 1065.47 477.394C1063.42 477.394 1061.59 478.252 1060.6 479.829V477.67H1058.07V492.838H1060.6V484.452C1060.6 481.186 1062.37 479.58 1064.95 479.58C1067.5 479.58 1069.19 481.158 1069.19 484.258V492.838Z" fill="#D4C2FF"/>
<path d="M1082.26 479.553C1084.87 479.553 1087.09 481.186 1087.06 484.147H1077.47C1077.74 481.186 1079.8 479.553 1082.26 479.553ZM1089.36 488.16H1086.64C1086.09 489.793 1084.65 490.956 1082.37 490.956C1079.8 490.956 1077.63 489.268 1077.44 486.195H1089.58C1089.64 485.669 1089.66 485.227 1089.66 484.673C1089.66 480.521 1086.78 477.421 1082.37 477.421C1077.94 477.421 1074.86 480.438 1074.86 485.227C1074.86 490.043 1078.05 493.087 1082.37 493.087C1086.14 493.087 1088.58 490.928 1089.36 488.16Z" fill="#D4C2FF"/>
<path d="M1095.46 491.288C1095.46 490.319 1094.71 489.572 1093.8 489.572C1092.83 489.572 1092.08 490.319 1092.08 491.288C1092.08 492.257 1092.83 493.004 1093.8 493.004C1094.71 493.004 1095.46 492.257 1095.46 491.288Z" fill="#D4C2FF"/>
<rect x="160" y="618" width="352" height="56" rx="8" fill="#04D361"/>
<path d="M275.791 652.192C274.063 652.192 272.745 651.728 271.839 650.8C270.932 649.872 270.479 648.443 270.479 646.512C270.479 644.613 270.937 643.195 271.855 642.256C272.772 641.307 274.084 640.832 275.791 640.832C276.729 640.832 277.561 640.992 278.287 641.312C279.012 641.621 279.583 642.096 279.999 642.736C280.425 643.365 280.639 644.144 280.639 645.072H278.543C278.543 644.272 278.292 643.653 277.791 643.216C277.3 642.779 276.644 642.56 275.823 642.56C274.724 642.56 273.908 642.875 273.375 643.504C272.841 644.133 272.575 645.083 272.575 646.352V646.672C272.575 647.952 272.836 648.907 273.359 649.536C273.892 650.155 274.713 650.464 275.823 650.464C276.687 650.464 277.369 650.251 277.871 649.824C278.372 649.387 278.623 648.773 278.623 647.984H280.639C280.639 649.36 280.191 650.405 279.295 651.12C278.409 651.835 277.241 652.192 275.791 652.192ZM286.058 652.192C284.671 652.192 283.631 651.835 282.938 651.12C282.255 650.405 281.914 649.296 281.914 647.792C281.914 646.288 282.255 645.179 282.938 644.464C283.631 643.749 284.671 643.392 286.058 643.392C287.444 643.392 288.479 643.749 289.162 644.464C289.855 645.179 290.202 646.288 290.202 647.792C290.202 649.296 289.855 650.405 289.162 651.12C288.479 651.835 287.444 652.192 286.058 652.192ZM286.058 650.624C286.815 650.624 287.364 650.405 287.706 649.968C288.047 649.52 288.218 648.832 288.218 647.904V647.68C288.218 646.752 288.047 646.069 287.706 645.632C287.364 645.184 286.815 644.96 286.058 644.96C285.29 644.96 284.735 645.184 284.394 645.632C284.063 646.069 283.898 646.752 283.898 647.68V647.904C283.898 648.832 284.063 649.52 284.394 649.968C284.735 650.405 285.29 650.624 286.058 650.624ZM291.91 643.584H293.494L293.654 644.704H293.766C294.076 644.288 294.454 643.968 294.902 643.744C295.361 643.509 295.884 643.392 296.47 643.392C297.324 643.392 297.99 643.627 298.47 644.096C298.95 644.555 299.19 645.296 299.19 646.32V652H297.27V646.656C297.27 646.08 297.137 645.669 296.87 645.424C296.614 645.179 296.23 645.056 295.718 645.056C295.185 645.056 294.737 645.248 294.374 645.632C294.012 646.016 293.83 646.507 293.83 647.104V652H291.91V643.584ZM304.755 652.192C303.432 652.192 302.451 651.835 301.811 651.12C301.171 650.405 300.851 649.296 300.851 647.792C300.851 646.288 301.171 645.179 301.811 644.464C302.462 643.749 303.443 643.392 304.755 643.392C305.896 643.392 306.776 643.675 307.395 644.24C308.014 644.805 308.323 645.637 308.323 646.736H306.371C306.371 646.139 306.238 645.691 305.971 645.392C305.704 645.093 305.288 644.944 304.723 644.944C304.062 644.944 303.576 645.173 303.267 645.632C302.958 646.08 302.803 646.773 302.803 647.712V647.904C302.803 648.843 302.958 649.536 303.267 649.984C303.587 650.421 304.099 650.64 304.803 650.64C305.347 650.64 305.758 650.485 306.035 650.176C306.323 649.867 306.467 649.424 306.467 648.848H308.323C308.323 649.904 308.008 650.725 307.379 651.312C306.76 651.899 305.886 652.192 304.755 652.192ZM309.973 640.432H311.893V652H309.973V640.432ZM316.785 652.192C314.972 652.192 314.065 651.216 314.065 649.264V643.584H315.985V648.928C315.985 649.504 316.113 649.915 316.369 650.16C316.636 650.405 317.025 650.528 317.537 650.528C318.071 650.528 318.519 650.336 318.881 649.952C319.244 649.568 319.425 649.077 319.425 648.48V643.584H321.345V652H319.761L319.601 650.88H319.489C319.18 651.296 318.796 651.621 318.337 651.856C317.889 652.08 317.372 652.192 316.785 652.192ZM323.582 640.432H325.47V642.32H323.582V640.432ZM323.582 643.584H325.502V652H323.582V643.584ZM327.723 643.584H329.307L329.483 644.912H329.595C329.979 643.899 330.608 643.392 331.483 643.392C331.781 643.392 332.048 643.44 332.283 643.536V645.344H331.675C330.32 645.344 329.643 646.101 329.643 647.616V652H327.723V643.584ZM341.474 652.192C340.151 652.192 339.17 651.835 338.53 651.12C337.89 650.405 337.57 649.296 337.57 647.792C337.57 646.288 337.89 645.179 338.53 644.464C339.18 643.749 340.162 643.392 341.474 643.392C342.615 643.392 343.495 643.675 344.114 644.24C344.732 644.805 345.042 645.637 345.042 646.736H343.09C343.09 646.139 342.956 645.691 342.69 645.392C342.423 645.093 342.007 644.944 341.442 644.944C340.78 644.944 340.295 645.173 339.986 645.632C339.676 646.08 339.522 646.773 339.522 647.712V647.904C339.522 648.843 339.676 649.536 339.986 649.984C340.306 650.421 340.818 650.64 341.522 650.64C342.066 650.64 342.476 650.485 342.754 650.176C343.042 649.867 343.186 649.424 343.186 648.848H345.042C345.042 649.904 344.727 650.725 344.098 651.312C343.479 651.899 342.604 652.192 341.474 652.192ZM348.74 652.192C348.057 652.192 347.438 652.027 346.884 651.696C346.34 651.355 346.068 650.731 346.068 649.824C346.068 648.747 346.526 647.989 347.444 647.552C348.361 647.115 349.662 646.896 351.348 646.896V646.192C351.348 645.787 351.241 645.472 351.028 645.248C350.825 645.024 350.452 644.912 349.908 644.912C349.342 644.912 348.942 645.003 348.708 645.184C348.473 645.365 348.356 645.589 348.356 645.856V646.08H346.5C346.489 646.016 346.484 645.899 346.484 645.728C346.484 645.003 346.793 644.432 347.412 644.016C348.041 643.6 348.873 643.392 349.908 643.392C351.028 643.392 351.865 643.621 352.42 644.08C352.985 644.539 353.268 645.195 353.268 646.048V650.064C353.268 650.256 353.321 650.4 353.428 650.496C353.534 650.581 353.668 650.624 353.828 650.624H354.34V651.936C353.998 652.096 353.598 652.176 353.14 652.176C352.724 652.176 352.377 652.075 352.1 651.872C351.822 651.669 351.636 651.392 351.54 651.04H351.428C350.798 651.808 349.902 652.192 348.74 652.192ZM349.316 650.656C349.945 650.656 350.441 650.475 350.804 650.112C351.166 649.749 351.348 649.259 351.348 648.64V648.256C350.313 648.256 349.502 648.357 348.916 648.56C348.329 648.752 348.036 649.109 348.036 649.632C348.036 650.315 348.462 650.656 349.316 650.656ZM358.398 652.192C357.331 652.192 356.505 651.829 355.918 651.104C355.331 650.379 355.038 649.269 355.038 647.776C355.038 646.325 355.331 645.232 355.918 644.496C356.505 643.76 357.289 643.392 358.27 643.392C359.443 643.392 360.286 643.781 360.798 644.56H360.894V640.432H362.814V652H361.23L361.07 650.88H360.974C360.697 651.307 360.334 651.632 359.886 651.856C359.438 652.08 358.942 652.192 358.398 652.192ZM358.974 650.544C359.635 650.544 360.121 650.325 360.43 649.888C360.739 649.44 360.894 648.779 360.894 647.904V647.712C360.894 645.931 360.254 645.04 358.974 645.04C358.27 645.04 357.769 645.253 357.47 645.68C357.171 646.096 357.022 646.768 357.022 647.696V647.904C357.022 648.821 357.171 649.493 357.47 649.92C357.769 650.336 358.27 650.544 358.974 650.544ZM367.099 652.192C366.416 652.192 365.798 652.027 365.243 651.696C364.699 651.355 364.427 650.731 364.427 649.824C364.427 648.747 364.886 647.989 365.803 647.552C366.72 647.115 368.022 646.896 369.707 646.896V646.192C369.707 645.787 369.6 645.472 369.387 645.248C369.184 645.024 368.811 644.912 368.267 644.912C367.702 644.912 367.302 645.003 367.067 645.184C366.832 645.365 366.715 645.589 366.715 645.856V646.08H364.859C364.848 646.016 364.843 645.899 364.843 645.728C364.843 645.003 365.152 644.432 365.771 644.016C366.4 643.6 367.232 643.392 368.267 643.392C369.387 643.392 370.224 643.621 370.779 644.08C371.344 644.539 371.627 645.195 371.627 646.048V650.064C371.627 650.256 371.68 650.4 371.787 650.496C371.894 650.581 372.027 650.624 372.187 650.624H372.699V651.936C372.358 652.096 371.958 652.176 371.499 652.176C371.083 652.176 370.736 652.075 370.459 651.872C370.182 651.669 369.995 651.392 369.899 651.04H369.787C369.158 651.808 368.262 652.192 367.099 652.192ZM367.675 650.656C368.304 650.656 368.8 650.475 369.163 650.112C369.526 649.749 369.707 649.259 369.707 648.64V648.256C368.672 648.256 367.862 648.357 367.275 648.56C366.688 648.752 366.395 649.109 366.395 649.632C366.395 650.315 366.822 650.656 367.675 650.656ZM377.126 652.192C375.963 652.192 375.062 651.952 374.422 651.472C373.792 650.992 373.478 650.368 373.478 649.6C373.478 649.504 373.478 649.44 373.478 649.408C373.488 649.376 373.494 649.355 373.494 649.344H375.366V649.472C375.376 649.888 375.552 650.197 375.894 650.4C376.246 650.592 376.683 650.688 377.206 650.688C377.675 650.688 378.075 650.613 378.406 650.464C378.736 650.304 378.902 650.069 378.902 649.76C378.902 649.515 378.811 649.317 378.63 649.168C378.448 649.008 378.224 648.885 377.958 648.8C377.691 648.704 377.312 648.597 376.822 648.48C376.16 648.32 375.616 648.16 375.19 648C374.774 647.84 374.416 647.589 374.118 647.248C373.819 646.907 373.67 646.459 373.67 645.904C373.67 645.104 374 644.485 374.662 644.048C375.323 643.611 376.182 643.392 377.238 643.392C377.888 643.392 378.47 643.488 378.982 643.68C379.494 643.872 379.888 644.144 380.166 644.496C380.454 644.837 380.598 645.232 380.598 645.68L380.582 646.032H378.71V645.968C378.71 645.637 378.571 645.381 378.294 645.2C378.027 645.008 377.638 644.912 377.126 644.912C376.624 644.912 376.246 644.992 375.99 645.152C375.734 645.301 375.606 645.499 375.606 645.744C375.606 646.043 375.76 646.267 376.07 646.416C376.39 646.555 376.875 646.693 377.526 646.832C378.23 646.992 378.795 647.157 379.222 647.328C379.659 647.488 380.038 647.744 380.358 648.096C380.678 648.448 380.838 648.923 380.838 649.52C380.838 650.448 380.502 651.125 379.83 651.552C379.168 651.979 378.267 652.192 377.126 652.192ZM384.663 652.192C383.949 652.192 383.431 651.995 383.111 651.6C382.802 651.195 382.647 650.693 382.647 650.096V645.152H381.623V643.584H382.679L383.031 641.232H384.567V643.584H386.007V645.152H384.567V649.904C384.567 650.384 384.797 650.624 385.255 650.624H386.007V651.936C385.837 652 385.623 652.059 385.367 652.112C385.111 652.165 384.877 652.192 384.663 652.192ZM387.567 643.584H389.151L389.327 644.912H389.439C389.823 643.899 390.452 643.392 391.327 643.392C391.625 643.392 391.892 643.44 392.127 643.536V645.344H391.519C390.164 645.344 389.487 646.101 389.487 647.616V652H387.567V643.584ZM397.104 652.192C395.718 652.192 394.678 651.835 393.984 651.12C393.302 650.405 392.96 649.296 392.96 647.792C392.96 646.288 393.302 645.179 393.984 644.464C394.678 643.749 395.718 643.392 397.104 643.392C398.491 643.392 399.526 643.749 400.208 644.464C400.902 645.179 401.248 646.288 401.248 647.792C401.248 649.296 400.902 650.405 400.208 651.12C399.526 651.835 398.491 652.192 397.104 652.192ZM397.104 650.624C397.862 650.624 398.411 650.405 398.752 649.968C399.094 649.52 399.264 648.832 399.264 647.904V647.68C399.264 646.752 399.094 646.069 398.752 645.632C398.411 645.184 397.862 644.96 397.104 644.96C396.336 644.96 395.782 645.184 395.44 645.632C395.11 646.069 394.944 646.752 394.944 647.68V647.904C394.944 648.832 395.11 649.52 395.44 649.968C395.782 650.405 396.336 650.624 397.104 650.624Z" fill="white"/>
<path d="M160.5 301C160.5 296.858 163.858 293.5 168 293.5H504C508.142 293.5 511.5 296.858 511.5 301V364.5H160.5V301Z" fill="#FAFAFC" stroke="#E6E6F0"/>
<path d="M192.544 323.832V332.696L186.688 323.832H185.232V335H186.688V326.12L192.544 335H194V323.832H192.544ZM204.802 330.6C204.802 327.832 202.866 326.088 200.37 326.088C197.89 326.088 195.938 327.832 195.938 330.6C195.938 333.384 197.826 335.144 200.306 335.144C202.802 335.144 204.802 333.384 204.802 330.6ZM197.426 330.6C197.426 328.392 198.818 327.352 200.354 327.352C201.858 327.352 203.314 328.392 203.314 330.6C203.314 332.824 201.826 333.864 200.306 333.864C198.786 333.864 197.426 332.824 197.426 330.6ZM219.372 335H220.812V329.832C220.812 327.32 219.26 326.072 217.26 326.072C215.916 326.072 214.668 326.76 214.156 328.024C213.58 326.712 212.38 326.072 210.94 326.072C209.788 326.072 208.748 326.568 208.172 327.496V326.232H206.716V335H208.172V330.168C208.172 328.28 209.18 327.336 210.652 327.336C212.092 327.336 213.052 328.248 213.052 330.04V335H214.492V330.168C214.492 328.28 215.5 327.336 216.972 327.336C218.412 327.336 219.372 328.248 219.372 330.04V335ZM226.929 327.32C228.433 327.32 229.713 328.264 229.697 329.976H224.161C224.321 328.264 225.505 327.32 226.929 327.32ZM231.025 332.296H229.457C229.137 333.24 228.305 333.912 226.993 333.912C225.505 333.912 224.257 332.936 224.145 331.16H231.153C231.185 330.856 231.201 330.6 231.201 330.28C231.201 327.88 229.537 326.088 226.993 326.088C224.433 326.088 222.657 327.832 222.657 330.6C222.657 333.384 224.497 335.144 226.993 335.144C229.169 335.144 230.577 333.896 231.025 332.296Z" fill="#9C98A6"/>
<path d="M160.5 364.5H511.5V435.5H160.5V364.5Z" fill="#FAFAFC" stroke="#E6E6F0"/>
<path d="M192.48 402.96C192.48 398.832 186.464 400.624 186.464 397.744C186.464 396.544 187.408 395.92 188.608 395.952C189.968 395.968 190.672 396.816 190.768 397.568H192.368C192.192 395.872 190.8 394.704 188.672 394.704C186.464 394.704 184.976 395.952 184.976 397.792C184.976 401.936 191.008 400.016 191.008 403.024C191.008 404.08 190.176 404.88 188.768 404.88C187.216 404.88 186.56 403.952 186.464 403.024H184.912C184.944 404.864 186.528 406.112 188.768 406.112C191.184 406.112 192.48 404.544 192.48 402.96ZM202.943 401.6C202.943 398.832 201.007 397.088 198.511 397.088C196.031 397.088 194.079 398.832 194.079 401.6C194.079 404.384 195.967 406.144 198.447 406.144C200.943 406.144 202.943 404.384 202.943 401.6ZM195.567 401.6C195.567 399.392 196.959 398.352 198.495 398.352C199.999 398.352 201.455 399.392 201.455 401.6C201.455 403.824 199.967 404.864 198.447 404.864C196.927 404.864 195.567 403.824 195.567 401.6ZM206.313 398.864V394.16H204.857V406H206.313V404.384C206.857 405.344 207.993 406.144 209.593 406.144C211.945 406.144 213.753 404.304 213.753 401.584C213.753 398.848 211.961 397.088 209.593 397.088C208.041 397.088 206.873 397.888 206.313 398.864ZM212.265 401.584C212.265 403.648 210.905 404.864 209.289 404.864C207.705 404.864 206.313 403.664 206.313 401.6C206.313 399.568 207.705 398.352 209.289 398.352C210.905 398.352 212.265 399.52 212.265 401.584ZM217.126 401.232C217.126 399.2 218.182 398.576 219.574 398.576H219.958V397.072C218.566 397.072 217.622 397.68 217.126 398.656V397.232H215.67V406H217.126V401.232ZM225.366 398.32C226.87 398.32 228.15 399.264 228.134 400.976H222.598C222.758 399.264 223.942 398.32 225.366 398.32ZM229.462 403.296H227.894C227.574 404.24 226.742 404.912 225.43 404.912C223.942 404.912 222.694 403.936 222.582 402.16H229.59C229.622 401.856 229.638 401.6 229.638 401.28C229.638 398.88 227.974 397.088 225.43 397.088C222.87 397.088 221.094 398.832 221.094 401.6C221.094 404.384 222.934 406.144 225.43 406.144C227.606 406.144 229.014 404.896 229.462 403.296ZM237.976 406H239.416V400.832C239.416 398.32 237.864 397.072 235.832 397.072C234.648 397.072 233.592 397.568 233.016 398.48V397.232H231.56V406H233.016V401.152C233.016 399.264 234.04 398.336 235.528 398.336C237 398.336 237.976 399.248 237.976 401.04V406ZM250.115 401.6C250.115 398.832 248.179 397.088 245.683 397.088C243.203 397.088 241.251 398.832 241.251 401.6C241.251 404.384 243.139 406.144 245.619 406.144C248.115 406.144 250.115 404.384 250.115 401.6ZM242.739 401.6C242.739 399.392 244.131 398.352 245.667 398.352C247.171 398.352 248.627 399.392 248.627 401.6C248.627 403.824 247.139 404.864 245.619 404.864C244.099 404.864 242.739 403.824 242.739 401.6ZM264.685 406H266.125V400.832C266.125 398.32 264.573 397.072 262.573 397.072C261.229 397.072 259.981 397.76 259.469 399.024C258.893 397.712 257.693 397.072 256.253 397.072C255.101 397.072 254.061 397.568 253.485 398.496V397.232H252.029V406H253.485V401.168C253.485 399.28 254.493 398.336 255.965 398.336C257.405 398.336 258.365 399.248 258.365 401.04V406H259.805V401.168C259.805 399.28 260.813 398.336 262.285 398.336C263.725 398.336 264.685 399.248 264.685 401.04V406ZM272.241 398.32C273.745 398.32 275.025 399.264 275.009 400.976H269.473C269.633 399.264 270.817 398.32 272.241 398.32ZM276.337 403.296H274.769C274.449 404.24 273.617 404.912 272.305 404.912C270.817 404.912 269.569 403.936 269.457 402.16H276.465C276.497 401.856 276.513 401.6 276.513 401.28C276.513 398.88 274.849 397.088 272.305 397.088C269.745 397.088 267.969 398.832 267.969 401.6C267.969 404.384 269.809 406.144 272.305 406.144C274.481 406.144 275.889 404.896 276.337 403.296Z" fill="#9C98A6"/>
<path d="M160.5 435.5H511.5V506.5H160.5V435.5Z" fill="#FAFAFC" stroke="#E6E6F0"/>
<path d="M191.232 465.832H185.232V477H191.232V475.8H186.688V471.96H190.752V470.76H186.688V467.032H191.232V465.832ZM193.131 471.752H199.515V470.52H193.131V471.752ZM214.904 477H216.344V471.832C216.344 469.32 214.792 468.072 212.792 468.072C211.448 468.072 210.2 468.76 209.688 470.024C209.112 468.712 207.912 468.072 206.472 468.072C205.32 468.072 204.28 468.568 203.704 469.496V468.232H202.248V477H203.704V472.168C203.704 470.28 204.712 469.336 206.184 469.336C207.624 469.336 208.584 470.248 208.584 472.04V477H210.024V472.168C210.024 470.28 211.032 469.336 212.504 469.336C213.944 469.336 214.904 470.248 214.904 472.04V477ZM218.188 472.584C218.188 475.304 219.996 477.144 222.332 477.144C223.948 477.144 225.084 476.312 225.612 475.368V477H227.084V468.232H225.612V469.832C225.1 468.92 223.98 468.088 222.348 468.088C219.996 468.088 218.188 469.848 218.188 472.584ZM225.612 472.6C225.612 474.664 224.236 475.864 222.636 475.864C221.036 475.864 219.676 474.648 219.676 472.584C219.676 470.52 221.036 469.352 222.636 469.352C224.236 469.352 225.612 470.568 225.612 472.6ZM229.545 477H231.001V468.232H229.545V477ZM230.297 466.808C230.825 466.808 231.257 466.376 231.257 465.816C231.257 465.256 230.825 464.824 230.297 464.824C229.737 464.824 229.305 465.256 229.305 465.816C229.305 466.376 229.737 466.808 230.297 466.808ZM233.482 477H234.938V465.16H233.482V477Z" fill="#9C98A6"/>
<path d="M160.5 506.5H511.5V570C511.5 574.142 508.142 577.5 504 577.5H168C163.858 577.5 160.5 574.142 160.5 570V506.5Z" fill="#FAFAFC" stroke="#E6E6F0"/>
<path d="M192.48 544.96C192.48 540.832 186.464 542.624 186.464 539.744C186.464 538.544 187.408 537.92 188.608 537.952C189.968 537.968 190.672 538.816 190.768 539.568H192.368C192.192 537.872 190.8 536.704 188.672 536.704C186.464 536.704 184.976 537.952 184.976 539.792C184.976 543.936 191.008 542.016 191.008 545.024C191.008 546.08 190.176 546.88 188.768 546.88C187.216 546.88 186.56 545.952 186.464 545.024H184.912C184.944 546.864 186.528 548.112 188.768 548.112C191.184 548.112 192.48 546.544 192.48 544.96ZM198.351 540.32C199.855 540.32 201.135 541.264 201.119 542.976H195.583C195.743 541.264 196.927 540.32 198.351 540.32ZM202.447 545.296H200.879C200.559 546.24 199.727 546.912 198.415 546.912C196.927 546.912 195.679 545.936 195.567 544.16H202.575C202.607 543.856 202.623 543.6 202.623 543.28C202.623 540.88 200.959 539.088 198.415 539.088C195.855 539.088 194.079 540.832 194.079 543.6C194.079 546.384 195.919 548.144 198.415 548.144C200.591 548.144 201.999 546.896 202.447 545.296ZM210.961 548H212.401V542.832C212.401 540.32 210.849 539.072 208.817 539.072C207.633 539.072 206.577 539.568 206.001 540.48V539.232H204.545V548H206.001V543.152C206.001 541.264 207.025 540.336 208.513 540.336C209.985 540.336 210.961 541.248 210.961 543.04V548ZM214.779 548H216.235V543.152C216.235 541.264 217.259 540.336 218.747 540.336C220.219 540.336 221.195 541.248 221.195 543.04V548H222.635V542.832C222.635 540.32 221.083 539.072 219.131 539.072C217.899 539.072 216.811 539.568 216.235 540.496V536.16H214.779V548ZM224.469 543.584C224.469 546.304 226.277 548.144 228.613 548.144C230.229 548.144 231.365 547.312 231.893 546.368V548H233.365V539.232H231.893V540.832C231.381 539.92 230.261 539.088 228.629 539.088C226.277 539.088 224.469 540.848 224.469 543.584ZM231.893 543.6C231.893 545.664 230.517 546.864 228.917 546.864C227.317 546.864 225.957 545.648 225.957 543.584C225.957 541.52 227.317 540.352 228.917 540.352C230.517 540.352 231.893 541.568 231.893 543.6Z" fill="#9C98A6"/>
<path d="M478.122 539.88C479.293 541.051 479.293 542.952 478.122 544.125C476.951 545.296 475.05 545.296 473.877 544.125C472.706 542.954 472.706 541.053 473.877 539.88C475.05 538.707 476.95 538.707 478.122 539.88Z" stroke="#9C98A6" stroke-width="1.5" stroke-linecap="round" stroke-linejoin="round"/>
<path d="M467 542C467 541.341 467.152 540.689 467.446 540.088C468.961 536.991 472.309 535 476 535C479.691 535 483.039 536.991 484.554 540.088C484.848 540.689 485 541.341 485 542C485 542.659 484.848 543.311 484.554 543.912C483.039 547.009 479.691 549 476 549C472.309 549 468.961 547.009 467.446 543.912C467.152 543.311 467 542.659 467 542V542Z" stroke="#9C98A6" stroke-width="1.5" stroke-linecap="round" stroke-linejoin="round"/>
<path d="M161.26 163.4C161.26 170.924 166.768 176.216 174.004 176.216C179.584 176.216 184.12 173.264 185.812 168.08H180.016C178.828 170.528 176.668 171.716 173.968 171.716C169.576 171.716 166.444 168.476 166.444 163.4C166.444 158.288 169.576 155.084 173.968 155.084C176.668 155.084 178.828 156.272 180.016 158.684H185.812C184.12 153.536 179.584 150.548 174.004 150.548C166.768 150.548 161.26 155.876 161.26 163.4ZM188.821 165.956C188.821 172.184 192.853 176.324 197.893 176.324C201.061 176.324 203.329 174.812 204.517 173.084V176H209.593V156.056H204.517V158.9C203.329 157.244 201.133 155.732 197.929 155.732C192.853 155.732 188.821 159.728 188.821 165.956ZM204.517 166.028C204.517 169.808 201.997 171.896 199.225 171.896C196.525 171.896 193.969 169.736 193.969 165.956C193.969 162.176 196.525 160.16 199.225 160.16C201.997 160.16 204.517 162.248 204.517 166.028ZM213.219 165.956C213.219 172.184 217.251 176.324 222.327 176.324C225.459 176.324 227.691 174.884 228.879 173.048V176H233.991V149.36H228.879V158.828C227.511 156.956 224.991 155.732 222.363 155.732C217.251 155.732 213.219 159.728 213.219 165.956ZM228.915 166.028C228.915 169.808 226.395 171.896 223.623 171.896C220.923 171.896 218.367 169.736 218.367 165.956C218.367 162.176 220.923 160.16 223.623 160.16C226.395 160.16 228.915 162.248 228.915 166.028ZM237.618 165.956C237.618 172.184 241.65 176.324 246.69 176.324C249.858 176.324 252.126 174.812 253.314 173.084V176H258.39V156.056H253.314V158.9C252.126 157.244 249.93 155.732 246.726 155.732C241.65 155.732 237.618 159.728 237.618 165.956ZM253.314 166.028C253.314 169.808 250.794 171.896 248.022 171.896C245.322 171.896 242.766 169.736 242.766 165.956C242.766 162.176 245.322 160.16 248.022 160.16C250.794 160.16 253.314 162.248 253.314 166.028ZM278.792 170.312C278.648 163.004 267.596 165.272 267.596 161.636C267.596 160.484 268.568 159.728 270.44 159.728C272.42 159.728 273.644 160.772 273.788 162.32H278.612C278.324 158.36 275.408 155.732 270.584 155.732C265.652 155.732 262.7 158.396 262.7 161.708C262.7 169.016 273.968 166.748 273.968 170.312C273.968 171.464 272.888 172.364 270.908 172.364C268.892 172.364 267.488 171.212 267.308 169.7H262.232C262.448 173.408 265.94 176.324 270.944 176.324C275.804 176.324 278.792 173.732 278.792 170.312ZM283.721 169.808C283.721 174.38 286.277 176 290.093 176H293.261V171.752H290.921C289.337 171.752 288.797 171.176 288.797 169.844V160.196H293.261V156.056H288.797V151.124H283.721V156.056H281.345V160.196H283.721V169.808ZM301.926 166.064C301.926 162.212 303.726 161.06 306.714 161.06H308.046V155.768C305.274 155.768 303.186 157.1 301.926 159.152V156.056H296.886V176H301.926V166.064ZM330.701 166.028C330.701 159.728 326.201 155.732 320.441 155.732C314.681 155.732 310.181 159.728 310.181 166.028C310.181 172.292 314.537 176.324 320.297 176.324C326.093 176.324 330.701 172.292 330.701 166.028ZM315.293 166.028C315.293 162.032 317.705 160.124 320.369 160.124C323.033 160.124 325.517 162.032 325.517 166.028C325.517 169.988 322.961 171.932 320.297 171.932C317.597 171.932 315.293 169.988 315.293 166.028Z" fill="#32264D"/>
<path d="M162.688 214.144V210.048H164.832C166.496 210.048 167.2 210.816 167.2 212.112C167.2 213.36 166.496 214.144 164.832 214.144H162.688ZM168.688 212.112C168.688 210.288 167.456 208.848 164.832 208.848H161.232V220H162.688V215.344H164.832C167.6 215.344 168.688 213.808 168.688 212.112ZM171.954 215.232C171.954 213.2 173.01 212.576 174.402 212.576H174.786V211.072C173.394 211.072 172.45 211.68 171.954 212.656V211.232H170.498V220H171.954V215.232ZM180.194 212.32C181.698 212.32 182.978 213.264 182.962 214.976H177.426C177.586 213.264 178.77 212.32 180.194 212.32ZM184.29 217.296H182.722C182.402 218.24 181.57 218.912 180.258 218.912C178.77 218.912 177.522 217.936 177.41 216.16H184.418C184.45 215.856 184.466 215.6 184.466 215.28C184.466 212.88 182.802 211.088 180.258 211.088C177.698 211.088 175.922 212.832 175.922 215.6C175.922 218.384 177.762 220.144 180.258 220.144C182.434 220.144 183.842 218.896 184.29 217.296ZM190.116 212.32C191.62 212.32 192.9 213.264 192.884 214.976H187.348C187.508 213.264 188.692 212.32 190.116 212.32ZM194.212 217.296H192.644C192.324 218.24 191.492 218.912 190.18 218.912C188.692 218.912 187.444 217.936 187.332 216.16H194.34C194.372 215.856 194.388 215.6 194.388 215.28C194.388 212.88 192.724 211.088 190.18 211.088C187.62 211.088 185.844 212.832 185.844 215.6C185.844 218.384 187.684 220.144 190.18 220.144C192.356 220.144 193.764 218.896 194.212 217.296ZM202.726 220H204.166V214.832C204.166 212.32 202.614 211.072 200.582 211.072C199.398 211.072 198.342 211.568 197.766 212.48V211.232H196.31V220H197.766V215.152C197.766 213.264 198.79 212.336 200.278 212.336C201.75 212.336 202.726 213.248 202.726 215.04V220ZM206.001 215.6C206.001 218.384 207.777 220.144 210.273 220.144C212.449 220.144 213.873 218.928 214.321 217.184H212.753C212.433 218.288 211.569 218.912 210.273 218.912C208.673 218.912 207.489 217.776 207.489 215.6C207.489 213.456 208.673 212.32 210.273 212.32C211.569 212.32 212.449 212.992 212.753 214.048H214.321C213.873 212.208 212.449 211.088 210.273 211.088C207.777 211.088 206.001 212.848 206.001 215.6ZM216.263 220H217.719V215.152C217.719 213.264 218.743 212.336 220.231 212.336C221.703 212.336 222.679 213.248 222.679 215.04V220H224.119V214.832C224.119 212.32 222.567 211.072 220.615 211.072C219.383 211.072 218.295 211.568 217.719 212.496V208.16H216.263V220ZM225.954 215.584C225.954 218.304 227.762 220.144 230.098 220.144C231.714 220.144 232.85 219.312 233.378 218.368V220H234.85V211.232H233.378V212.832C232.866 211.92 231.746 211.088 230.114 211.088C227.762 211.088 225.954 212.848 225.954 215.584ZM233.378 215.6C233.378 217.664 232.002 218.864 230.402 218.864C228.802 218.864 227.442 217.648 227.442 215.584C227.442 213.52 228.802 212.352 230.402 212.352C232.002 212.352 233.378 213.568 233.378 215.6ZM249.896 215.6C249.896 212.832 247.96 211.088 245.464 211.088C242.984 211.088 241.032 212.832 241.032 215.6C241.032 218.384 242.92 220.144 245.4 220.144C247.896 220.144 249.896 218.384 249.896 215.6ZM242.52 215.6C242.52 213.392 243.912 212.352 245.448 212.352C246.952 212.352 248.408 213.392 248.408 215.6C248.408 217.824 246.92 218.864 245.4 218.864C243.88 218.864 242.52 217.824 242.52 215.6ZM258.114 217.616C258.05 214.48 252.962 215.616 252.962 213.536C252.962 212.832 253.602 212.32 254.674 212.32C255.842 212.32 256.514 212.96 256.578 213.84H258.034C257.938 212.128 256.658 211.088 254.722 211.088C252.77 211.088 251.506 212.192 251.506 213.536C251.506 216.8 256.69 215.664 256.69 217.616C256.69 218.336 256.05 218.912 254.898 218.912C253.666 218.912 252.914 218.272 252.834 217.424H251.33C251.426 219.024 252.866 220.144 254.914 220.144C256.85 220.144 258.114 219.056 258.114 217.616ZM263.891 215.584C263.891 218.304 265.699 220.144 268.051 220.144C269.651 220.144 270.787 219.328 271.315 218.352V220H272.787V208.16H271.315V212.8C270.707 211.792 269.443 211.088 268.067 211.088C265.699 211.088 263.891 212.848 263.891 215.584ZM271.315 215.6C271.315 217.664 269.939 218.864 268.339 218.864C266.739 218.864 265.379 217.648 265.379 215.584C265.379 213.52 266.739 212.352 268.339 212.352C269.939 212.352 271.315 213.568 271.315 215.6ZM274.704 215.584C274.704 218.304 276.512 220.144 278.848 220.144C280.464 220.144 281.6 219.312 282.128 218.368V220H283.6V211.232H282.128V212.832C281.616 211.92 280.496 211.088 278.864 211.088C276.512 211.088 274.704 212.848 274.704 215.584ZM282.128 215.6C282.128 217.664 280.752 218.864 279.152 218.864C277.552 218.864 276.192 217.648 276.192 215.584C276.192 213.52 277.552 212.352 279.152 212.352C280.752 212.352 282.128 213.568 282.128 215.6ZM285.516 215.584C285.516 218.304 287.324 220.144 289.676 220.144C291.276 220.144 292.412 219.328 292.94 218.352V220H294.412V208.16H292.94V212.8C292.332 211.792 291.068 211.088 289.692 211.088C287.324 211.088 285.516 212.848 285.516 215.584ZM292.94 215.6C292.94 217.664 291.564 218.864 289.964 218.864C288.364 218.864 287.004 217.648 287.004 215.584C287.004 213.52 288.364 212.352 289.964 212.352C291.564 212.352 292.94 213.568 292.94 215.6ZM305.193 215.6C305.193 212.832 303.257 211.088 300.761 211.088C298.281 211.088 296.329 212.832 296.329 215.6C296.329 218.384 298.217 220.144 300.697 220.144C303.193 220.144 305.193 218.384 305.193 215.6ZM297.817 215.6C297.817 213.392 299.209 212.352 300.745 212.352C302.249 212.352 303.705 213.392 303.705 215.6C303.705 217.824 302.217 218.864 300.697 218.864C299.177 218.864 297.817 217.824 297.817 215.6ZM313.411 217.616C313.347 214.48 308.259 215.616 308.259 213.536C308.259 212.832 308.899 212.32 309.971 212.32C311.139 212.32 311.811 212.96 311.875 213.84H313.331C313.235 212.128 311.955 211.088 310.019 211.088C308.067 211.088 306.803 212.192 306.803 213.536C306.803 216.8 311.987 215.664 311.987 217.616C311.987 218.336 311.347 218.912 310.195 218.912C308.963 218.912 308.211 218.272 308.131 217.424H306.627C306.723 219.024 308.163 220.144 310.211 220.144C312.147 220.144 313.411 219.056 313.411 217.616ZM319.188 215.584C319.188 218.304 320.996 220.144 323.332 220.144C324.948 220.144 326.084 219.312 326.612 218.368V220H328.084V211.232H326.612V212.832C326.1 211.92 324.98 211.088 323.348 211.088C320.996 211.088 319.188 212.848 319.188 215.584ZM326.612 215.6C326.612 217.664 325.236 218.864 323.636 218.864C322.036 218.864 320.676 217.648 320.676 215.584C320.676 213.52 322.036 212.352 323.636 212.352C325.236 212.352 326.612 213.568 326.612 215.6ZM332.001 212.864V208.16H330.545V220H332.001V218.384C332.545 219.344 333.681 220.144 335.281 220.144C337.633 220.144 339.441 218.304 339.441 215.584C339.441 212.848 337.649 211.088 335.281 211.088C333.729 211.088 332.561 211.888 332.001 212.864ZM337.953 215.584C337.953 217.648 336.593 218.864 334.977 218.864C333.393 218.864 332.001 217.664 332.001 215.6C332.001 213.568 333.393 212.352 334.977 212.352C336.593 212.352 337.953 213.52 337.953 215.584ZM340.813 215.584C340.813 218.304 342.621 220.144 344.957 220.144C346.573 220.144 347.709 219.312 348.237 218.368V220H349.709V211.232H348.237V212.832C347.725 211.92 346.605 211.088 344.973 211.088C342.621 211.088 340.813 212.848 340.813 215.584ZM348.237 215.6C348.237 217.664 346.861 218.864 345.261 218.864C343.661 218.864 342.301 217.648 342.301 215.584C342.301 213.52 343.661 212.352 345.261 212.352C346.861 212.352 348.237 213.568 348.237 215.6ZM352.17 220H353.626V211.232H352.17V220ZM352.922 209.808C353.45 209.808 353.882 209.376 353.882 208.816C353.882 208.256 353.45 207.824 352.922 207.824C352.362 207.824 351.93 208.256 351.93 208.816C351.93 209.376 352.362 209.808 352.922 209.808ZM360.683 220H362.331L359.499 215.568L362.315 211.232H360.795L358.811 214.48L356.731 211.232H355.083L357.915 215.648L355.083 220H356.603L358.603 216.736L360.683 220ZM372.083 215.6C372.083 212.832 370.147 211.088 367.651 211.088C365.171 211.088 363.219 212.832 363.219 215.6C363.219 218.384 365.107 220.144 367.587 220.144C370.083 220.144 372.083 218.384 372.083 215.6ZM364.707 215.6C364.707 213.392 366.099 212.352 367.635 212.352C369.139 212.352 370.595 213.392 370.595 215.6C370.595 217.824 369.107 218.864 367.587 218.864C366.067 218.864 364.707 217.824 364.707 215.6ZM162.688 238.848V237.232H161.232V250.16H162.688V244.384C163.232 245.28 164.368 246.144 165.968 246.144C168.32 246.144 170.128 244.304 170.128 241.584C170.128 238.848 168.32 237.088 165.968 237.088C164.368 237.088 163.216 237.92 162.688 238.848ZM168.64 241.584C168.64 243.648 167.28 244.864 165.664 244.864C164.08 244.864 162.688 243.664 162.688 241.6C162.688 239.568 164.08 238.352 165.664 238.352C167.28 238.352 168.64 239.52 168.64 241.584ZM171.501 241.584C171.501 244.304 173.309 246.144 175.645 246.144C177.261 246.144 178.397 245.312 178.925 244.368V246H180.397V237.232H178.925V238.832C178.413 237.92 177.293 237.088 175.661 237.088C173.309 237.088 171.501 238.848 171.501 241.584ZM178.925 241.6C178.925 243.664 177.549 244.864 175.949 244.864C174.349 244.864 172.989 243.648 172.989 241.584C172.989 239.52 174.349 238.352 175.949 238.352C177.549 238.352 178.925 239.568 178.925 241.6ZM184.313 241.232C184.313 239.2 185.369 238.576 186.761 238.576H187.145V237.072C185.753 237.072 184.809 237.68 184.313 238.656V237.232H182.857V246H184.313V241.232ZM188.282 241.584C188.282 244.304 190.09 246.144 192.426 246.144C194.042 246.144 195.178 245.312 195.706 244.368V246H197.178V237.232H195.706V238.832C195.194 237.92 194.074 237.088 192.442 237.088C190.09 237.088 188.282 238.848 188.282 241.584ZM195.706 241.6C195.706 243.664 194.33 244.864 192.73 244.864C191.13 244.864 189.77 243.648 189.77 241.584C189.77 239.52 191.13 238.352 192.73 238.352C194.33 238.352 195.706 239.568 195.706 241.6ZM203.36 241.6C203.36 244.384 205.136 246.144 207.632 246.144C209.808 246.144 211.232 244.928 211.68 243.184H210.112C209.792 244.288 208.928 244.912 207.632 244.912C206.032 244.912 204.848 243.776 204.848 241.6C204.848 239.456 206.032 238.32 207.632 238.32C208.928 238.32 209.808 238.992 210.112 240.048H211.68C211.232 238.208 209.808 237.088 207.632 237.088C205.136 237.088 203.36 238.848 203.36 241.6ZM221.943 241.6C221.943 238.832 220.007 237.088 217.511 237.088C215.031 237.088 213.079 238.832 213.079 241.6C213.079 244.384 214.967 246.144 217.447 246.144C219.943 246.144 221.943 244.384 221.943 241.6ZM214.567 241.6C214.567 239.392 215.959 238.352 217.495 238.352C218.999 238.352 220.455 239.392 220.455 241.6C220.455 243.824 218.967 244.864 217.447 244.864C215.927 244.864 214.567 243.824 214.567 241.6ZM236.513 246H237.953V240.832C237.953 238.32 236.401 237.072 234.401 237.072C233.057 237.072 231.809 237.76 231.297 239.024C230.721 237.712 229.521 237.072 228.081 237.072C226.929 237.072 225.889 237.568 225.313 238.496V237.232H223.857V246H225.313V241.168C225.313 239.28 226.321 238.336 227.793 238.336C229.233 238.336 230.193 239.248 230.193 241.04V246H231.633V241.168C231.633 239.28 232.641 238.336 234.113 238.336C235.553 238.336 236.513 239.248 236.513 241.04V246ZM244.069 238.32C245.573 238.32 246.853 239.264 246.837 240.976H241.301C241.461 239.264 242.645 238.32 244.069 238.32ZM248.165 243.296H246.597C246.277 244.24 245.445 244.912 244.133 244.912C242.645 244.912 241.397 243.936 241.285 242.16H248.293C248.325 241.856 248.341 241.6 248.341 241.28C248.341 238.88 246.677 237.088 244.133 237.088C241.573 237.088 239.797 238.832 239.797 241.6C239.797 244.384 241.637 246.144 244.133 246.144C246.309 246.144 247.717 244.896 248.165 243.296ZM249.719 241.6C249.719 244.176 251.255 245.888 253.463 246.112V247.824H254.263C254.951 247.824 255.287 248.016 255.287 248.512C255.287 249.024 254.951 249.216 254.263 249.216H252.711V250.16H254.551C255.687 250.16 256.503 249.52 256.503 248.512C256.503 247.456 255.671 246.912 254.439 246.928V246.128C256.359 245.968 257.623 244.8 258.039 243.184H256.471C256.151 244.288 255.287 244.912 253.991 244.912C252.391 244.912 251.207 243.776 251.207 241.6C251.207 239.456 252.391 238.32 253.991 238.32C255.287 238.32 256.167 238.992 256.471 240.048H258.039C257.591 238.208 256.167 237.088 253.991 237.088C251.495 237.088 249.719 238.848 249.719 241.6ZM259.438 241.584C259.438 244.304 261.246 246.144 263.582 246.144C265.198 246.144 266.334 245.312 266.862 244.368V246H268.334V237.232H266.862V238.832C266.35 237.92 265.23 237.088 263.598 237.088C261.246 237.088 259.438 238.848 259.438 241.584ZM266.862 241.6C266.862 243.664 265.486 244.864 263.886 244.864C262.286 244.864 260.926 243.648 260.926 241.584C260.926 239.52 262.286 238.352 263.886 238.352C265.486 238.352 266.862 239.568 266.862 241.6ZM272.251 241.232C272.251 239.2 273.307 238.576 274.699 238.576H275.083V237.072C273.691 237.072 272.747 237.68 272.251 238.656V237.232H270.795V246H272.251V241.232ZM278.187 245.104C278.187 244.544 277.755 244.112 277.227 244.112C276.667 244.112 276.235 244.544 276.235 245.104C276.235 245.664 276.667 246.096 277.227 246.096C277.755 246.096 278.187 245.664 278.187 245.104Z" fill="#6A6180"/>
<g clip-path="url(#clip1)">
<path d="M162 32H208" stroke="#8257E5" stroke-width="1.5" stroke-linecap="round" stroke-linejoin="round"/>
<path d="M166.001 37.001L161 32L166.001 26.999" stroke="#8257E5" stroke-width="1.5" stroke-linecap="round" stroke-linejoin="round"/>
</g>
<defs>
<clipPath id="clip0">
<rect width="334.173" height="97.6421" fill="white" transform="translate(889 326)"/>
</clipPath>
<clipPath id="clip1">
<rect width="32" height="49" fill="white" transform="translate(209 16) rotate(90)"/>
</clipPath>
</defs>
</svg>
