<svg width="1440" height="820" viewBox="0 0 1440 820" fill="none" xmlns="http://www.w3.org/2000/svg">
<rect width="1440" height="820" fill="#F0F0F7"/>
<rect x="672" width="768" height="820" fill="#8257E5"/>
<path d="M1262.57 737.405C1257.53 737.405 1253.44 733.339 1253.44 728.324C1253.44 723.308 1257.53 719.242 1262.57 719.242C1267.61 719.242 1271.7 723.308 1271.7 728.324C1271.7 733.323 1267.61 737.405 1262.57 737.405Z" stroke="#04D361" stroke-width="3" stroke-miterlimit="10" stroke-linecap="round" stroke-linejoin="round"/>
<path d="M1256.27 734.887L1249.81 741.294" stroke="#04D361" stroke-width="3" stroke-miterlimit="10" stroke-linecap="round" stroke-linejoin="round"/>
<path d="M1091.22 78L1081.61 87.5541" stroke="#04D361" stroke-width="3" stroke-miterlimit="10" stroke-linecap="round" stroke-linejoin="round"/>
<path d="M1091.22 87.5541L1081.61 78" stroke="#04D361" stroke-width="3" stroke-miterlimit="10" stroke-linecap="round" stroke-linejoin="round"/>
<path d="M1077.46 652.763L1067.85 662.317" stroke="#04D361" stroke-width="3" stroke-miterlimit="10" stroke-linecap="round" stroke-linejoin="round"/>
<path d="M1077.46 662.317L1067.85 652.763" stroke="#04D361" stroke-width="3" stroke-miterlimit="10" stroke-linecap="round" stroke-linejoin="round"/>
<path d="M777.431 263.274L763.844 263.274" stroke="#04D361" stroke-width="3" stroke-miterlimit="10" stroke-linecap="round" stroke-linejoin="round"/>
<path d="M770.639 270.046L770.639 256.52" stroke="#04D361" stroke-width="3" stroke-miterlimit="10" stroke-linecap="round" stroke-linejoin="round"/>
<path d="M1174.87 214.422C1170.32 214.422 1166.61 210.752 1166.61 206.211C1166.61 201.686 1170.3 198 1174.87 198C1179.42 198 1183.12 201.67 1183.12 206.211C1183.11 210.752 1179.42 214.422 1174.87 214.422Z" stroke="#04D361" stroke-width="3" stroke-miterlimit="10" stroke-linecap="round" stroke-linejoin="round"/>
<path d="M1339.74 421.169C1335.19 421.169 1331.49 417.499 1331.49 412.958C1331.49 408.434 1335.18 404.747 1339.74 404.747C1344.29 404.747 1348 408.418 1348 412.958C1347.98 417.499 1344.29 421.169 1339.74 421.169Z" stroke="#04D361" stroke-width="3" stroke-miterlimit="10" stroke-linecap="round" stroke-linejoin="round"/>
<path d="M820.591 547.906C816.041 547.906 812.334 544.236 812.334 539.695C812.334 535.17 816.025 531.484 820.591 531.484C825.141 531.484 828.848 535.155 828.848 539.695C828.832 544.236 825.141 547.906 820.591 547.906Z" stroke="#04D361" stroke-width="3" stroke-miterlimit="10" stroke-linecap="round" stroke-linejoin="round"/>
<path d="M919.224 99.2467C919.224 100.889 920.563 102.221 922.214 102.221C923.866 102.221 925.205 100.889 925.205 99.2467C925.205 97.6044 923.866 96.2729 922.214 96.2729C920.563 96.2729 919.224 97.6044 919.224 99.2467Z" fill="#9871F5"/>
<path d="M919.224 120.02C919.224 121.662 920.563 122.994 922.214 122.994C923.866 122.994 925.205 121.662 925.205 120.02C925.205 118.378 923.866 117.046 922.214 117.046C920.563 117.046 919.224 118.378 919.224 120.02Z" fill="#9871F5"/>
<path d="M919.224 140.774C919.224 142.417 920.563 143.748 922.214 143.748C923.866 143.748 925.205 142.417 925.205 140.774C925.205 139.132 923.866 137.801 922.214 137.801C920.563 137.801 919.224 139.132 919.224 140.774Z" fill="#9871F5"/>
<path d="M919.224 161.545C919.224 163.187 920.563 164.519 922.214 164.519C923.866 164.519 925.205 163.187 925.205 161.545C925.205 159.902 923.866 158.571 922.214 158.571C920.563 158.571 919.224 159.902 919.224 161.545Z" fill="#9871F5"/>
<path d="M919.224 182.301C919.224 183.944 920.563 185.275 922.214 185.275C923.866 185.275 925.205 183.944 925.205 182.301C925.205 180.659 923.866 179.327 922.214 179.327C920.563 179.327 919.224 180.659 919.224 182.301Z" fill="#9871F5"/>
<path d="M919.224 203.071C919.224 204.714 920.563 206.045 922.214 206.045C923.866 206.045 925.205 204.714 925.205 203.071C925.205 201.429 923.866 200.098 922.214 200.098C920.563 200.098 919.224 201.429 919.224 203.071Z" fill="#9871F5"/>
<path d="M898.35 99.247C898.35 100.889 899.689 102.221 901.341 102.221C902.992 102.221 904.331 100.889 904.331 99.247C904.331 97.6046 902.992 96.2732 901.341 96.2732C899.689 96.2732 898.35 97.6046 898.35 99.247Z" fill="#9871F5"/>
<path d="M898.35 120.02C898.35 121.662 899.689 122.994 901.341 122.994C902.992 122.994 904.331 121.662 904.331 120.02C904.331 118.378 902.992 117.046 901.341 117.046C899.689 117.046 898.35 118.378 898.35 120.02Z" fill="#9871F5"/>
<path d="M898.35 140.774C898.35 142.417 899.689 143.748 901.341 143.748C902.992 143.748 904.331 142.417 904.331 140.774C904.331 139.132 902.992 137.801 901.341 137.801C899.689 137.801 898.35 139.132 898.35 140.774Z" fill="#9871F5"/>
<path d="M898.35 161.545C898.35 163.187 899.689 164.519 901.341 164.519C902.992 164.519 904.331 163.187 904.331 161.545C904.331 159.902 902.992 158.571 901.341 158.571C899.689 158.571 898.35 159.902 898.35 161.545Z" fill="#9871F5"/>
<path d="M898.35 182.301C898.35 183.944 899.689 185.275 901.341 185.275C902.992 185.275 904.331 183.944 904.331 182.301C904.331 180.659 902.992 179.327 901.341 179.327C899.689 179.327 898.35 180.659 898.35 182.301Z" fill="#9871F5"/>
<path d="M898.35 203.071C898.35 204.714 899.689 206.045 901.341 206.045C902.992 206.045 904.331 204.714 904.331 203.071C904.331 201.429 902.992 200.098 901.341 200.098C899.689 200.098 898.35 201.429 898.35 203.071Z" fill="#9871F5"/>
<path d="M877.461 99.247C877.461 100.889 878.8 102.221 880.452 102.221C882.103 102.221 883.442 100.889 883.442 99.247C883.442 97.6046 882.103 96.2732 880.452 96.2732C878.8 96.2732 877.461 97.6046 877.461 99.247Z" fill="#9871F5"/>
<path d="M877.461 120.02C877.461 121.662 878.8 122.994 880.452 122.994C882.103 122.994 883.442 121.662 883.442 120.02C883.442 118.378 882.103 117.046 880.452 117.046C878.8 117.046 877.461 118.378 877.461 120.02Z" fill="#9871F5"/>
<path d="M877.461 140.774C877.461 142.417 878.8 143.748 880.452 143.748C882.103 143.748 883.442 142.417 883.442 140.774C883.442 139.132 882.103 137.801 880.452 137.801C878.8 137.801 877.461 139.132 877.461 140.774Z" fill="#9871F5"/>
<path d="M877.461 161.545C877.461 163.187 878.8 164.519 880.452 164.519C882.103 164.519 883.442 163.187 883.442 161.545C883.442 159.902 882.103 158.571 880.452 158.571C878.8 158.571 877.461 159.902 877.461 161.545Z" fill="#9871F5"/>
<path d="M877.461 182.301C877.461 183.944 878.8 185.275 880.452 185.275C882.103 185.275 883.442 183.944 883.442 182.301C883.442 180.659 882.103 179.327 880.452 179.327C878.8 179.327 877.461 180.659 877.461 182.301Z" fill="#9871F5"/>
<path d="M877.461 203.071C877.461 204.714 878.8 206.045 880.452 206.045C882.103 206.045 883.442 204.714 883.442 203.071C883.442 201.429 882.103 200.098 880.452 200.098C878.8 200.098 877.461 201.429 877.461 203.071Z" fill="#9871F5"/>
<path d="M856.588 99.247C856.588 100.889 857.927 102.221 859.579 102.221C861.23 102.221 862.569 100.889 862.569 99.247C862.569 97.6046 861.23 96.2732 859.579 96.2732C857.927 96.2732 856.588 97.6046 856.588 99.247Z" fill="#9871F5"/>
<path d="M856.588 120.02C856.588 121.662 857.927 122.994 859.579 122.994C861.23 122.994 862.569 121.662 862.569 120.02C862.569 118.378 861.23 117.046 859.579 117.046C857.927 117.046 856.588 118.378 856.588 120.02Z" fill="#9871F5"/>
<path d="M856.588 140.774C856.588 142.417 857.927 143.748 859.579 143.748C861.23 143.748 862.569 142.417 862.569 140.774C862.569 139.132 861.23 137.801 859.579 137.801C857.927 137.801 856.588 139.132 856.588 140.774Z" fill="#9871F5"/>
<path d="M856.588 161.545C856.588 163.187 857.927 164.519 859.579 164.519C861.23 164.519 862.569 163.187 862.569 161.545C862.569 159.902 861.23 158.571 859.579 158.571C857.927 158.571 856.588 159.902 856.588 161.545Z" fill="#9871F5"/>
<path d="M856.588 182.301C856.588 183.944 857.927 185.275 859.579 185.275C861.23 185.275 862.569 183.944 862.569 182.301C862.569 180.659 861.23 179.327 859.579 179.327C857.927 179.327 856.588 180.659 856.588 182.301Z" fill="#9871F5"/>
<path d="M856.588 203.071C856.588 204.714 857.927 206.045 859.579 206.045C861.23 206.045 862.569 204.714 862.569 203.071C862.569 201.429 861.23 200.098 859.579 200.098C857.927 200.098 856.588 201.429 856.588 203.071Z" fill="#9871F5"/>
<path d="M1259.79 553.706C1259.79 555.348 1261.13 556.68 1262.78 556.68C1264.43 556.68 1265.77 555.348 1265.77 553.706C1265.77 552.063 1264.43 550.732 1262.78 550.732C1261.13 550.732 1259.79 552.063 1259.79 553.706Z" fill="#9871F5"/>
<path d="M1259.79 574.461C1259.79 576.103 1261.13 577.434 1262.78 577.434C1264.43 577.434 1265.77 576.103 1265.77 574.461C1265.77 572.818 1264.43 571.487 1262.78 571.487C1261.13 571.487 1259.79 572.818 1259.79 574.461Z" fill="#9871F5"/>
<path d="M1259.79 595.23C1259.79 596.872 1261.13 598.204 1262.78 598.204C1264.43 598.204 1265.77 596.872 1265.77 595.23C1265.77 593.588 1264.43 592.256 1262.78 592.256C1261.13 592.256 1259.79 593.588 1259.79 595.23Z" fill="#9871F5"/>
<path d="M1238.9 553.704C1238.9 555.346 1240.24 556.677 1241.89 556.677C1243.54 556.677 1244.88 555.346 1244.88 553.704C1244.88 552.061 1243.54 550.73 1241.89 550.73C1240.24 550.73 1238.9 552.061 1238.9 553.704Z" fill="#9871F5"/>
<path d="M1238.9 574.461C1238.9 576.103 1240.24 577.434 1241.89 577.434C1243.54 577.434 1244.88 576.103 1244.88 574.461C1244.88 572.818 1243.54 571.487 1241.89 571.487C1240.24 571.487 1238.9 572.818 1238.9 574.461Z" fill="#9871F5"/>
<path d="M1238.9 595.229C1238.9 596.871 1240.24 598.202 1241.89 598.202C1243.54 598.202 1244.88 596.871 1244.88 595.229C1244.88 593.586 1243.54 592.255 1241.89 592.255C1240.24 592.255 1238.9 593.586 1238.9 595.229Z" fill="#9871F5"/>
<path d="M1333.5 187.974C1333.5 189.617 1334.84 190.948 1336.49 190.948C1338.14 190.948 1339.48 189.617 1339.48 187.974C1339.48 186.332 1338.14 185 1336.49 185C1334.84 185 1333.5 186.332 1333.5 187.974Z" fill="#9871F5"/>
<path d="M1333.5 208.728C1333.5 210.37 1334.84 211.702 1336.49 211.702C1338.14 211.702 1339.48 210.37 1339.48 208.728C1339.48 207.086 1338.14 205.754 1336.49 205.754C1334.84 205.754 1333.5 207.086 1333.5 208.728Z" fill="#9871F5"/>
<path d="M1333.5 229.5C1333.5 231.143 1334.84 232.474 1336.49 232.474C1338.14 232.474 1339.48 231.143 1339.48 229.5C1339.48 227.858 1338.14 226.527 1336.49 226.527C1334.84 226.527 1333.5 227.858 1333.5 229.5Z" fill="#9871F5"/>
<path d="M1312.61 187.974C1312.61 189.616 1313.95 190.948 1315.6 190.948C1317.25 190.948 1318.59 189.616 1318.59 187.974C1318.59 186.331 1317.25 185 1315.6 185C1313.95 185 1312.61 186.331 1312.61 187.974Z" fill="#9871F5"/>
<path d="M1312.61 208.73C1312.61 210.372 1313.95 211.704 1315.6 211.704C1317.25 211.704 1318.59 210.372 1318.59 208.73C1318.59 207.088 1317.25 205.756 1315.6 205.756C1313.95 205.756 1312.61 207.088 1312.61 208.73Z" fill="#9871F5"/>
<path d="M1312.61 229.5C1312.61 231.143 1313.95 232.474 1315.6 232.474C1317.25 232.474 1318.59 231.143 1318.59 229.5C1318.59 227.858 1317.25 226.526 1315.6 226.526C1313.95 226.526 1312.61 227.858 1312.61 229.5Z" fill="#9871F5"/>
<path d="M926.71 738.983C926.71 740.626 928.049 741.957 929.701 741.957C931.353 741.957 932.691 740.626 932.691 738.983C932.691 737.341 931.353 736.009 929.701 736.009C928.049 736.009 926.71 737.341 926.71 738.983Z" fill="#9871F5"/>
<path d="M905.822 738.983C905.822 740.626 907.16 741.957 908.812 741.957C910.464 741.957 911.802 740.626 911.802 738.983C911.802 737.341 910.464 736.009 908.812 736.009C907.16 736.009 905.822 737.341 905.822 738.983Z" fill="#9871F5"/>
<path d="M884.948 738.983C884.948 740.626 886.287 741.957 887.938 741.957C889.59 741.957 890.929 740.626 890.929 738.983C890.929 737.341 889.59 736.009 887.938 736.009C886.287 736.009 884.948 737.341 884.948 738.983Z" fill="#9871F5"/>
<path d="M864.059 738.983C864.059 740.626 865.398 741.957 867.05 741.957C868.701 741.957 870.04 740.626 870.04 738.983C870.04 737.341 868.701 736.009 867.05 736.009C865.398 736.009 864.059 737.341 864.059 738.983Z" fill="#9871F5"/>
<path d="M843.186 738.983C843.186 740.626 844.525 741.957 846.177 741.957C847.828 741.957 849.167 740.626 849.167 738.983C849.167 737.341 847.828 736.009 846.177 736.009C844.525 736.009 843.186 737.341 843.186 738.983Z" fill="#9871F5"/>
<path d="M822.297 738.983C822.297 740.626 823.636 741.957 825.288 741.957C826.939 741.957 828.278 740.626 828.278 738.983C828.278 737.341 826.939 736.009 825.288 736.009C823.636 736.009 822.297 737.341 822.297 738.983Z" fill="#9871F5"/>
<path d="M801.424 738.983C801.424 740.626 802.763 741.957 804.414 741.957C806.066 741.957 807.405 740.626 807.405 738.983C807.405 737.341 806.066 736.009 804.414 736.009C802.763 736.009 801.424 737.341 801.424 738.983Z" fill="#9871F5"/>
<path d="M926.71 718.212C926.71 719.854 928.049 721.186 929.701 721.186C931.353 721.186 932.691 719.854 932.691 718.212C932.691 716.569 931.353 715.238 929.701 715.238C928.049 715.238 926.71 716.569 926.71 718.212Z" fill="#9871F5"/>
<path d="M905.822 718.212C905.822 719.854 907.16 721.186 908.812 721.186C910.464 721.186 911.802 719.854 911.802 718.212C911.802 716.569 910.464 715.238 908.812 715.238C907.16 715.238 905.822 716.569 905.822 718.212Z" fill="#9871F5"/>
<path d="M884.948 718.212C884.948 719.854 886.287 721.186 887.938 721.186C889.59 721.186 890.929 719.854 890.929 718.212C890.929 716.569 889.59 715.238 887.938 715.238C886.287 715.238 884.948 716.569 884.948 718.212Z" fill="#9871F5"/>
<path d="M864.059 718.212C864.059 719.854 865.398 721.186 867.05 721.186C868.701 721.186 870.04 719.854 870.04 718.212C870.04 716.569 868.701 715.238 867.05 715.238C865.398 715.238 864.059 716.569 864.059 718.212Z" fill="#9871F5"/>
<path d="M843.186 718.212C843.186 719.854 844.525 721.186 846.177 721.186C847.828 721.186 849.167 719.854 849.167 718.212C849.167 716.569 847.828 715.238 846.177 715.238C844.525 715.238 843.186 716.569 843.186 718.212Z" fill="#9871F5"/>
<path d="M822.297 718.212C822.297 719.854 823.636 721.186 825.288 721.186C826.939 721.186 828.278 719.854 828.278 718.212C828.278 716.569 826.939 715.238 825.288 715.238C823.636 715.238 822.297 716.569 822.297 718.212Z" fill="#9871F5"/>
<path d="M801.424 718.212C801.424 719.854 802.763 721.186 804.414 721.186C806.066 721.186 807.405 719.854 807.405 718.212C807.405 716.569 806.066 715.238 804.414 715.238C802.763 715.238 801.424 716.569 801.424 718.212Z" fill="#9871F5"/>
<path d="M926.71 697.456C926.71 699.098 928.049 700.43 929.701 700.43C931.353 700.43 932.691 699.098 932.691 697.456C932.691 695.814 931.353 694.482 929.701 694.482C928.049 694.482 926.71 695.814 926.71 697.456Z" fill="#9871F5"/>
<path d="M905.822 697.456C905.822 699.098 907.16 700.43 908.812 700.43C910.464 700.43 911.802 699.098 911.802 697.456C911.802 695.814 910.464 694.482 908.812 694.482C907.16 694.482 905.822 695.814 905.822 697.456Z" fill="#9871F5"/>
<path d="M884.948 697.456C884.948 699.098 886.287 700.43 887.938 700.43C889.59 700.43 890.929 699.098 890.929 697.456C890.929 695.814 889.59 694.482 887.938 694.482C886.287 694.482 884.948 695.814 884.948 697.456Z" fill="#9871F5"/>
<path d="M864.059 697.456C864.059 699.098 865.398 700.43 867.05 700.43C868.701 700.43 870.04 699.098 870.04 697.456C870.04 695.814 868.701 694.482 867.05 694.482C865.398 694.482 864.059 695.814 864.059 697.456Z" fill="#9871F5"/>
<path d="M843.186 697.456C843.186 699.098 844.525 700.43 846.177 700.43C847.828 700.43 849.167 699.098 849.167 697.456C849.167 695.814 847.828 694.482 846.177 694.482C844.525 694.482 843.186 695.814 843.186 697.456Z" fill="#9871F5"/>
<path d="M822.297 697.456C822.297 699.098 823.636 700.43 825.288 700.43C826.939 700.43 828.278 699.098 828.278 697.456C828.278 695.814 826.939 694.482 825.288 694.482C823.636 694.482 822.297 695.814 822.297 697.456Z" fill="#9871F5"/>
<path d="M801.424 697.456C801.424 699.098 802.763 700.43 804.414 700.43C806.066 700.43 807.405 699.098 807.405 697.456C807.405 695.814 806.066 694.482 804.414 694.482C802.763 694.482 801.424 695.814 801.424 697.456Z" fill="#9871F5"/>
<path d="M926.709 676.686C926.709 678.328 928.047 679.659 929.699 679.659C931.351 679.659 932.689 678.328 932.689 676.686C932.689 675.043 931.351 673.712 929.699 673.712C928.047 673.712 926.709 675.043 926.709 676.686Z" fill="#9871F5"/>
<path d="M905.822 676.685C905.822 678.328 907.16 679.659 908.812 679.659C910.464 679.659 911.802 678.328 911.802 676.685C911.802 675.043 910.464 673.711 908.812 673.711C907.16 673.711 905.822 675.043 905.822 676.685Z" fill="#9871F5"/>
<path d="M884.948 676.685C884.948 678.328 886.287 679.659 887.938 679.659C889.59 679.659 890.929 678.328 890.929 676.685C890.929 675.043 889.59 673.711 887.938 673.711C886.287 673.711 884.948 675.043 884.948 676.685Z" fill="#9871F5"/>
<path d="M864.059 676.685C864.059 678.328 865.398 679.659 867.05 679.659C868.701 679.659 870.04 678.328 870.04 676.685C870.04 675.043 868.701 673.711 867.05 673.711C865.398 673.711 864.059 675.043 864.059 676.685Z" fill="#9871F5"/>
<path d="M843.186 676.685C843.186 678.328 844.525 679.659 846.177 679.659C847.828 679.659 849.167 678.328 849.167 676.685C849.167 675.043 847.828 673.711 846.177 673.711C844.525 673.711 843.186 675.043 843.186 676.685Z" fill="#9871F5"/>
<path d="M822.297 676.685C822.297 678.328 823.636 679.659 825.288 679.659C826.939 679.659 828.278 678.328 828.278 676.685C828.278 675.043 826.939 673.711 825.288 673.711C823.636 673.711 822.297 675.043 822.297 676.685Z" fill="#9871F5"/>
<path d="M801.424 676.685C801.424 678.328 802.763 679.659 804.414 679.659C806.066 679.659 807.405 678.328 807.405 676.685C807.405 675.043 806.066 673.711 804.414 673.711C802.763 673.711 801.424 675.043 801.424 676.685Z" fill="#9871F5"/>
<g clip-path="url(#clip0)">
<path d="M945.023 330.131H905.018C894.373 330.131 889 335.29 889 345.511V400.21C889 401.55 889.721 402.375 891.273 402.375H903.366C904.813 402.375 905.745 401.55 905.745 400.21V398.133C905.745 393.067 907.883 390.306 913.197 389.773H945.023C956.7 389.773 961.973 384.719 961.973 373.674V346.23C961.973 335.185 956.7 330.131 945.023 330.131ZM945.246 369.029C945.246 375.019 943.886 376.254 936.75 376.254H919.8C912.67 376.254 908.118 378.629 905.739 383.274V349.536C905.739 344.891 906.876 343.65 912.559 343.65H936.75C943.886 343.65 945.246 344.891 945.246 350.875V369.029Z" fill="white"/>
<path d="M1000.32 360.37C991.121 360.37 987.19 365.015 987.19 372.86V400.414C987.19 401.655 986.569 402.374 985.122 402.374H974.165C972.718 402.374 971.998 401.655 971.998 400.414V350.05C971.998 348.81 972.718 348.084 974.165 348.084H983.364C984.711 348.084 985.432 348.81 985.432 350.05V358.176C987.19 351.472 992.258 348.061 1001.25 348.061H1004.97C1006.31 348.061 1007.03 348.786 1007.03 350.027V358.41C1007.03 359.75 1006.31 360.37 1004.97 360.37H1000.32Z" fill="white"/>
<path d="M1071.63 387.613C1071.63 397.834 1067.09 402.373 1056.24 402.373H1029.36C1018.61 402.373 1013.96 397.834 1013.96 387.613V362.855C1013.96 352.641 1018.61 348.095 1029.36 348.095H1056.24C1067.09 348.095 1071.63 352.641 1071.63 362.855V387.613ZM1056.44 366.769C1056.44 361.399 1055.41 360.369 1049 360.369H1036.7C1030.19 360.369 1029.15 361.399 1029.15 366.769V383.694C1029.15 389.058 1030.19 390.094 1036.7 390.094H1049C1055.41 390.094 1056.44 389.058 1056.44 383.694V366.769Z" fill="white"/>
<path d="M1086.93 360.37H1081.76C1080.41 360.37 1079.69 359.75 1079.69 358.41V350.05C1079.69 348.81 1080.41 348.085 1081.76 348.085H1086.93V341.38C1086.93 331.16 1092.3 326 1102.95 326H1115.66C1117.11 326 1117.73 326.726 1117.73 327.96V336.32C1117.73 337.666 1117.11 338.28 1115.66 338.28H1108.95C1103.26 338.28 1102.12 339.52 1102.12 344.165V348.085H1115.66C1117.11 348.085 1117.73 348.81 1117.73 350.05V358.41C1117.73 359.75 1117.11 360.37 1115.66 360.37H1102.12V400.415C1102.12 401.655 1101.4 402.375 1099.96 402.375H1089C1087.55 402.375 1086.93 401.655 1086.93 400.415V360.37Z" fill="white"/>
<path d="M1129.1 360.37H1123.94C1122.6 360.37 1121.88 359.75 1121.88 358.41V350.05C1121.88 348.81 1122.6 348.085 1123.94 348.085H1129.12V341.38C1129.1 331.16 1134.49 326 1145.12 326H1157.84C1159.28 326 1159.91 326.726 1159.91 327.96V336.32C1159.91 337.666 1159.28 338.28 1157.84 338.28H1151.12C1145.43 338.28 1144.3 339.52 1144.3 344.165V348.085H1157.84C1159.28 348.085 1159.91 348.81 1159.91 350.05V358.41C1159.91 359.75 1159.28 360.37 1157.84 360.37H1144.3V400.415C1144.3 401.655 1143.57 402.375 1142.12 402.375H1131.17C1129.72 402.375 1129.1 401.655 1129.1 400.415V360.37Z" fill="white"/>
<path d="M1206.1 423.429H1183.57C1173.44 423.429 1169.1 419.51 1169.1 409.804V408.775C1169.07 408.498 1169.11 408.218 1169.2 407.955C1169.29 407.692 1169.44 407.454 1169.64 407.258C1169.84 407.062 1170.08 406.913 1170.34 406.822C1170.61 406.731 1170.89 406.701 1171.17 406.733H1181.71C1183.16 406.733 1183.88 407.458 1183.88 408.798V409.313C1183.88 411.378 1185.02 412.203 1187.3 412.203H1200.32C1206.52 412.203 1208.07 410.658 1208.07 405.393V389.112C1205.69 393.757 1201.15 396.132 1194.01 396.132H1183.46C1172.71 396.132 1167.96 391.593 1167.96 381.372V350.05C1167.94 349.78 1167.99 349.51 1168.09 349.258C1168.19 349.007 1168.34 348.78 1168.54 348.593C1168.73 348.406 1168.97 348.264 1169.22 348.176C1169.48 348.089 1169.75 348.057 1170.02 348.085H1181.09C1182.43 348.085 1183.15 348.81 1183.15 350.05V377.482C1183.15 382.847 1184.29 383.882 1190.7 383.882H1198.56C1205.38 383.882 1208.07 381.092 1208.07 375.417V350.05C1208.07 348.81 1208.79 348.085 1210.13 348.085H1221.2C1221.47 348.059 1221.73 348.093 1221.98 348.183C1222.23 348.272 1222.46 348.416 1222.65 348.604C1222.84 348.792 1222.98 349.02 1223.07 349.27C1223.16 349.52 1223.19 349.786 1223.16 350.05V407.02C1223.16 417.848 1217.37 423.429 1206.1 423.429Z" fill="white"/>
</g>
<path d="M903.691 452.213C903.691 445.072 893.269 448.172 893.269 443.19C893.269 441.114 894.904 440.034 896.983 440.09C899.339 440.117 900.559 441.584 900.725 442.885H903.497C903.192 439.951 900.781 437.931 897.094 437.931C893.269 437.931 890.691 440.09 890.691 443.273C890.691 450.441 901.141 447.12 901.141 452.323C901.141 454.15 899.7 455.534 897.26 455.534C894.572 455.534 893.435 453.929 893.269 452.323H890.58C890.635 455.506 893.38 457.665 897.26 457.665C901.446 457.665 903.691 454.953 903.691 452.213Z" fill="#D4C2FF"/>
<path d="M920.875 442.304H918.352V450.635C918.352 453.901 916.606 455.506 914 455.506C911.45 455.506 909.759 453.929 909.759 450.856V442.304H907.265V451.189C907.265 455.534 910.009 457.693 913.502 457.693C915.525 457.693 917.382 456.807 918.352 455.23V457.471H920.875V442.304Z" fill="#D4C2FF"/>
<path d="M924.191 449.832C924.191 454.538 927.324 457.721 931.371 457.721C934.17 457.721 936.139 456.281 937.053 454.648V457.471H939.603V442.304H937.053V445.072C936.166 443.494 934.226 442.055 931.399 442.055C927.324 442.055 924.191 445.099 924.191 449.832ZM937.053 449.86C937.053 453.43 934.669 455.506 931.897 455.506C929.126 455.506 926.769 453.403 926.769 449.832C926.769 446.262 929.126 444.241 931.897 444.241C934.669 444.241 937.053 446.345 937.053 449.86Z" fill="#D4C2FF"/>
<path d="M953.779 445.099V442.304H951.256V464.668H953.779V454.676C954.721 456.226 956.689 457.721 959.461 457.721C963.536 457.721 966.668 454.538 966.668 449.832C966.668 445.099 963.536 442.055 959.461 442.055C956.689 442.055 954.693 443.494 953.779 445.099ZM964.09 449.832C964.09 453.403 961.734 455.506 958.934 455.506C956.19 455.506 953.779 453.43 953.779 449.86C953.779 446.345 956.19 444.241 958.934 444.241C961.734 444.241 964.09 446.262 964.09 449.832Z" fill="#D4C2FF"/>
<path d="M969.988 457.471H972.511V436.99H969.988V457.471Z" fill="#D4C2FF"/>
<path d="M975.868 449.832C975.868 454.538 979 457.721 983.047 457.721C985.847 457.721 987.815 456.281 988.729 454.648V457.471H991.28V442.304H988.729V445.072C987.842 443.494 985.902 442.055 983.075 442.055C979 442.055 975.868 445.099 975.868 449.832ZM988.729 449.86C988.729 453.43 986.346 455.506 983.574 455.506C980.802 455.506 978.445 453.403 978.445 449.832C978.445 446.262 980.802 444.241 983.574 444.241C986.346 444.241 988.729 446.345 988.729 449.86Z" fill="#D4C2FF"/>
<path d="M996.014 457.471H998.536V444.38H1001.72V442.304H998.536V441.224C998.536 439.259 999.284 438.429 1001.56 438.429V436.325C997.677 436.325 996.014 437.848 996.014 441.224V442.304H994.045V444.38H996.014V457.471Z" fill="#D4C2FF"/>
<path d="M1019.08 449.86C1019.08 445.072 1015.72 442.055 1011.4 442.055C1007.1 442.055 1003.72 445.072 1003.72 449.86C1003.72 454.676 1006.99 457.721 1011.29 457.721C1015.61 457.721 1019.08 454.676 1019.08 449.86ZM1006.3 449.86C1006.3 446.04 1008.71 444.241 1011.37 444.241C1013.98 444.241 1016.5 446.04 1016.5 449.86C1016.5 453.707 1013.92 455.506 1011.29 455.506C1008.66 455.506 1006.3 453.707 1006.3 449.86Z" fill="#D4C2FF"/>
<path d="M1024.92 449.223C1024.92 445.708 1026.75 444.629 1029.16 444.629H1029.82V442.027C1027.41 442.027 1025.78 443.079 1024.92 444.767V442.304H1022.4V457.471H1024.92V449.223Z" fill="#D4C2FF"/>
<path d="M1054.66 457.471H1057.16V448.531C1057.16 444.186 1054.47 442.027 1051 442.027C1048.67 442.027 1046.51 443.217 1045.63 445.404C1044.63 443.134 1042.55 442.027 1040.05 442.027C1038.06 442.027 1036.26 442.885 1035.26 444.49V442.304H1032.74V457.471H1035.26V449.113C1035.26 445.847 1037 444.214 1039.56 444.214C1042.05 444.214 1043.71 445.791 1043.71 448.891V457.471H1046.21V449.113C1046.21 445.847 1047.95 444.214 1050.5 444.214C1053 444.214 1054.66 445.791 1054.66 448.891V457.471Z" fill="#D4C2FF"/>
<path d="M1060.35 449.832C1060.35 454.538 1063.48 457.721 1067.53 457.721C1070.33 457.721 1072.3 456.281 1073.21 454.648V457.471H1075.76V442.304H1073.21V445.072C1072.33 443.494 1070.39 442.055 1067.56 442.055C1063.48 442.055 1060.35 445.099 1060.35 449.832ZM1073.21 449.86C1073.21 453.43 1070.83 455.506 1068.06 455.506C1065.29 455.506 1062.93 453.403 1062.93 449.832C1062.93 446.262 1065.29 444.241 1068.06 444.241C1070.83 444.241 1073.21 446.345 1073.21 449.86Z" fill="#D4C2FF"/>
<path d="M1086.47 449.832C1086.47 454.538 1089.61 457.721 1093.68 457.721C1096.45 457.721 1098.42 456.309 1099.34 454.621V457.471H1101.89V436.99H1099.34V445.016C1098.28 443.273 1096.09 442.055 1093.71 442.055C1089.61 442.055 1086.47 445.099 1086.47 449.832ZM1099.34 449.86C1099.34 453.43 1096.95 455.506 1094.18 455.506C1091.41 455.506 1089.05 453.403 1089.05 449.832C1089.05 446.262 1091.41 444.241 1094.18 444.241C1096.95 444.241 1099.34 446.345 1099.34 449.86Z" fill="#D4C2FF"/>
<path d="M1112.61 444.186C1115.21 444.186 1117.43 445.819 1117.4 448.781H1107.81C1108.09 445.819 1110.14 444.186 1112.61 444.186ZM1119.7 452.794H1116.99C1116.43 454.427 1114.99 455.589 1112.72 455.589C1110.14 455.589 1107.98 453.901 1107.78 450.829H1119.93C1119.98 450.303 1120.01 449.86 1120.01 449.306C1120.01 445.155 1117.13 442.055 1112.72 442.055C1108.28 442.055 1105.21 445.072 1105.21 449.86C1105.21 454.676 1108.39 457.721 1112.72 457.721C1116.49 457.721 1118.93 455.562 1119.7 452.794Z" fill="#D4C2FF"/>
<path d="M897.593 479.552C900.199 479.552 902.416 481.185 902.388 484.147H892.798C893.075 481.185 895.126 479.552 897.593 479.552ZM904.689 488.16H901.973C901.418 489.793 899.977 490.956 897.704 490.956C895.126 490.956 892.964 489.267 892.77 486.195H904.911C904.966 485.669 904.994 485.226 904.994 484.673C904.994 480.521 902.111 477.421 897.704 477.421C893.269 477.421 890.192 480.438 890.192 485.226C890.192 490.042 893.38 493.087 897.704 493.087C901.474 493.087 903.913 490.928 904.689 488.16Z" fill="#D4C2FF"/>
<path d="M919.245 488.714C919.134 483.289 910.319 485.254 910.319 481.656C910.319 480.438 911.428 479.552 913.285 479.552C915.309 479.552 916.473 480.66 916.584 482.182H919.106C918.94 479.22 916.723 477.421 913.369 477.421C909.987 477.421 907.797 479.331 907.797 481.656C907.797 487.302 916.778 485.337 916.778 488.714C916.778 489.959 915.669 490.956 913.673 490.956C911.539 490.956 910.236 489.849 910.098 488.382H907.492C907.658 491.15 910.153 493.087 913.701 493.087C917.055 493.087 919.245 491.205 919.245 488.714Z" fill="#D4C2FF"/>
<path d="M923.36 488.686C923.36 491.731 924.885 492.838 927.574 492.838H929.847V490.707H927.989C926.437 490.707 925.883 490.181 925.883 488.686V479.746H929.847V477.67H925.883V473.851H923.36V477.67H921.392V479.746H923.36V488.686Z" fill="#D4C2FF"/>
<path d="M946.375 477.67H943.852V486.001C943.852 489.267 942.106 490.873 939.5 490.873C936.95 490.873 935.259 489.295 935.259 486.223V477.67H932.764V486.555C932.764 490.9 935.509 493.059 939.001 493.059C941.025 493.059 942.882 492.174 943.852 490.596V492.838H946.375V477.67Z" fill="#D4C2FF"/>
<path d="M949.691 485.199C949.691 489.904 952.823 493.087 956.898 493.087C959.67 493.087 961.638 491.675 962.553 489.987V492.838H965.103V472.356H962.553V480.383C961.5 478.639 959.31 477.421 956.926 477.421C952.823 477.421 949.691 480.466 949.691 485.199ZM962.553 485.226C962.553 488.797 960.169 490.873 957.397 490.873C954.625 490.873 952.269 488.769 952.269 485.199C952.269 481.628 954.625 479.608 957.397 479.608C960.169 479.608 962.553 481.711 962.553 485.226Z" fill="#D4C2FF"/>
<path d="M983.78 485.226C983.78 480.438 980.426 477.421 976.102 477.421C971.805 477.421 968.423 480.438 968.423 485.226C968.423 490.042 971.694 493.087 975.991 493.087C980.315 493.087 983.78 490.042 983.78 485.226ZM971.001 485.226C971.001 481.407 973.413 479.608 976.074 479.608C978.68 479.608 981.202 481.407 981.202 485.226C981.202 489.074 978.624 490.873 975.991 490.873C973.357 490.873 971.001 489.074 971.001 485.226Z" fill="#D4C2FF"/>
<path d="M998.018 488.714C997.907 483.289 989.092 485.254 989.092 481.656C989.092 480.438 990.201 479.552 992.058 479.552C994.082 479.552 995.246 480.66 995.357 482.182H997.879C997.713 479.22 995.496 477.421 992.141 477.421C988.76 477.421 986.57 479.331 986.57 481.656C986.57 487.302 995.551 485.337 995.551 488.714C995.551 489.959 994.442 490.956 992.446 490.956C990.312 490.956 989.009 489.849 988.871 488.382H986.265C986.431 491.15 988.926 493.087 992.474 493.087C995.828 493.087 998.018 491.205 998.018 488.714Z" fill="#D4C2FF"/>
<path d="M1023.38 485.226C1023.38 480.438 1020.03 477.421 1015.7 477.421C1011.41 477.421 1008.03 480.438 1008.03 485.226C1008.03 490.042 1011.3 493.087 1015.59 493.087C1019.92 493.087 1023.38 490.042 1023.38 485.226ZM1010.6 485.226C1010.6 481.407 1013.02 479.608 1015.68 479.608C1018.28 479.608 1020.81 481.407 1020.81 485.226C1020.81 489.074 1018.23 490.873 1015.59 490.873C1012.96 490.873 1010.6 489.074 1010.6 485.226Z" fill="#D4C2FF"/>
<path d="M1037.82 492.838H1040.31V483.898C1040.31 479.552 1037.62 477.394 1034.1 477.394C1032.05 477.394 1030.22 478.252 1029.22 479.829V477.67H1026.7V492.838H1029.22V484.451C1029.22 481.185 1031 479.58 1033.57 479.58C1036.12 479.58 1037.82 481.158 1037.82 484.258V492.838Z" fill="#D4C2FF"/>
<path d="M1044.43 492.838H1046.95V472.356H1044.43V492.838Z" fill="#D4C2FF"/>
<path d="M1051.25 492.838H1053.77V477.67H1051.25V492.838ZM1052.55 475.207C1053.47 475.207 1054.22 474.46 1054.22 473.491C1054.22 472.522 1053.47 471.775 1052.55 471.775C1051.58 471.775 1050.84 472.522 1050.84 473.491C1050.84 474.46 1051.58 475.207 1052.55 475.207Z" fill="#D4C2FF"/>
<path d="M1069.19 492.838H1071.68V483.898C1071.68 479.552 1068.99 477.394 1065.47 477.394C1063.42 477.394 1061.59 478.252 1060.6 479.829V477.67H1058.07V492.838H1060.6V484.451C1060.6 481.185 1062.37 479.58 1064.95 479.58C1067.5 479.58 1069.19 481.158 1069.19 484.258V492.838Z" fill="#D4C2FF"/>
<path d="M1082.26 479.552C1084.87 479.552 1087.09 481.185 1087.06 484.147H1077.47C1077.74 481.185 1079.8 479.552 1082.26 479.552ZM1089.36 488.16H1086.64C1086.09 489.793 1084.65 490.956 1082.37 490.956C1079.8 490.956 1077.63 489.267 1077.44 486.195H1089.58C1089.64 485.669 1089.66 485.226 1089.66 484.673C1089.66 480.521 1086.78 477.421 1082.37 477.421C1077.94 477.421 1074.86 480.438 1074.86 485.226C1074.86 490.042 1078.05 493.087 1082.37 493.087C1086.14 493.087 1088.58 490.928 1089.36 488.16Z" fill="#D4C2FF"/>
<path d="M1095.46 491.288C1095.46 490.319 1094.71 489.572 1093.8 489.572C1092.83 489.572 1092.08 490.319 1092.08 491.288C1092.08 492.257 1092.83 493.004 1093.8 493.004C1094.71 493.004 1095.46 492.257 1095.46 491.288Z" fill="#D4C2FF"/>
<rect x="160" y="517" width="352" height="56" rx="8" fill="#04D361"/>
<path d="M312.598 540.024H321.158V541.768H314.646V544.52H320.454V546.264H314.646V549.256H321.254V551H312.598V540.024ZM323.254 542.584H324.838L324.998 543.704H325.11C325.419 543.288 325.798 542.968 326.246 542.744C326.705 542.509 327.227 542.392 327.814 542.392C328.667 542.392 329.334 542.627 329.814 543.096C330.294 543.555 330.534 544.296 330.534 545.32V551H328.614V545.656C328.614 545.08 328.481 544.669 328.214 544.424C327.958 544.179 327.574 544.056 327.062 544.056C326.529 544.056 326.081 544.248 325.718 544.632C325.355 545.016 325.174 545.507 325.174 546.104V551H323.254V542.584ZM331.763 542.584H333.779L335.155 546.408C335.325 546.877 335.576 547.731 335.907 548.968H335.987C336.285 547.795 336.531 546.941 336.723 546.408L338.083 542.584H340.019L336.899 551H334.883L331.763 542.584ZM341.317 539.432H343.205V541.32H341.317V539.432ZM341.317 542.584H343.237V551H341.317V542.584ZM347.505 551.192C346.822 551.192 346.204 551.027 345.649 550.696C345.105 550.355 344.833 549.731 344.833 548.824C344.833 547.747 345.292 546.989 346.209 546.552C347.126 546.115 348.428 545.896 350.113 545.896V545.192C350.113 544.787 350.006 544.472 349.793 544.248C349.59 544.024 349.217 543.912 348.673 543.912C348.108 543.912 347.708 544.003 347.473 544.184C347.238 544.365 347.121 544.589 347.121 544.856V545.08H345.265C345.254 545.016 345.249 544.899 345.249 544.728C345.249 544.003 345.558 543.432 346.177 543.016C346.806 542.6 347.638 542.392 348.673 542.392C349.793 542.392 350.63 542.621 351.185 543.08C351.75 543.539 352.033 544.195 352.033 545.048V549.064C352.033 549.256 352.086 549.4 352.193 549.496C352.3 549.581 352.433 549.624 352.593 549.624H353.105V550.936C352.764 551.096 352.364 551.176 351.905 551.176C351.489 551.176 351.142 551.075 350.865 550.872C350.588 550.669 350.401 550.392 350.305 550.04H350.193C349.564 550.808 348.668 551.192 347.505 551.192ZM348.081 549.656C348.71 549.656 349.206 549.475 349.569 549.112C349.932 548.749 350.113 548.259 350.113 547.64V547.256C349.078 547.256 348.268 547.357 347.681 547.56C347.094 547.752 346.801 548.109 346.801 548.632C346.801 549.315 347.228 549.656 348.081 549.656ZM354.348 542.584H355.932L356.108 543.912H356.22C356.604 542.899 357.233 542.392 358.108 542.392C358.406 542.392 358.673 542.44 358.908 542.536V544.344H358.3C356.945 544.344 356.268 545.101 356.268 546.616V551H354.348V542.584Z" fill="white"/>
<path d="M177.064 257.836H162.484V283H177.064V278.896H167.524V272.236H175.984V268.24H167.524V261.94H177.064V257.836ZM181.644 283H186.684V263.056H181.644V283ZM184.2 260.68C185.964 260.68 187.296 259.384 187.296 257.728C187.296 256.072 185.964 254.776 184.2 254.776C182.4 254.776 181.104 256.072 181.104 257.728C181.104 259.384 182.4 260.68 184.2 260.68ZM192.456 276.808C192.456 281.38 195.012 283 198.828 283H201.996V278.752H199.656C198.072 278.752 197.532 278.176 197.532 276.844V267.196H201.996V263.056H197.532V258.124H192.456V263.056H190.08V267.196H192.456V276.808ZM204.325 272.956C204.325 279.184 208.357 283.324 213.397 283.324C216.565 283.324 218.833 281.812 220.021 280.084V283H225.097V263.056H220.021V265.9C218.833 264.244 216.637 262.732 213.433 262.732C208.357 262.732 204.325 266.728 204.325 272.956ZM220.021 273.028C220.021 276.808 217.501 278.896 214.729 278.896C212.029 278.896 209.473 276.736 209.473 272.956C209.473 269.176 212.029 267.16 214.729 267.16C217.501 267.16 220.021 269.248 220.021 273.028ZM227.967 288.184H231.243L235.707 277.456H230.379L227.967 288.184ZM256.341 266.872C258.933 266.872 261.021 268.528 261.093 271.156H251.625C252.021 268.42 253.929 266.872 256.341 266.872ZM265.809 276.736H260.373C259.725 278.068 258.537 279.148 256.377 279.148C253.857 279.148 251.841 277.492 251.589 274.54H266.169C266.277 273.892 266.313 273.244 266.313 272.596C266.313 266.656 262.245 262.732 256.485 262.732C250.581 262.732 246.477 266.728 246.477 273.028C246.477 279.292 250.689 283.324 256.485 283.324C261.417 283.324 264.729 280.408 265.809 276.736ZM285.472 277.312C285.328 270.004 274.276 272.272 274.276 268.636C274.276 267.484 275.248 266.728 277.12 266.728C279.1 266.728 280.324 267.772 280.468 269.32H285.292C285.004 265.36 282.088 262.732 277.264 262.732C272.332 262.732 269.38 265.396 269.38 268.708C269.38 276.016 280.648 273.748 280.648 277.312C280.648 278.464 279.568 279.364 277.588 279.364C275.572 279.364 274.168 278.212 273.988 276.7H268.912C269.128 280.408 272.62 283.324 277.624 283.324C282.484 283.324 285.472 280.732 285.472 277.312ZM288.313 272.992C288.313 279.112 292.453 283.288 297.493 283.288C300.517 283.288 302.785 281.848 304.009 280.264V292.504H309.085V263.056H304.009V265.648C302.785 264.1 300.589 262.768 297.601 262.768C292.453 262.768 288.313 266.872 288.313 272.992ZM304.009 273.028C304.009 276.88 301.345 278.896 298.717 278.896C296.125 278.896 293.461 276.844 293.461 272.992C293.461 269.14 296.125 267.16 298.717 267.16C301.345 267.16 304.009 269.176 304.009 273.028ZM332.835 263.056H327.759V274.036C327.759 277.24 326.031 278.968 323.295 278.968C320.631 278.968 318.867 277.24 318.867 274.036V263.056H313.827V274.756C313.827 280.228 317.175 283.252 321.819 283.252C324.303 283.252 326.499 282.172 327.759 280.48V283H332.835V263.056ZM346.376 266.872C348.968 266.872 351.056 268.528 351.128 271.156H341.66C342.056 268.42 343.964 266.872 346.376 266.872ZM355.844 276.736H350.408C349.76 278.068 348.572 279.148 346.412 279.148C343.892 279.148 341.876 277.492 341.624 274.54H356.204C356.312 273.892 356.348 273.244 356.348 272.596C356.348 266.656 352.28 262.732 346.52 262.732C340.616 262.732 336.512 266.728 336.512 273.028C336.512 279.292 340.724 283.324 346.52 283.324C351.452 283.324 354.764 280.408 355.844 276.736ZM358.731 273.028C358.731 279.292 362.835 283.324 368.595 283.324C373.563 283.324 376.911 280.516 377.991 276.268H372.555C371.943 278.068 370.647 279.004 368.559 279.004C365.751 279.004 363.879 276.916 363.879 273.028C363.879 269.14 365.751 267.016 368.559 267.016C370.647 267.016 371.979 268.096 372.555 269.788H377.991C376.911 265.324 373.563 262.732 368.595 262.732C362.835 262.732 358.731 266.764 358.731 273.028ZM390.251 266.872C392.843 266.872 394.931 268.528 395.003 271.156H385.535C385.931 268.42 387.839 266.872 390.251 266.872ZM399.719 276.736H394.283C393.635 278.068 392.447 279.148 390.287 279.148C387.767 279.148 385.751 277.492 385.499 274.54H400.079C400.187 273.892 400.223 273.244 400.223 272.596C400.223 266.656 396.155 262.732 390.395 262.732C384.491 262.732 380.387 266.728 380.387 273.028C380.387 279.292 384.599 283.324 390.395 283.324C395.327 283.324 398.639 280.408 399.719 276.736ZM422.73 263.056H417.654V274.036C417.654 277.24 415.926 278.968 413.19 278.968C410.526 278.968 408.762 277.24 408.762 274.036V263.056H403.722V274.756C403.722 280.228 407.07 283.252 411.714 283.252C414.198 283.252 416.394 282.172 417.654 280.48V283H422.73V263.056ZM177.964 323.312C177.82 316.004 166.768 318.272 166.768 314.636C166.768 313.484 167.74 312.728 169.612 312.728C171.592 312.728 172.816 313.772 172.96 315.32H177.784C177.496 311.36 174.58 308.732 169.756 308.732C164.824 308.732 161.872 311.396 161.872 314.708C161.872 322.016 173.14 319.748 173.14 323.312C173.14 324.464 172.06 325.364 170.08 325.364C168.064 325.364 166.66 324.212 166.48 322.7H161.404C161.62 326.408 165.112 329.324 170.116 329.324C174.976 329.324 177.964 326.732 177.964 323.312ZM200.929 309.056H195.853V320.036C195.853 323.24 194.125 324.968 191.389 324.968C188.725 324.968 186.961 323.24 186.961 320.036V309.056H181.921V320.756C181.921 326.228 185.269 329.252 189.913 329.252C192.397 329.252 194.593 328.172 195.853 326.48V329H200.929V309.056ZM204.606 318.956C204.606 325.184 208.638 329.324 213.678 329.324C216.846 329.324 219.114 327.812 220.302 326.084V329H225.378V309.056H220.302V311.9C219.114 310.244 216.918 308.732 213.714 308.732C208.638 308.732 204.606 312.728 204.606 318.956ZM220.302 319.028C220.302 322.808 217.782 324.896 215.01 324.896C212.31 324.896 209.754 322.736 209.754 318.956C209.754 315.176 212.31 313.16 215.01 313.16C217.782 313.16 220.302 315.248 220.302 319.028ZM254.359 323.312C254.215 316.004 243.163 318.272 243.163 314.636C243.163 313.484 244.135 312.728 246.007 312.728C247.987 312.728 249.211 313.772 249.355 315.32H254.179C253.891 311.36 250.975 308.732 246.151 308.732C241.219 308.732 238.267 311.396 238.267 314.708C238.267 322.016 249.535 319.748 249.535 323.312C249.535 324.464 248.455 325.364 246.475 325.364C244.459 325.364 243.055 324.212 242.875 322.7H237.799C238.015 326.408 241.507 329.324 246.511 329.324C251.371 329.324 254.359 326.732 254.359 323.312ZM267.064 312.872C269.656 312.872 271.744 314.528 271.816 317.156H262.348C262.744 314.42 264.652 312.872 267.064 312.872ZM276.532 322.736H271.096C270.448 324.068 269.26 325.148 267.1 325.148C264.58 325.148 262.564 323.492 262.312 320.54H276.892C277 319.892 277.036 319.244 277.036 318.596C277.036 312.656 272.968 308.732 267.208 308.732C261.304 308.732 257.2 312.728 257.2 319.028C257.2 325.292 261.412 329.324 267.208 329.324C272.14 329.324 275.452 326.408 276.532 322.736ZM294.682 329H299.722V317.3C299.722 311.792 296.41 308.768 291.766 308.768C289.21 308.768 287.05 309.848 285.754 311.54V309.056H280.714V329H285.754V317.984C285.754 314.78 287.518 313.052 290.254 313.052C292.918 313.052 294.682 314.78 294.682 317.984V329ZM304.515 329H309.555V317.984C309.555 314.78 311.319 313.052 314.055 313.052C316.719 313.052 318.483 314.78 318.483 317.984V329H323.523V317.3C323.523 311.792 320.247 308.768 315.747 308.768C313.083 308.768 310.851 309.848 309.555 311.54V302.36H304.515V329ZM327.02 318.956C327.02 325.184 331.052 329.324 336.092 329.324C339.26 329.324 341.528 327.812 342.716 326.084V329H347.792V309.056H342.716V311.9C341.528 310.244 339.332 308.732 336.128 308.732C331.052 308.732 327.02 312.728 327.02 318.956ZM342.716 319.028C342.716 322.808 340.196 324.896 337.424 324.896C334.724 324.896 332.168 322.736 332.168 318.956C332.168 315.176 334.724 313.16 337.424 313.16C340.196 313.16 342.716 315.248 342.716 319.028ZM351.49 310.604H356.242C356.242 308.48 357.538 307.22 359.734 307.22C361.858 307.22 363.154 308.516 363.154 310.604C363.19 313.844 360.382 314.528 356.638 314.528H355.018L355.198 320.648H359.626L359.77 317.876C364.558 317.876 368.05 315.5 368.05 310.64C368.05 305.78 364.63 303.008 359.734 303.008C354.478 303.008 351.418 306.248 351.49 310.604ZM360.454 326.3C360.454 324.644 359.158 323.348 357.394 323.348C355.558 323.348 354.262 324.644 354.262 326.3C354.262 327.956 355.558 329.252 357.394 329.252C359.158 329.252 360.454 327.956 360.454 326.3Z" fill="#32264D"/>
<path d="M160.5 429C160.5 424.858 163.858 421.5 168 421.5H504C508.142 421.5 511.5 424.858 511.5 429V485C511.5 489.142 508.142 492.5 504 492.5H168C163.858 492.5 160.5 489.142 160.5 485V429Z" fill="#FAFAFC" stroke="#E6E6F0"/>
<path d="M189.424 440.624H184.924V449H189.424V448.1H186.016V445.22H189.064V444.32H186.016V441.524H189.424V440.624ZM190.848 445.064H195.636V444.14H190.848V445.064ZM207.178 449H208.258V445.124C208.258 443.24 207.094 442.304 205.594 442.304C204.586 442.304 203.65 442.82 203.266 443.768C202.834 442.784 201.934 442.304 200.854 442.304C199.99 442.304 199.21 442.676 198.778 443.372V442.424H197.686V449H198.778V445.376C198.778 443.96 199.534 443.252 200.638 443.252C201.718 443.252 202.438 443.936 202.438 445.28V449H203.518V445.376C203.518 443.96 204.274 443.252 205.378 443.252C206.458 443.252 207.178 443.936 207.178 445.28V449ZM209.641 445.688C209.641 447.728 210.997 449.108 212.749 449.108C213.961 449.108 214.813 448.484 215.209 447.776V449H216.313V442.424H215.209V443.624C214.825 442.94 213.985 442.316 212.761 442.316C210.997 442.316 209.641 443.636 209.641 445.688ZM215.209 445.7C215.209 447.248 214.177 448.148 212.977 448.148C211.777 448.148 210.757 447.236 210.757 445.688C210.757 444.14 211.777 443.264 212.977 443.264C214.177 443.264 215.209 444.176 215.209 445.7ZM218.158 449H219.25V442.424H218.158V449ZM218.722 441.356C219.118 441.356 219.442 441.032 219.442 440.612C219.442 440.192 219.118 439.868 218.722 439.868C218.302 439.868 217.978 440.192 217.978 440.612C217.978 441.032 218.302 441.356 218.722 441.356ZM221.112 449H222.204V440.12H221.112V449Z" fill="#C1BCCC"/>
<path d="M185.552 470.6C185.552 472.36 186.432 473 187.984 473H189.296V471.768H188.224C187.328 471.768 187.008 471.464 187.008 470.6V465.432H189.296V464.232H187.008V462.024H185.552V464.232H184.416V465.432H185.552V470.6ZM191.06 473H192.516V464.232H191.06V473ZM191.812 462.808C192.34 462.808 192.772 462.376 192.772 461.816C192.772 461.256 192.34 460.824 191.812 460.824C191.252 460.824 190.82 461.256 190.82 461.816C190.82 462.376 191.252 462.808 191.812 462.808ZM194.454 468.584C194.454 471.304 196.262 473.144 198.598 473.144C200.214 473.144 201.35 472.312 201.878 471.368V473H203.35V464.232H201.878V465.832C201.366 464.92 200.246 464.088 198.614 464.088C196.262 464.088 194.454 465.848 194.454 468.584ZM201.878 468.6C201.878 470.664 200.502 471.864 198.902 471.864C197.302 471.864 195.942 470.648 195.942 468.584C195.942 466.52 197.302 465.352 198.902 465.352C200.502 465.352 201.878 466.568 201.878 468.6ZM205.266 468.584C205.266 471.304 207.074 473.144 209.426 473.144C211.026 473.144 212.162 472.296 212.69 471.352V473.192C212.69 475.064 211.522 476.056 209.97 476.056C208.53 476.056 207.49 475.336 207.17 474.28H205.73C206.018 476.152 207.666 477.32 209.97 477.32C212.546 477.32 214.162 475.608 214.162 473.192V464.232H212.69V465.832C212.178 464.888 211.026 464.088 209.426 464.088C207.074 464.088 205.266 465.848 205.266 468.584ZM212.69 468.6C212.69 470.664 211.314 471.864 209.714 471.864C208.114 471.864 206.754 470.648 206.754 468.584C206.754 466.52 208.114 465.352 209.714 465.352C211.314 465.352 212.69 466.568 212.69 468.6ZM224.943 468.6C224.943 465.832 223.007 464.088 220.511 464.088C218.031 464.088 216.079 465.832 216.079 468.6C216.079 471.384 217.967 473.144 220.447 473.144C222.943 473.144 224.943 471.384 224.943 468.6ZM217.567 468.6C217.567 466.392 218.959 465.352 220.495 465.352C221.999 465.352 223.455 466.392 223.455 468.6C223.455 470.824 221.967 471.864 220.447 471.864C218.927 471.864 217.567 470.824 217.567 468.6ZM226.857 473H228.313V461.16H226.857V473ZM238.571 464.232H237.115V469.048C237.115 470.936 236.107 471.864 234.603 471.864C233.131 471.864 232.155 470.952 232.155 469.176V464.232H230.715V469.368C230.715 471.88 232.299 473.128 234.315 473.128C235.483 473.128 236.555 472.616 237.115 471.704V473H238.571V464.232ZM240.485 468.6C240.485 471.384 242.261 473.144 244.757 473.144C246.933 473.144 248.357 471.928 248.805 470.184H247.237C246.917 471.288 246.053 471.912 244.757 471.912C243.157 471.912 241.973 470.776 241.973 468.6C241.973 466.456 243.157 465.32 244.757 465.32C246.053 465.32 246.933 465.992 247.237 467.048H248.805C248.357 465.208 246.933 464.088 244.757 464.088C242.261 464.088 240.485 465.848 240.485 468.6ZM250.748 473H252.204V468.152C252.204 466.264 253.228 465.336 254.716 465.336C256.188 465.336 257.164 466.248 257.164 468.04V473H258.604V467.832C258.604 465.32 257.052 464.072 255.1 464.072C253.868 464.072 252.78 464.568 252.204 465.496V461.16H250.748V473ZM261.302 470.6C261.302 472.36 262.182 473 263.734 473H265.046V471.768H263.974C263.078 471.768 262.758 471.464 262.758 470.6V465.432H265.046V464.232H262.758V462.024H261.302V464.232H260.166V465.432H261.302V470.6ZM270.538 465.32C272.042 465.32 273.322 466.264 273.306 467.976H267.77C267.93 466.264 269.114 465.32 270.538 465.32ZM274.634 470.296H273.066C272.746 471.24 271.914 471.912 270.602 471.912C269.114 471.912 267.866 470.936 267.754 469.16H274.762C274.794 468.856 274.81 468.6 274.81 468.28C274.81 465.88 273.146 464.088 270.602 464.088C268.042 464.088 266.266 465.832 266.266 468.6C266.266 471.384 268.106 473.144 270.602 473.144C272.778 473.144 274.186 471.896 274.634 470.296ZM283.148 473H284.588V467.832C284.588 465.32 283.036 464.072 281.004 464.072C279.82 464.072 278.764 464.568 278.188 465.48V464.232H276.732V473H278.188V468.152C278.188 466.264 279.212 465.336 280.7 465.336C282.172 465.336 283.148 466.248 283.148 468.04V473ZM288.422 465.864V461.16H286.966V473H288.422V471.384C288.966 472.344 290.102 473.144 291.702 473.144C294.054 473.144 295.862 471.304 295.862 468.584C295.862 465.848 294.07 464.088 291.702 464.088C290.15 464.088 288.982 464.888 288.422 465.864ZM294.374 468.584C294.374 470.648 293.014 471.864 291.398 471.864C289.814 471.864 288.422 470.664 288.422 468.6C288.422 466.568 289.814 465.352 291.398 465.352C293.014 465.352 294.374 466.52 294.374 468.584ZM301.507 465.32C303.011 465.32 304.291 466.264 304.275 467.976H298.739C298.899 466.264 300.083 465.32 301.507 465.32ZM305.603 470.296H304.035C303.715 471.24 302.883 471.912 301.571 471.912C300.083 471.912 298.835 470.936 298.723 469.16H305.731C305.763 468.856 305.779 468.6 305.779 468.28C305.779 465.88 304.115 464.088 301.571 464.088C299.011 464.088 297.235 465.832 297.235 468.6C297.235 471.384 299.075 473.144 301.571 473.144C303.747 473.144 305.155 471.896 305.603 470.296ZM309.157 468.232C309.157 466.2 310.213 465.576 311.605 465.576H311.989V464.072C310.597 464.072 309.653 464.68 309.157 465.656V464.232H307.701V473H309.157V468.232ZM313.126 468.584C313.126 471.304 314.934 473.144 317.286 473.144C318.886 473.144 320.022 472.296 320.55 471.352V473.192C320.55 475.064 319.382 476.056 317.83 476.056C316.39 476.056 315.35 475.336 315.03 474.28H313.59C313.878 476.152 315.526 477.32 317.83 477.32C320.406 477.32 322.022 475.608 322.022 473.192V464.232H320.55V465.832C320.038 464.888 318.886 464.088 317.286 464.088C314.934 464.088 313.126 465.848 313.126 468.584ZM320.55 468.6C320.55 470.664 319.174 471.864 317.574 471.864C315.974 471.864 314.614 470.648 314.614 468.584C314.614 466.52 315.974 465.352 317.574 465.352C319.174 465.352 320.55 466.568 320.55 468.6ZM334.818 473.112C337.042 473.112 338.29 470.552 338.29 468.088C338.29 464.92 336.098 462.744 332.482 462.744C327.778 462.744 324.402 466.312 324.402 470.872C324.402 474.12 326.69 476.184 330.146 476.184C331.25 476.184 332.322 475.992 333.282 475.592L333.09 474.6C332.274 474.984 331.314 475.144 330.434 475.144C327.426 475.144 325.602 473.592 325.618 470.744C325.618 466.824 328.434 463.768 332.306 463.768C335.362 463.768 337.106 465.384 337.106 468.168C337.106 469.848 336.418 472.12 335.042 472.12C334.226 472.12 334.098 471.512 334.242 470.6L335.042 465.976H333.778L333.602 466.968C333.25 466.2 332.562 465.816 331.554 465.816C329.218 465.816 327.618 467.976 327.618 470.36C327.618 472.024 328.578 473.112 330.226 473.112C331.346 473.112 332.434 472.552 333.09 471.624C333.17 472.52 333.73 473.112 334.818 473.112ZM333.282 469.048C333.186 470.696 332.066 471.976 330.658 471.976C329.538 471.976 328.978 471.224 328.978 470.136C328.978 468.552 329.954 466.936 331.554 466.936C332.802 466.936 333.378 467.88 333.282 469.048ZM340.141 468.584C340.141 471.304 341.949 473.144 344.301 473.144C345.901 473.144 347.037 472.296 347.565 471.352V473.192C347.565 475.064 346.397 476.056 344.845 476.056C343.405 476.056 342.365 475.336 342.045 474.28H340.605C340.893 476.152 342.541 477.32 344.845 477.32C347.421 477.32 349.037 475.608 349.037 473.192V464.232H347.565V465.832C347.053 464.888 345.901 464.088 344.301 464.088C341.949 464.088 340.141 465.848 340.141 468.584ZM347.565 468.6C347.565 470.664 346.189 471.864 344.589 471.864C342.989 471.864 341.629 470.648 341.629 468.584C341.629 466.52 342.989 465.352 344.589 465.352C346.189 465.352 347.565 466.568 347.565 468.6ZM364.154 473H365.594V467.832C365.594 465.32 364.042 464.072 362.042 464.072C360.698 464.072 359.45 464.76 358.938 466.024C358.362 464.712 357.162 464.072 355.722 464.072C354.57 464.072 353.53 464.568 352.954 465.496V464.232H351.498V473H352.954V468.168C352.954 466.28 353.962 465.336 355.434 465.336C356.874 465.336 357.834 466.248 357.834 468.04V473H359.274V468.168C359.274 466.28 360.282 465.336 361.754 465.336C363.194 465.336 364.154 466.248 364.154 468.04V473ZM367.438 468.584C367.438 471.304 369.246 473.144 371.582 473.144C373.198 473.144 374.334 472.312 374.862 471.368V473H376.334V464.232H374.862V465.832C374.35 464.92 373.23 464.088 371.598 464.088C369.246 464.088 367.438 465.848 367.438 468.584ZM374.862 468.6C374.862 470.664 373.486 471.864 371.886 471.864C370.286 471.864 368.926 470.648 368.926 468.584C368.926 466.52 370.286 465.352 371.886 465.352C373.486 465.352 374.862 466.568 374.862 468.6ZM378.795 473H380.251V464.232H378.795V473ZM379.547 462.808C380.075 462.808 380.507 462.376 380.507 461.816C380.507 461.256 380.075 460.824 379.547 460.824C378.987 460.824 378.555 461.256 378.555 461.816C378.555 462.376 378.987 462.808 379.547 462.808ZM382.732 473H384.188V461.16H382.732V473ZM388.094 472.104C388.094 471.544 387.662 471.112 387.134 471.112C386.574 471.112 386.142 471.544 386.142 472.104C386.142 472.664 386.574 473.096 387.134 473.096C387.662 473.096 388.094 472.664 388.094 472.104ZM389.485 468.6C389.485 471.384 391.261 473.144 393.757 473.144C395.933 473.144 397.357 471.928 397.805 470.184H396.237C395.917 471.288 395.053 471.912 393.757 471.912C392.157 471.912 390.973 470.776 390.973 468.6C390.973 466.456 392.157 465.32 393.757 465.32C395.053 465.32 395.933 465.992 396.237 467.048H397.805C397.357 465.208 395.933 464.088 393.757 464.088C391.261 464.088 389.485 465.848 389.485 468.6ZM408.068 468.6C408.068 465.832 406.132 464.088 403.636 464.088C401.156 464.088 399.204 465.832 399.204 468.6C399.204 471.384 401.092 473.144 403.572 473.144C406.068 473.144 408.068 471.384 408.068 468.6ZM400.692 468.6C400.692 466.392 402.084 465.352 403.62 465.352C405.124 465.352 406.58 466.392 406.58 468.6C406.58 470.824 405.092 471.864 403.572 471.864C402.052 471.864 400.692 470.824 400.692 468.6ZM422.638 473H424.078V467.832C424.078 465.32 422.526 464.072 420.526 464.072C419.182 464.072 417.934 464.76 417.422 466.024C416.846 464.712 415.646 464.072 414.206 464.072C413.054 464.072 412.014 464.568 411.438 465.496V464.232H409.982V473H411.438V468.168C411.438 466.28 412.446 465.336 413.918 465.336C415.358 465.336 416.318 466.248 416.318 468.04V473H417.758V468.168C417.758 466.28 418.766 465.336 420.238 465.336C421.678 465.336 422.638 466.248 422.638 468.04V473Z" fill="#6A6180"/>
<path d="M168.544 362.832V371.696L162.688 362.832H161.232V374H162.688V365.12L168.544 374H170V362.832H168.544ZM171.938 369.584C171.938 372.304 173.746 374.144 176.082 374.144C177.698 374.144 178.834 373.312 179.362 372.368V374H180.834V365.232H179.362V366.832C178.85 365.92 177.73 365.088 176.098 365.088C173.746 365.088 171.938 366.848 171.938 369.584ZM179.362 369.6C179.362 371.664 177.986 372.864 176.386 372.864C174.786 372.864 173.426 371.648 173.426 369.584C173.426 367.52 174.786 366.352 176.386 366.352C177.986 366.352 179.362 367.568 179.362 369.6ZM174.322 364.288H175.17C175.234 363.808 175.506 363.584 175.858 363.584C176.498 363.584 176.818 364.32 177.682 364.32C178.514 364.32 179.154 363.744 179.282 362.656H178.45C178.386 363.12 178.098 363.344 177.746 363.344C177.09 363.344 176.77 362.608 175.922 362.608C175.09 362.608 174.482 363.184 174.322 364.288ZM191.615 369.6C191.615 366.832 189.679 365.088 187.183 365.088C184.703 365.088 182.751 366.832 182.751 369.6C182.751 372.384 184.639 374.144 187.119 374.144C189.615 374.144 191.615 372.384 191.615 369.6ZM184.239 369.6C184.239 367.392 185.631 366.352 187.167 366.352C188.671 366.352 190.127 367.392 190.127 369.6C190.127 371.824 188.639 372.864 187.119 372.864C185.599 372.864 184.239 371.824 184.239 369.6ZM201.523 366.32C203.027 366.32 204.307 367.264 204.291 368.976H198.755C198.914 367.264 200.099 366.32 201.523 366.32ZM205.619 371.296H204.051C203.731 372.24 202.899 372.912 201.587 372.912C200.099 372.912 198.851 371.936 198.739 370.16H205.747C205.779 369.856 205.795 369.6 205.795 369.28C205.795 366.88 204.131 365.088 201.587 365.088C199.027 365.088 197.251 366.832 197.251 369.6C197.251 372.384 199.091 374.144 201.587 374.144C203.763 374.144 205.171 372.896 205.619 371.296ZM214.02 371.616C213.956 368.48 208.868 369.616 208.868 367.536C208.868 366.832 209.508 366.32 210.58 366.32C211.748 366.32 212.42 366.96 212.484 367.84H213.94C213.844 366.128 212.564 365.088 210.628 365.088C208.676 365.088 207.412 366.192 207.412 367.536C207.412 370.8 212.596 369.664 212.596 371.616C212.596 372.336 211.956 372.912 210.804 372.912C209.572 372.912 208.82 372.272 208.74 371.424H207.236C207.332 373.024 208.772 374.144 210.82 374.144C212.756 374.144 214.02 373.056 214.02 371.616ZM215.532 369.584C215.532 372.304 217.34 374.144 219.66 374.144C221.292 374.144 222.46 373.28 222.956 372.384V378.16H224.428V365.232H222.956V366.832C222.46 365.92 221.308 365.088 219.708 365.088C217.34 365.088 215.532 366.848 215.532 369.584ZM222.956 369.6C222.956 371.664 221.58 372.864 219.98 372.864C218.38 372.864 217.02 371.648 217.02 369.584C217.02 367.52 218.38 366.352 219.98 366.352C221.58 366.352 222.956 367.568 222.956 369.6ZM234.664 365.232H233.208V370.048C233.208 371.936 232.2 372.864 230.696 372.864C229.224 372.864 228.248 371.952 228.248 370.176V365.232H226.808V370.368C226.808 372.88 228.392 374.128 230.408 374.128C231.576 374.128 232.648 373.616 233.208 372.704V374H234.664V365.232ZM240.851 366.32C242.355 366.32 243.635 367.264 243.619 368.976H238.083C238.243 367.264 239.427 366.32 240.851 366.32ZM244.947 371.296H243.379C243.059 372.24 242.227 372.912 240.915 372.912C239.427 372.912 238.179 371.936 238.067 370.16H245.075C245.107 369.856 245.123 369.6 245.123 369.28C245.123 366.88 243.459 365.088 240.915 365.088C238.355 365.088 236.579 366.832 236.579 369.6C236.579 372.384 238.419 374.144 240.915 374.144C243.091 374.144 244.499 372.896 244.947 371.296ZM253.461 374H254.901V368.832C254.901 366.32 253.349 365.072 251.317 365.072C250.133 365.072 249.077 365.568 248.501 366.48V365.232H247.045V374H248.501V369.152C248.501 367.264 249.525 366.336 251.013 366.336C252.485 366.336 253.461 367.248 253.461 369.04V374ZM257.599 371.6C257.599 373.36 258.479 374 260.031 374H261.343V372.768H260.271C259.375 372.768 259.055 372.464 259.055 371.6V366.432H261.343V365.232H259.055V363.024H257.599V365.232H256.463V366.432H257.599V371.6ZM262.563 369.584C262.563 372.304 264.371 374.144 266.707 374.144C268.323 374.144 269.459 373.312 269.987 372.368V374H271.459V365.232H269.987V366.832C269.475 365.92 268.355 365.088 266.723 365.088C264.371 365.088 262.563 366.848 262.563 369.584ZM269.987 369.6C269.987 371.664 268.611 372.864 267.011 372.864C265.411 372.864 264.051 371.648 264.051 369.584C264.051 367.52 265.411 366.352 267.011 366.352C268.611 366.352 269.987 367.568 269.987 369.6ZM272.655 376.288H273.632L275.424 371.984H273.824L272.655 376.288ZM280.317 365.232L283.757 374H285.453L288.893 365.232H287.341L284.621 372.656L281.885 365.232H280.317ZM289.782 369.584C289.782 372.304 291.59 374.144 293.926 374.144C295.542 374.144 296.678 373.312 297.206 372.368V374H298.678V365.232H297.206V366.832C296.694 365.92 295.574 365.088 293.942 365.088C291.59 365.088 289.782 366.848 289.782 369.584ZM297.206 369.6C297.206 371.664 295.83 372.864 294.23 372.864C292.63 372.864 291.27 371.648 291.27 369.584C291.27 367.52 292.63 366.352 294.23 366.352C295.83 366.352 297.206 367.568 297.206 369.6ZM313.794 374H315.234V368.832C315.234 366.32 313.682 365.072 311.682 365.072C310.338 365.072 309.09 365.76 308.578 367.024C308.002 365.712 306.802 365.072 305.362 365.072C304.21 365.072 303.17 365.568 302.594 366.496V365.232H301.138V374H302.594V369.168C302.594 367.28 303.602 366.336 305.074 366.336C306.514 366.336 307.474 367.248 307.474 369.04V374H308.914V369.168C308.914 367.28 309.922 366.336 311.394 366.336C312.834 366.336 313.794 367.248 313.794 369.04V374ZM325.943 369.6C325.943 366.832 324.007 365.088 321.511 365.088C319.031 365.088 317.079 366.832 317.079 369.6C317.079 372.384 318.967 374.144 321.447 374.144C323.943 374.144 325.943 372.384 325.943 369.6ZM318.567 369.6C318.567 367.392 319.959 366.352 321.495 366.352C322.999 366.352 324.455 367.392 324.455 369.6C324.455 371.824 322.967 372.864 321.447 372.864C319.927 372.864 318.567 371.824 318.567 369.6ZM334.161 371.616C334.097 368.48 329.009 369.616 329.009 367.536C329.009 366.832 329.649 366.32 330.721 366.32C331.889 366.32 332.561 366.96 332.625 367.84H334.081C333.985 366.128 332.705 365.088 330.769 365.088C328.817 365.088 327.553 366.192 327.553 367.536C327.553 370.8 332.737 369.664 332.737 371.616C332.737 372.336 332.097 372.912 330.945 372.912C329.713 372.912 328.961 372.272 328.881 371.424H327.377C327.473 373.024 328.913 374.144 330.961 374.144C332.897 374.144 334.161 373.056 334.161 371.616ZM339.938 369.584C339.938 372.304 341.746 374.144 344.098 374.144C345.698 374.144 346.834 373.328 347.362 372.352V374H348.834V362.16H347.362V366.8C346.754 365.792 345.49 365.088 344.114 365.088C341.746 365.088 339.938 366.848 339.938 369.584ZM347.362 369.6C347.362 371.664 345.986 372.864 344.386 372.864C342.786 372.864 341.426 371.648 341.426 369.584C341.426 367.52 342.786 366.352 344.386 366.352C345.986 366.352 347.362 367.568 347.362 369.6ZM350.751 369.584C350.751 372.304 352.559 374.144 354.895 374.144C356.511 374.144 357.647 373.312 358.175 372.368V374H359.647V365.232H358.175V366.832C357.663 365.92 356.543 365.088 354.911 365.088C352.559 365.088 350.751 366.848 350.751 369.584ZM358.175 369.6C358.175 371.664 356.799 372.864 355.199 372.864C353.599 372.864 352.239 371.648 352.239 369.584C352.239 367.52 353.599 366.352 355.199 366.352C356.799 366.352 358.175 367.568 358.175 369.6ZM363.563 369.232C363.563 367.2 364.619 366.576 366.011 366.576H366.395V365.072C365.003 365.072 364.059 365.68 363.563 366.656V365.232H362.107V374H363.563V369.232ZM380.117 365.232H378.661V370.048C378.661 371.936 377.653 372.864 376.149 372.864C374.677 372.864 373.701 371.952 373.701 370.176V365.232H372.261V370.368C372.261 372.88 373.845 374.128 375.861 374.128C377.029 374.128 378.101 373.616 378.661 372.704V374H380.117V365.232ZM395.232 374H396.672V368.832C396.672 366.32 395.12 365.072 393.12 365.072C391.776 365.072 390.528 365.76 390.016 367.024C389.44 365.712 388.24 365.072 386.8 365.072C385.648 365.072 384.608 365.568 384.032 366.496V365.232H382.576V374H384.032V369.168C384.032 367.28 385.04 366.336 386.512 366.336C387.952 366.336 388.912 367.248 388.912 369.04V374H390.352V369.168C390.352 367.28 391.36 366.336 392.832 366.336C394.272 366.336 395.232 367.248 395.232 369.04V374ZM402.782 369.584C402.782 372.304 404.59 374.144 406.942 374.144C408.542 374.144 409.678 373.296 410.206 372.352V374.192C410.206 376.064 409.038 377.056 407.486 377.056C406.046 377.056 405.006 376.336 404.686 375.28H403.246C403.534 377.152 405.182 378.32 407.486 378.32C410.062 378.32 411.678 376.608 411.678 374.192V365.232H410.206V366.832C409.694 365.888 408.542 365.088 406.942 365.088C404.59 365.088 402.782 366.848 402.782 369.584ZM410.206 369.6C410.206 371.664 408.83 372.864 407.23 372.864C405.63 372.864 404.27 371.648 404.27 369.584C404.27 367.52 405.63 366.352 407.23 366.352C408.83 366.352 410.206 367.568 410.206 369.6ZM417.866 366.32C419.37 366.32 420.65 367.264 420.634 368.976H415.098C415.258 367.264 416.442 366.32 417.866 366.32ZM421.962 371.296H420.394C420.074 372.24 419.242 372.912 417.93 372.912C416.442 372.912 415.194 371.936 415.082 370.16H422.09C422.122 369.856 422.138 369.6 422.138 369.28C422.138 366.88 420.474 365.088 417.93 365.088C415.37 365.088 413.594 366.832 413.594 369.6C413.594 372.384 415.434 374.144 417.93 374.144C420.106 374.144 421.514 372.896 421.962 371.296ZM424.06 374H425.516V365.232H424.06V374ZM424.812 363.808C425.34 363.808 425.772 363.376 425.772 362.816C425.772 362.256 425.34 361.824 424.812 361.824C424.252 361.824 423.82 362.256 423.82 362.816C423.82 363.376 424.252 363.808 424.812 363.808ZM428.318 371.6C428.318 373.36 429.198 374 430.75 374H432.062V372.768H430.99C430.094 372.768 429.774 372.464 429.774 371.6V366.432H432.062V365.232H429.774V363.024H428.318V365.232H427.182V366.432H428.318V371.6ZM442.146 369.6C442.146 366.832 440.21 365.088 437.714 365.088C435.234 365.088 433.282 366.832 433.282 369.6C433.282 372.384 435.17 374.144 437.65 374.144C440.146 374.144 442.146 372.384 442.146 369.6ZM434.77 369.6C434.77 367.392 436.162 366.352 437.698 366.352C439.202 366.352 440.658 367.392 440.658 369.6C440.658 371.824 439.17 372.864 437.65 372.864C436.13 372.864 434.77 371.824 434.77 369.6ZM454.742 374H456.182V368.832C456.182 366.32 454.63 365.072 452.598 365.072C451.414 365.072 450.358 365.568 449.782 366.48V365.232H448.326V374H449.782V369.152C449.782 367.264 450.806 366.336 452.294 366.336C453.766 366.336 454.742 367.248 454.742 369.04V374ZM458.56 374H460.016V365.232H458.56V374ZM459.312 363.808C459.84 363.808 460.272 363.376 460.272 362.816C460.272 362.256 459.84 361.824 459.312 361.824C458.752 361.824 458.32 362.256 458.32 362.816C458.32 363.376 458.752 363.808 459.312 363.808ZM468.802 371.616C468.738 368.48 463.65 369.616 463.65 367.536C463.65 366.832 464.29 366.32 465.362 366.32C466.53 366.32 467.202 366.96 467.266 367.84H468.722C468.626 366.128 467.346 365.088 465.41 365.088C463.458 365.088 462.194 366.192 462.194 367.536C462.194 370.8 467.378 369.664 467.378 371.616C467.378 372.336 466.738 372.912 465.586 372.912C464.354 372.912 463.602 372.272 463.522 371.424H462.018C462.114 373.024 463.554 374.144 465.602 374.144C467.538 374.144 468.802 373.056 468.802 371.616ZM477.161 371.616C477.097 368.48 472.009 369.616 472.009 367.536C472.009 366.832 472.649 366.32 473.721 366.32C474.889 366.32 475.561 366.96 475.625 367.84H477.081C476.985 366.128 475.705 365.088 473.769 365.088C471.817 365.088 470.553 366.192 470.553 367.536C470.553 370.8 475.737 369.664 475.737 371.616C475.737 372.336 475.097 372.912 473.945 372.912C472.713 372.912 471.961 372.272 471.881 371.424H470.377C470.473 373.024 471.913 374.144 473.961 374.144C475.897 374.144 477.161 373.056 477.161 371.616ZM487.536 369.6C487.536 366.832 485.6 365.088 483.104 365.088C480.624 365.088 478.672 366.832 478.672 369.6C478.672 372.384 480.56 374.144 483.04 374.144C485.536 374.144 487.536 372.384 487.536 369.6ZM480.16 369.6C480.16 367.392 481.552 366.352 483.088 366.352C484.592 366.352 486.048 367.392 486.048 369.6C486.048 371.824 484.56 372.864 483.04 372.864C481.52 372.864 480.16 371.824 480.16 369.6ZM490.875 373.104C490.875 372.544 490.443 372.112 489.915 372.112C489.355 372.112 488.923 372.544 488.923 373.104C488.923 373.664 489.355 374.096 489.915 374.096C490.443 374.096 490.875 373.664 490.875 373.104Z" fill="#6A6180"/>
<g clip-path="url(#clip1)">
<path d="M162 32H208" stroke="#8257E5" stroke-width="1.5" stroke-linecap="round" stroke-linejoin="round"/>
<path d="M166.001 37.001L161 32L166.001 26.999" stroke="#8257E5" stroke-width="1.5" stroke-linecap="round" stroke-linejoin="round"/>
</g>
<defs>
<clipPath id="clip0">
<rect width="334.173" height="97.6421" fill="white" transform="translate(889 326)"/>
</clipPath>
<clipPath id="clip1">
<rect width="32" height="49" fill="white" transform="translate(209 16) rotate(90)"/>
</clipPath>
</defs>
</svg>
