<svg width="1440" height="820" viewBox="0 0 1440 820" fill="none" xmlns="http://www.w3.org/2000/svg">
<rect width="1440" height="820" fill="#F0F0F7"/>
<rect width="768" height="820" fill="#8257E5"/>
<path d="M590.569 737.405C585.526 737.405 581.437 733.339 581.437 728.324C581.437 723.308 585.526 719.243 590.569 719.243C595.612 719.243 599.701 723.308 599.701 728.324C599.701 733.323 595.612 737.405 590.569 737.405Z" stroke="#04D361" stroke-width="3" stroke-miterlimit="10" stroke-linecap="round" stroke-linejoin="round"/>
<path d="M584.269 734.888L577.811 741.294" stroke="#04D361" stroke-width="3" stroke-miterlimit="10" stroke-linecap="round" stroke-linejoin="round"/>
<path d="M419.217 78L409.609 87.5541" stroke="#04D361" stroke-width="3" stroke-miterlimit="10" stroke-linecap="round" stroke-linejoin="round"/>
<path d="M419.217 87.5541L409.609 78" stroke="#04D361" stroke-width="3" stroke-miterlimit="10" stroke-linecap="round" stroke-linejoin="round"/>
<path d="M405.461 652.763L395.854 662.317" stroke="#04D361" stroke-width="3" stroke-miterlimit="10" stroke-linecap="round" stroke-linejoin="round"/>
<path d="M405.461 662.317L395.854 652.763" stroke="#04D361" stroke-width="3" stroke-miterlimit="10" stroke-linecap="round" stroke-linejoin="round"/>
<path d="M105.431 263.274L91.8441 263.274" stroke="#04D361" stroke-width="3" stroke-miterlimit="10" stroke-linecap="round" stroke-linejoin="round"/>
<path d="M98.6389 270.046L98.6389 256.52" stroke="#04D361" stroke-width="3" stroke-miterlimit="10" stroke-linecap="round" stroke-linejoin="round"/>
<path d="M502.866 214.422C498.316 214.422 494.609 210.752 494.609 206.211C494.609 201.686 498.3 198 502.866 198C507.416 198 511.123 201.67 511.123 206.211C511.107 210.752 507.416 214.422 502.866 214.422Z" stroke="#04D361" stroke-width="3" stroke-miterlimit="10" stroke-linecap="round" stroke-linejoin="round"/>
<path d="M667.743 421.169C663.193 421.169 659.486 417.499 659.486 412.958C659.486 408.434 663.177 404.747 667.743 404.747C672.293 404.747 676 408.418 676 412.958C675.984 417.499 672.293 421.169 667.743 421.169Z" stroke="#04D361" stroke-width="3" stroke-miterlimit="10" stroke-linecap="round" stroke-linejoin="round"/>
<path d="M148.592 547.906C144.041 547.906 140.335 544.236 140.335 539.695C140.335 535.17 144.026 531.484 148.592 531.484C153.142 531.484 156.849 535.155 156.849 539.695C156.833 544.236 153.142 547.906 148.592 547.906Z" stroke="#04D361" stroke-width="3" stroke-miterlimit="10" stroke-linecap="round" stroke-linejoin="round"/>
<path d="M247.224 99.2467C247.224 100.889 248.562 102.221 250.214 102.221C251.866 102.221 253.204 100.889 253.204 99.2467C253.204 97.6044 251.866 96.2729 250.214 96.2729C248.562 96.2729 247.224 97.6044 247.224 99.2467Z" fill="#9871F5"/>
<path d="M247.224 120.02C247.224 121.662 248.562 122.994 250.214 122.994C251.866 122.994 253.204 121.662 253.204 120.02C253.204 118.378 251.866 117.046 250.214 117.046C248.562 117.046 247.224 118.378 247.224 120.02Z" fill="#9871F5"/>
<path d="M247.224 140.774C247.224 142.417 248.562 143.748 250.214 143.748C251.866 143.748 253.204 142.417 253.204 140.774C253.204 139.132 251.866 137.801 250.214 137.801C248.562 137.801 247.224 139.132 247.224 140.774Z" fill="#9871F5"/>
<path d="M247.224 161.545C247.224 163.187 248.562 164.519 250.214 164.519C251.866 164.519 253.204 163.187 253.204 161.545C253.204 159.902 251.866 158.571 250.214 158.571C248.562 158.571 247.224 159.902 247.224 161.545Z" fill="#9871F5"/>
<path d="M247.224 182.301C247.224 183.943 248.562 185.275 250.214 185.275C251.866 185.275 253.204 183.943 253.204 182.301C253.204 180.659 251.866 179.327 250.214 179.327C248.562 179.327 247.224 180.659 247.224 182.301Z" fill="#9871F5"/>
<path d="M247.224 203.071C247.224 204.714 248.562 206.045 250.214 206.045C251.866 206.045 253.204 204.714 253.204 203.071C253.204 201.429 251.866 200.098 250.214 200.098C248.562 200.098 247.224 201.429 247.224 203.071Z" fill="#9871F5"/>
<path d="M226.35 99.247C226.35 100.889 227.689 102.221 229.341 102.221C230.992 102.221 232.331 100.889 232.331 99.247C232.331 97.6046 230.992 96.2732 229.341 96.2732C227.689 96.2732 226.35 97.6046 226.35 99.247Z" fill="#9871F5"/>
<path d="M226.35 120.02C226.35 121.662 227.689 122.994 229.341 122.994C230.992 122.994 232.331 121.662 232.331 120.02C232.331 118.378 230.992 117.046 229.341 117.046C227.689 117.046 226.35 118.378 226.35 120.02Z" fill="#9871F5"/>
<path d="M226.35 140.774C226.35 142.417 227.689 143.748 229.341 143.748C230.992 143.748 232.331 142.417 232.331 140.774C232.331 139.132 230.992 137.801 229.341 137.801C227.689 137.801 226.35 139.132 226.35 140.774Z" fill="#9871F5"/>
<path d="M226.35 161.545C226.35 163.187 227.689 164.519 229.341 164.519C230.992 164.519 232.331 163.187 232.331 161.545C232.331 159.902 230.992 158.571 229.341 158.571C227.689 158.571 226.35 159.902 226.35 161.545Z" fill="#9871F5"/>
<path d="M226.35 182.301C226.35 183.943 227.689 185.275 229.341 185.275C230.992 185.275 232.331 183.943 232.331 182.301C232.331 180.659 230.992 179.327 229.341 179.327C227.689 179.327 226.35 180.659 226.35 182.301Z" fill="#9871F5"/>
<path d="M226.35 203.071C226.35 204.714 227.689 206.045 229.341 206.045C230.992 206.045 232.331 204.714 232.331 203.071C232.331 201.429 230.992 200.098 229.341 200.098C227.689 200.098 226.35 201.429 226.35 203.071Z" fill="#9871F5"/>
<path d="M205.461 99.247C205.461 100.889 206.8 102.221 208.452 102.221C210.103 102.221 211.442 100.889 211.442 99.247C211.442 97.6046 210.103 96.2732 208.452 96.2732C206.8 96.2732 205.461 97.6046 205.461 99.247Z" fill="#9871F5"/>
<path d="M205.461 120.02C205.461 121.662 206.8 122.994 208.452 122.994C210.103 122.994 211.442 121.662 211.442 120.02C211.442 118.378 210.103 117.046 208.452 117.046C206.8 117.046 205.461 118.378 205.461 120.02Z" fill="#9871F5"/>
<path d="M205.461 140.774C205.461 142.417 206.8 143.748 208.452 143.748C210.103 143.748 211.442 142.417 211.442 140.774C211.442 139.132 210.103 137.801 208.452 137.801C206.8 137.801 205.461 139.132 205.461 140.774Z" fill="#9871F5"/>
<path d="M205.461 161.545C205.461 163.187 206.8 164.519 208.452 164.519C210.103 164.519 211.442 163.187 211.442 161.545C211.442 159.902 210.103 158.571 208.452 158.571C206.8 158.571 205.461 159.902 205.461 161.545Z" fill="#9871F5"/>
<path d="M205.461 182.301C205.461 183.943 206.8 185.275 208.452 185.275C210.103 185.275 211.442 183.943 211.442 182.301C211.442 180.659 210.103 179.327 208.452 179.327C206.8 179.327 205.461 180.659 205.461 182.301Z" fill="#9871F5"/>
<path d="M205.461 203.071C205.461 204.714 206.8 206.045 208.452 206.045C210.103 206.045 211.442 204.714 211.442 203.071C211.442 201.429 210.103 200.098 208.452 200.098C206.8 200.098 205.461 201.429 205.461 203.071Z" fill="#9871F5"/>
<path d="M184.588 99.247C184.588 100.889 185.927 102.221 187.579 102.221C189.23 102.221 190.569 100.889 190.569 99.247C190.569 97.6046 189.23 96.2732 187.579 96.2732C185.927 96.2732 184.588 97.6046 184.588 99.247Z" fill="#9871F5"/>
<path d="M184.588 120.02C184.588 121.662 185.927 122.994 187.579 122.994C189.23 122.994 190.569 121.662 190.569 120.02C190.569 118.378 189.23 117.046 187.579 117.046C185.927 117.046 184.588 118.378 184.588 120.02Z" fill="#9871F5"/>
<path d="M184.588 140.774C184.588 142.417 185.927 143.748 187.579 143.748C189.23 143.748 190.569 142.417 190.569 140.774C190.569 139.132 189.23 137.801 187.579 137.801C185.927 137.801 184.588 139.132 184.588 140.774Z" fill="#9871F5"/>
<path d="M184.588 161.545C184.588 163.187 185.927 164.519 187.579 164.519C189.23 164.519 190.569 163.187 190.569 161.545C190.569 159.902 189.23 158.571 187.579 158.571C185.927 158.571 184.588 159.902 184.588 161.545Z" fill="#9871F5"/>
<path d="M184.588 182.301C184.588 183.943 185.927 185.275 187.579 185.275C189.23 185.275 190.569 183.943 190.569 182.301C190.569 180.659 189.23 179.327 187.579 179.327C185.927 179.327 184.588 180.659 184.588 182.301Z" fill="#9871F5"/>
<path d="M184.588 203.071C184.588 204.714 185.927 206.045 187.579 206.045C189.23 206.045 190.569 204.714 190.569 203.071C190.569 201.429 189.23 200.098 187.579 200.098C185.927 200.098 184.588 201.429 184.588 203.071Z" fill="#9871F5"/>
<path d="M587.788 553.706C587.788 555.348 589.127 556.679 590.779 556.679C592.43 556.679 593.769 555.348 593.769 553.706C593.769 552.063 592.43 550.732 590.779 550.732C589.127 550.732 587.788 552.063 587.788 553.706Z" fill="#9871F5"/>
<path d="M587.789 574.46C587.789 576.103 589.128 577.434 590.78 577.434C592.431 577.434 593.77 576.103 593.77 574.46C593.77 572.818 592.431 571.487 590.78 571.487C589.128 571.487 587.789 572.818 587.789 574.46Z" fill="#9871F5"/>
<path d="M587.789 595.23C587.789 596.872 589.128 598.204 590.78 598.204C592.431 598.204 593.77 596.872 593.77 595.23C593.77 593.588 592.431 592.256 590.78 592.256C589.128 592.256 587.789 593.588 587.789 595.23Z" fill="#9871F5"/>
<path d="M566.9 553.703C566.9 555.346 568.239 556.677 569.891 556.677C571.542 556.677 572.881 555.346 572.881 553.703C572.881 552.061 571.542 550.73 569.891 550.73C568.239 550.73 566.9 552.061 566.9 553.703Z" fill="#9871F5"/>
<path d="M566.9 574.46C566.9 576.103 568.239 577.434 569.891 577.434C571.542 577.434 572.881 576.103 572.881 574.46C572.881 572.818 571.542 571.487 569.891 571.487C568.239 571.487 566.9 572.818 566.9 574.46Z" fill="#9871F5"/>
<path d="M566.9 595.228C566.9 596.871 568.239 598.202 569.891 598.202C571.542 598.202 572.881 596.871 572.881 595.228C572.881 593.586 571.542 592.255 569.891 592.255C568.239 592.255 566.9 593.586 566.9 595.228Z" fill="#9871F5"/>
<path d="M661.498 187.974C661.498 189.617 662.836 190.948 664.488 190.948C666.14 190.948 667.479 189.617 667.479 187.974C667.479 186.332 666.14 185.001 664.488 185.001C662.836 185.001 661.498 186.332 661.498 187.974Z" fill="#9871F5"/>
<path d="M661.498 208.728C661.498 210.37 662.837 211.702 664.489 211.702C666.14 211.702 667.479 210.37 667.479 208.728C667.479 207.086 666.14 205.754 664.489 205.754C662.837 205.754 661.498 207.086 661.498 208.728Z" fill="#9871F5"/>
<path d="M661.498 229.5C661.498 231.143 662.837 232.474 664.489 232.474C666.14 232.474 667.479 231.143 667.479 229.5C667.479 227.858 666.14 226.527 664.489 226.527C662.837 226.527 661.498 227.858 661.498 229.5Z" fill="#9871F5"/>
<path d="M640.609 187.974C640.609 189.616 641.948 190.948 643.599 190.948C645.251 190.948 646.59 189.616 646.59 187.974C646.59 186.331 645.251 185 643.599 185C641.948 185 640.609 186.331 640.609 187.974Z" fill="#9871F5"/>
<path d="M640.609 208.73C640.609 210.372 641.948 211.704 643.599 211.704C645.251 211.704 646.59 210.372 646.59 208.73C646.59 207.088 645.251 205.756 643.599 205.756C641.948 205.756 640.609 207.088 640.609 208.73Z" fill="#9871F5"/>
<path d="M640.609 229.5C640.609 231.143 641.948 232.474 643.599 232.474C645.251 232.474 646.59 231.143 646.59 229.5C646.59 227.858 645.251 226.526 643.599 226.526C641.948 226.526 640.609 227.858 640.609 229.5Z" fill="#9871F5"/>
<path d="M254.71 738.983C254.71 740.626 256.049 741.957 257.701 741.957C259.353 741.957 260.691 740.626 260.691 738.983C260.691 737.341 259.353 736.01 257.701 736.01C256.049 736.01 254.71 737.341 254.71 738.983Z" fill="#9871F5"/>
<path d="M233.821 738.983C233.821 740.626 235.16 741.957 236.812 741.957C238.463 741.957 239.802 740.626 239.802 738.983C239.802 737.341 238.463 736.01 236.812 736.01C235.16 736.01 233.821 737.341 233.821 738.983Z" fill="#9871F5"/>
<path d="M212.948 738.983C212.948 740.626 214.287 741.957 215.939 741.957C217.59 741.957 218.929 740.626 218.929 738.983C218.929 737.341 217.59 736.01 215.939 736.01C214.287 736.01 212.948 737.341 212.948 738.983Z" fill="#9871F5"/>
<path d="M192.059 738.983C192.059 740.626 193.398 741.957 195.05 741.957C196.701 741.957 198.04 740.626 198.04 738.983C198.04 737.341 196.701 736.01 195.05 736.01C193.398 736.01 192.059 737.341 192.059 738.983Z" fill="#9871F5"/>
<path d="M171.186 738.983C171.186 740.626 172.525 741.957 174.177 741.957C175.828 741.957 177.167 740.626 177.167 738.983C177.167 737.341 175.828 736.01 174.177 736.01C172.525 736.01 171.186 737.341 171.186 738.983Z" fill="#9871F5"/>
<path d="M150.297 738.983C150.297 740.626 151.636 741.957 153.288 741.957C154.939 741.957 156.278 740.626 156.278 738.983C156.278 737.341 154.939 736.01 153.288 736.01C151.636 736.01 150.297 737.341 150.297 738.983Z" fill="#9871F5"/>
<path d="M129.424 738.983C129.424 740.626 130.763 741.957 132.414 741.957C134.066 741.957 135.405 740.626 135.405 738.983C135.405 737.341 134.066 736.01 132.414 736.01C130.763 736.01 129.424 737.341 129.424 738.983Z" fill="#9871F5"/>
<path d="M254.71 718.212C254.71 719.854 256.049 721.186 257.701 721.186C259.353 721.186 260.691 719.854 260.691 718.212C260.691 716.57 259.353 715.238 257.701 715.238C256.049 715.238 254.71 716.57 254.71 718.212Z" fill="#9871F5"/>
<path d="M233.821 718.212C233.821 719.854 235.16 721.186 236.812 721.186C238.463 721.186 239.802 719.854 239.802 718.212C239.802 716.57 238.463 715.238 236.812 715.238C235.16 715.238 233.821 716.57 233.821 718.212Z" fill="#9871F5"/>
<path d="M212.948 718.212C212.948 719.854 214.287 721.186 215.939 721.186C217.59 721.186 218.929 719.854 218.929 718.212C218.929 716.57 217.59 715.238 215.939 715.238C214.287 715.238 212.948 716.57 212.948 718.212Z" fill="#9871F5"/>
<path d="M192.059 718.212C192.059 719.854 193.398 721.186 195.05 721.186C196.701 721.186 198.04 719.854 198.04 718.212C198.04 716.57 196.701 715.238 195.05 715.238C193.398 715.238 192.059 716.57 192.059 718.212Z" fill="#9871F5"/>
<path d="M171.186 718.212C171.186 719.854 172.525 721.186 174.177 721.186C175.828 721.186 177.167 719.854 177.167 718.212C177.167 716.57 175.828 715.238 174.177 715.238C172.525 715.238 171.186 716.57 171.186 718.212Z" fill="#9871F5"/>
<path d="M150.297 718.212C150.297 719.854 151.636 721.186 153.287 721.186C154.939 721.186 156.278 719.854 156.278 718.212C156.278 716.57 154.939 715.238 153.287 715.238C151.636 715.238 150.297 716.57 150.297 718.212Z" fill="#9871F5"/>
<path d="M129.424 718.212C129.424 719.854 130.763 721.186 132.414 721.186C134.066 721.186 135.405 719.854 135.405 718.212C135.405 716.57 134.066 715.238 132.414 715.238C130.763 715.238 129.424 716.57 129.424 718.212Z" fill="#9871F5"/>
<path d="M254.71 697.456C254.71 699.098 256.049 700.43 257.701 700.43C259.353 700.43 260.691 699.098 260.691 697.456C260.691 695.814 259.353 694.482 257.701 694.482C256.049 694.482 254.71 695.814 254.71 697.456Z" fill="#9871F5"/>
<path d="M233.821 697.456C233.821 699.098 235.16 700.43 236.812 700.43C238.463 700.43 239.802 699.098 239.802 697.456C239.802 695.814 238.463 694.482 236.812 694.482C235.16 694.482 233.821 695.814 233.821 697.456Z" fill="#9871F5"/>
<path d="M212.948 697.456C212.948 699.098 214.287 700.43 215.939 700.43C217.59 700.43 218.929 699.098 218.929 697.456C218.929 695.814 217.59 694.482 215.939 694.482C214.287 694.482 212.948 695.814 212.948 697.456Z" fill="#9871F5"/>
<path d="M192.059 697.456C192.059 699.098 193.398 700.43 195.05 700.43C196.701 700.43 198.04 699.098 198.04 697.456C198.04 695.814 196.701 694.482 195.05 694.482C193.398 694.482 192.059 695.814 192.059 697.456Z" fill="#9871F5"/>
<path d="M171.186 697.456C171.186 699.098 172.525 700.43 174.177 700.43C175.828 700.43 177.167 699.098 177.167 697.456C177.167 695.814 175.828 694.482 174.177 694.482C172.525 694.482 171.186 695.814 171.186 697.456Z" fill="#9871F5"/>
<path d="M150.297 697.456C150.297 699.098 151.636 700.43 153.287 700.43C154.939 700.43 156.278 699.098 156.278 697.456C156.278 695.814 154.939 694.482 153.287 694.482C151.636 694.482 150.297 695.814 150.297 697.456Z" fill="#9871F5"/>
<path d="M129.424 697.456C129.424 699.098 130.763 700.43 132.414 700.43C134.066 700.43 135.405 699.098 135.405 697.456C135.405 695.814 134.066 694.482 132.414 694.482C130.763 694.482 129.424 695.814 129.424 697.456Z" fill="#9871F5"/>
<path d="M254.708 676.686C254.708 678.328 256.047 679.66 257.699 679.66C259.35 679.66 260.689 678.328 260.689 676.686C260.689 675.043 259.35 673.712 257.699 673.712C256.047 673.712 254.708 675.043 254.708 676.686Z" fill="#9871F5"/>
<path d="M233.821 676.685C233.821 678.328 235.16 679.659 236.812 679.659C238.463 679.659 239.802 678.328 239.802 676.685C239.802 675.043 238.463 673.712 236.812 673.712C235.16 673.712 233.821 675.043 233.821 676.685Z" fill="#9871F5"/>
<path d="M212.948 676.685C212.948 678.328 214.287 679.659 215.939 679.659C217.59 679.659 218.929 678.328 218.929 676.685C218.929 675.043 217.59 673.712 215.939 673.712C214.287 673.712 212.948 675.043 212.948 676.685Z" fill="#9871F5"/>
<path d="M192.059 676.685C192.059 678.328 193.398 679.659 195.05 679.659C196.701 679.659 198.04 678.328 198.04 676.685C198.04 675.043 196.701 673.712 195.05 673.712C193.398 673.712 192.059 675.043 192.059 676.685Z" fill="#9871F5"/>
<path d="M171.186 676.685C171.186 678.328 172.525 679.659 174.177 679.659C175.828 679.659 177.167 678.328 177.167 676.685C177.167 675.043 175.828 673.712 174.177 673.712C172.525 673.712 171.186 675.043 171.186 676.685Z" fill="#9871F5"/>
<path d="M150.297 676.685C150.297 678.328 151.636 679.659 153.287 679.659C154.939 679.659 156.278 678.328 156.278 676.685C156.278 675.043 154.939 673.712 153.287 673.712C151.636 673.712 150.297 675.043 150.297 676.685Z" fill="#9871F5"/>
<path d="M129.424 676.685C129.424 678.328 130.763 679.659 132.414 679.659C134.066 679.659 135.405 678.328 135.405 676.685C135.405 675.043 134.066 673.712 132.414 673.712C130.763 673.712 129.424 675.043 129.424 676.685Z" fill="#9871F5"/>
<g clip-path="url(#clip0)">
<path d="M273.023 330.13H233.018C222.373 330.13 217 335.29 217 345.511V400.21C217 401.55 217.721 402.375 219.273 402.375H231.366C232.813 402.375 233.745 401.55 233.745 400.21V398.133C233.745 393.067 235.883 390.306 241.197 389.773H273.023C284.7 389.773 289.973 384.719 289.973 373.673V346.23C289.973 335.185 284.7 330.13 273.023 330.13ZM273.246 369.028C273.246 375.019 271.886 376.253 264.75 376.253H247.8C240.67 376.253 236.118 378.629 233.739 383.274V349.536C233.739 344.891 234.876 343.65 240.559 343.65H264.75C271.886 343.65 273.246 344.891 273.246 350.875V369.028Z" fill="white"/>
<path d="M328.32 360.37C319.121 360.37 315.19 365.015 315.19 372.86V400.414C315.19 401.655 314.569 402.374 313.122 402.374H302.165C300.718 402.374 299.998 401.655 299.998 400.414V350.05C299.998 348.81 300.718 348.084 302.165 348.084H311.364C312.711 348.084 313.432 348.81 313.432 350.05V358.176C315.19 351.472 320.258 348.061 329.251 348.061H332.972C334.313 348.061 335.034 348.786 335.034 350.027V358.41C335.034 359.75 334.313 360.37 332.972 360.37H328.32Z" fill="white"/>
<path d="M399.634 387.613C399.634 397.834 395.088 402.373 384.237 402.373H357.362C346.611 402.373 341.959 397.834 341.959 387.613V362.855C341.959 352.641 346.611 348.095 357.362 348.095H384.237C395.088 348.095 399.634 352.641 399.634 362.855V387.613ZM384.442 366.769C384.442 361.399 383.411 360.369 377.001 360.369H364.698C358.188 360.369 357.151 361.399 357.151 366.769V383.694C357.151 389.058 358.188 390.094 364.698 390.094H377.001C383.411 390.094 384.442 389.058 384.442 383.694V366.769Z" fill="white"/>
<path d="M414.932 360.37H409.759C408.411 360.37 407.691 359.75 407.691 358.41V350.05C407.691 348.81 408.411 348.085 409.759 348.085H414.926V341.38C414.932 331.16 420.305 326 430.95 326H443.664C445.111 326 445.732 326.726 445.732 327.96V336.32C445.732 337.665 445.111 338.28 443.664 338.28H436.95C431.261 338.28 430.124 339.52 430.124 344.165V348.085H443.664C445.111 348.085 445.732 348.81 445.732 350.05V358.41C445.732 359.75 445.111 360.37 443.664 360.37H430.124V400.415C430.124 401.655 429.404 402.374 427.957 402.374H417C415.553 402.374 414.932 401.655 414.932 400.415V360.37Z" fill="white"/>
<path d="M457.105 360.37H451.943C450.601 360.37 449.881 359.75 449.881 358.41V350.05C449.881 348.81 450.601 348.085 451.943 348.085H457.116V341.38C457.105 331.16 462.489 326 473.123 326H485.837C487.284 326 487.905 326.726 487.905 327.96V336.32C487.905 337.665 487.284 338.28 485.837 338.28H479.117C473.433 338.28 472.297 339.52 472.297 344.165V348.085H485.837C487.284 348.085 487.905 348.81 487.905 350.05V358.41C487.905 359.75 487.284 360.37 485.837 360.37H472.297V400.415C472.297 401.655 471.57 402.374 470.123 402.374H459.167C457.72 402.374 457.105 401.655 457.105 400.415V360.37Z" fill="white"/>
<path d="M534.103 423.429H511.569C501.445 423.429 497.104 419.51 497.104 409.804V408.775C497.073 408.498 497.106 408.218 497.2 407.955C497.293 407.692 497.444 407.454 497.642 407.258C497.84 407.062 498.08 406.913 498.344 406.822C498.608 406.731 498.889 406.701 499.166 406.733H509.712C511.159 406.733 511.88 407.458 511.88 408.798V409.313C511.88 411.378 513.022 412.203 515.296 412.203H528.32C534.519 412.203 536.071 410.658 536.071 405.393V389.112C533.693 393.757 529.146 396.132 522.01 396.132H511.464C500.713 396.132 495.955 391.593 495.955 381.372V350.05C495.941 349.78 495.986 349.51 496.086 349.258C496.187 349.007 496.34 348.78 496.537 348.593C496.733 348.406 496.968 348.264 497.224 348.176C497.481 348.089 497.754 348.057 498.023 348.085H509.085C510.427 348.085 511.153 348.81 511.153 350.05V377.482C511.153 382.847 512.29 383.882 518.7 383.882H526.556C533.376 383.882 536.065 381.092 536.065 375.417V350.05C536.065 348.81 536.786 348.085 538.134 348.085H549.201C549.466 348.059 549.733 348.093 549.983 348.183C550.233 348.272 550.46 348.416 550.648 348.604C550.836 348.792 550.979 349.02 551.068 349.27C551.158 349.52 551.19 349.786 551.164 350.05V407.02C551.158 417.848 545.369 423.429 534.103 423.429Z" fill="white"/>
</g>
<path d="M231.691 452.213C231.691 445.072 221.269 448.172 221.269 443.19C221.269 441.114 222.904 440.034 224.983 440.09C227.339 440.117 228.559 441.584 228.725 442.885H231.497C231.192 439.951 228.781 437.931 225.094 437.931C221.269 437.931 218.691 440.09 218.691 443.273C218.691 450.441 229.141 447.12 229.141 452.323C229.141 454.15 227.7 455.534 225.26 455.534C222.572 455.534 221.435 453.929 221.269 452.323H218.58C218.635 455.506 221.38 457.665 225.26 457.665C229.446 457.665 231.691 454.953 231.691 452.213Z" fill="#D4C2FF"/>
<path d="M248.875 442.304H246.352V450.635C246.352 453.901 244.606 455.506 242 455.506C239.45 455.506 237.759 453.929 237.759 450.857V442.304H235.265V451.189C235.265 455.534 238.009 457.693 241.502 457.693C243.525 457.693 245.382 456.807 246.352 455.23V457.472H248.875V442.304Z" fill="#D4C2FF"/>
<path d="M252.191 449.832C252.191 454.538 255.324 457.721 259.371 457.721C262.17 457.721 264.139 456.281 265.053 454.648V457.472H267.603V442.304H265.053V445.072C264.166 443.494 262.226 442.055 259.399 442.055C255.324 442.055 252.191 445.1 252.191 449.832ZM265.053 449.86C265.053 453.431 262.669 455.506 259.897 455.506C257.126 455.506 254.769 453.403 254.769 449.832C254.769 446.262 257.126 444.241 259.897 444.241C262.669 444.241 265.053 446.345 265.053 449.86Z" fill="#D4C2FF"/>
<path d="M281.779 445.1V442.304H279.256V464.668H281.779V454.676C282.721 456.226 284.689 457.721 287.461 457.721C291.536 457.721 294.668 454.538 294.668 449.832C294.668 445.1 291.536 442.055 287.461 442.055C284.689 442.055 282.693 443.494 281.779 445.1ZM292.09 449.832C292.09 453.403 289.734 455.506 286.934 455.506C284.19 455.506 281.779 453.431 281.779 449.86C281.779 446.345 284.19 444.241 286.934 444.241C289.734 444.241 292.09 446.262 292.09 449.832Z" fill="#D4C2FF"/>
<path d="M297.988 457.472H300.511V436.99H297.988V457.472Z" fill="#D4C2FF"/>
<path d="M303.868 449.832C303.868 454.538 307 457.721 311.047 457.721C313.847 457.721 315.815 456.281 316.729 454.648V457.472H319.28V442.304H316.729V445.072C315.842 443.494 313.902 442.055 311.075 442.055C307 442.055 303.868 445.1 303.868 449.832ZM316.729 449.86C316.729 453.431 314.346 455.506 311.574 455.506C308.802 455.506 306.445 453.403 306.445 449.832C306.445 446.262 308.802 444.241 311.574 444.241C314.346 444.241 316.729 446.345 316.729 449.86Z" fill="#D4C2FF"/>
<path d="M324.014 457.472H326.536V444.38H329.724V442.304H326.536V441.225C326.536 439.259 327.284 438.429 329.557 438.429V436.326C325.677 436.326 324.014 437.848 324.014 441.225V442.304H322.045V444.38H324.014V457.472Z" fill="#D4C2FF"/>
<path d="M347.079 449.86C347.079 445.072 343.725 442.055 339.401 442.055C335.104 442.055 331.722 445.072 331.722 449.86C331.722 454.676 334.993 457.721 339.29 457.721C343.614 457.721 347.079 454.676 347.079 449.86ZM334.3 449.86C334.3 446.041 336.712 444.241 339.373 444.241C341.979 444.241 344.501 446.041 344.501 449.86C344.501 453.707 341.923 455.506 339.29 455.506C336.656 455.506 334.3 453.707 334.3 449.86Z" fill="#D4C2FF"/>
<path d="M352.918 449.224C352.918 445.708 354.747 444.629 357.159 444.629H357.824V442.027C355.413 442.027 353.777 443.079 352.918 444.767V442.304H350.395V457.472H352.918V449.224Z" fill="#D4C2FF"/>
<path d="M382.662 457.472H385.157V448.532C385.157 444.186 382.468 442.027 379.003 442.027C376.675 442.027 374.513 443.217 373.626 445.404C372.628 443.134 370.549 442.027 368.054 442.027C366.058 442.027 364.256 442.885 363.259 444.491V442.304H360.736V457.472H363.259V449.113C363.259 445.847 365.005 444.214 367.555 444.214C370.05 444.214 371.713 445.791 371.713 448.891V457.472H374.208V449.113C374.208 445.847 375.954 444.214 378.504 444.214C380.999 444.214 382.662 445.791 382.662 448.891V457.472Z" fill="#D4C2FF"/>
<path d="M388.352 449.832C388.352 454.538 391.484 457.721 395.532 457.721C398.331 457.721 400.299 456.281 401.214 454.648V457.472H403.764V442.304H401.214V445.072C400.327 443.494 398.387 442.055 395.559 442.055C391.484 442.055 388.352 445.1 388.352 449.832ZM401.214 449.86C401.214 453.431 398.83 455.506 396.058 455.506C393.286 455.506 390.93 453.403 390.93 449.832C390.93 446.262 393.286 444.241 396.058 444.241C398.83 444.241 401.214 446.345 401.214 449.86Z" fill="#D4C2FF"/>
<path d="M414.474 449.832C414.474 454.538 417.607 457.721 421.682 457.721C424.453 457.721 426.422 456.309 427.336 454.621V457.472H429.886V436.99H427.336V445.016C426.283 443.273 424.093 442.055 421.709 442.055C417.607 442.055 414.474 445.1 414.474 449.832ZM427.336 449.86C427.336 453.431 424.952 455.506 422.18 455.506C419.409 455.506 417.052 453.403 417.052 449.832C417.052 446.262 419.409 444.241 422.18 444.241C424.952 444.241 427.336 446.345 427.336 449.86Z" fill="#D4C2FF"/>
<path d="M440.608 444.186C443.213 444.186 445.431 445.819 445.403 448.781H435.812C436.09 445.819 438.141 444.186 440.608 444.186ZM447.704 452.794H444.987C444.433 454.427 442.992 455.589 440.719 455.589C438.141 455.589 435.979 453.901 435.785 450.829H447.926C447.981 450.303 448.009 449.86 448.009 449.307C448.009 445.155 445.126 442.055 440.719 442.055C436.284 442.055 433.207 445.072 433.207 449.86C433.207 454.676 436.394 457.721 440.719 457.721C444.489 457.721 446.928 455.562 447.704 452.794Z" fill="#D4C2FF"/>
<path d="M225.593 479.553C228.199 479.553 230.416 481.186 230.388 484.147H220.798C221.075 481.186 223.126 479.553 225.593 479.553ZM232.689 488.16H229.973C229.418 489.793 227.977 490.956 225.704 490.956C223.126 490.956 220.964 489.268 220.77 486.195H232.911C232.966 485.669 232.994 485.227 232.994 484.673C232.994 480.521 230.111 477.421 225.704 477.421C221.269 477.421 218.192 480.438 218.192 485.227C218.192 490.043 221.38 493.087 225.704 493.087C229.474 493.087 231.913 490.928 232.689 488.16Z" fill="#D4C2FF"/>
<path d="M247.245 488.714C247.134 483.289 238.319 485.254 238.319 481.656C238.319 480.438 239.428 479.553 241.285 479.553C243.309 479.553 244.473 480.66 244.584 482.182H247.106C246.94 479.22 244.723 477.421 241.369 477.421C237.987 477.421 235.797 479.331 235.797 481.656C235.797 487.302 244.778 485.337 244.778 488.714C244.778 489.959 243.669 490.956 241.673 490.956C239.539 490.956 238.236 489.849 238.098 488.382H235.492C235.658 491.15 238.153 493.087 241.701 493.087C245.055 493.087 247.245 491.205 247.245 488.714Z" fill="#D4C2FF"/>
<path d="M251.36 488.686C251.36 491.731 252.885 492.838 255.574 492.838H257.847V490.707H255.989C254.437 490.707 253.883 490.181 253.883 488.686V479.746H257.847V477.67H253.883V473.851H251.36V477.67H249.392V479.746H251.36V488.686Z" fill="#D4C2FF"/>
<path d="M274.375 477.67H271.852V486.002C271.852 489.268 270.106 490.873 267.5 490.873C264.95 490.873 263.259 489.295 263.259 486.223V477.67H260.764V486.555C260.764 490.901 263.509 493.059 267.001 493.059C269.025 493.059 270.882 492.174 271.852 490.596V492.838H274.375V477.67Z" fill="#D4C2FF"/>
<path d="M277.691 485.199C277.691 489.904 280.823 493.087 284.898 493.087C287.67 493.087 289.638 491.676 290.553 489.987V492.838H293.103V472.356H290.553V480.383C289.5 478.639 287.31 477.421 284.926 477.421C280.823 477.421 277.691 480.466 277.691 485.199ZM290.553 485.227C290.553 488.797 288.169 490.873 285.397 490.873C282.625 490.873 280.269 488.769 280.269 485.199C280.269 481.628 282.625 479.608 285.397 479.608C288.169 479.608 290.553 481.711 290.553 485.227Z" fill="#D4C2FF"/>
<path d="M311.78 485.227C311.78 480.438 308.426 477.421 304.102 477.421C299.805 477.421 296.423 480.438 296.423 485.227C296.423 490.043 299.694 493.087 303.991 493.087C308.315 493.087 311.78 490.043 311.78 485.227ZM299.001 485.227C299.001 481.407 301.413 479.608 304.074 479.608C306.68 479.608 309.202 481.407 309.202 485.227C309.202 489.074 306.624 490.873 303.991 490.873C301.357 490.873 299.001 489.074 299.001 485.227Z" fill="#D4C2FF"/>
<path d="M326.018 488.714C325.907 483.289 317.092 485.254 317.092 481.656C317.092 480.438 318.201 479.553 320.058 479.553C322.082 479.553 323.246 480.66 323.357 482.182H325.879C325.713 479.22 323.496 477.421 320.141 477.421C316.76 477.421 314.57 479.331 314.57 481.656C314.57 487.302 323.551 485.337 323.551 488.714C323.551 489.959 322.442 490.956 320.446 490.956C318.312 490.956 317.009 489.849 316.871 488.382H314.265C314.431 491.15 316.926 493.087 320.474 493.087C323.828 493.087 326.018 491.205 326.018 488.714Z" fill="#D4C2FF"/>
<path d="M351.383 485.227C351.383 480.438 348.029 477.421 343.705 477.421C339.408 477.421 336.026 480.438 336.026 485.227C336.026 490.043 339.297 493.087 343.594 493.087C347.918 493.087 351.383 490.043 351.383 485.227ZM338.604 485.227C338.604 481.407 341.016 479.608 343.677 479.608C346.283 479.608 348.805 481.407 348.805 485.227C348.805 489.074 346.227 490.873 343.594 490.873C340.96 490.873 338.604 489.074 338.604 485.227Z" fill="#D4C2FF"/>
<path d="M365.815 492.838H368.31V483.898C368.31 479.553 365.621 477.394 362.101 477.394C360.049 477.394 358.22 478.252 357.222 479.829V477.67H354.7V492.838H357.222V484.452C357.222 481.186 358.996 479.58 361.574 479.58C364.124 479.58 365.815 481.158 365.815 484.258V492.838Z" fill="#D4C2FF"/>
<path d="M372.43 492.838H374.953V472.356H372.43V492.838Z" fill="#D4C2FF"/>
<path d="M379.252 492.838H381.774V477.67H379.252V492.838ZM380.555 475.207C381.469 475.207 382.218 474.46 382.218 473.491C382.218 472.522 381.469 471.775 380.555 471.775C379.584 471.775 378.836 472.522 378.836 473.491C378.836 474.46 379.584 475.207 380.555 475.207Z" fill="#D4C2FF"/>
<path d="M397.189 492.838H399.684V483.898C399.684 479.553 396.995 477.394 393.474 477.394C391.423 477.394 389.594 478.252 388.596 479.829V477.67H386.073V492.838H388.596V484.452C388.596 481.186 390.37 479.58 392.948 479.58C395.498 479.58 397.189 481.158 397.189 484.258V492.838Z" fill="#D4C2FF"/>
<path d="M410.263 479.553C412.868 479.553 415.086 481.186 415.058 484.147H405.467C405.744 481.186 407.796 479.553 410.263 479.553ZM417.359 488.16H414.642C414.088 489.793 412.646 490.956 410.374 490.956C407.796 490.956 405.633 489.268 405.439 486.195H417.581C417.636 485.669 417.664 485.227 417.664 484.673C417.664 480.521 414.781 477.421 410.374 477.421C405.938 477.421 402.862 480.438 402.862 485.227C402.862 490.043 406.049 493.087 410.374 493.087C414.143 493.087 416.583 490.928 417.359 488.16Z" fill="#D4C2FF"/>
<path d="M423.46 491.288C423.46 490.319 422.712 489.572 421.797 489.572C420.827 489.572 420.079 490.319 420.079 491.288C420.079 492.257 420.827 493.004 421.797 493.004C422.712 493.004 423.46 492.257 423.46 491.288Z" fill="#D4C2FF"/>
<path d="M936.544 727.832V736.696L930.688 727.832H929.232V739H930.688V730.12L936.544 739H938V727.832H936.544ZM939.938 734.584C939.938 737.304 941.746 739.144 944.082 739.144C945.698 739.144 946.834 738.312 947.362 737.368V739H948.834V730.232H947.362V731.832C946.85 730.92 945.73 730.088 944.098 730.088C941.746 730.088 939.938 731.848 939.938 734.584ZM947.362 734.6C947.362 736.664 945.986 737.864 944.386 737.864C942.786 737.864 941.426 736.648 941.426 734.584C941.426 732.52 942.786 731.352 944.386 731.352C945.986 731.352 947.362 732.568 947.362 734.6ZM942.322 729.288H943.17C943.234 728.808 943.506 728.584 943.858 728.584C944.498 728.584 944.818 729.32 945.682 729.32C946.514 729.32 947.154 728.744 947.282 727.656H946.45C946.386 728.12 946.098 728.344 945.746 728.344C945.09 728.344 944.77 727.608 943.922 727.608C943.09 727.608 942.482 728.184 942.322 729.288ZM959.615 734.6C959.615 731.832 957.679 730.088 955.183 730.088C952.703 730.088 950.751 731.832 950.751 734.6C950.751 737.384 952.639 739.144 955.119 739.144C957.615 739.144 959.615 737.384 959.615 734.6ZM952.239 734.6C952.239 732.392 953.631 731.352 955.167 731.352C956.671 731.352 958.127 732.392 958.127 734.6C958.127 736.824 956.639 737.864 955.119 737.864C953.599 737.864 952.239 736.824 952.239 734.6ZM966.115 736.6C966.115 738.36 966.995 739 968.547 739H969.859V737.768H968.786C967.891 737.768 967.571 737.464 967.571 736.6V731.432H969.859V730.232H967.571V728.024H966.115V730.232H964.979V731.432H966.115V736.6ZM975.351 731.32C976.855 731.32 978.135 732.264 978.119 733.976H972.583C972.743 732.264 973.927 731.32 975.351 731.32ZM979.447 736.296H977.879C977.559 737.24 976.727 737.912 975.415 737.912C973.927 737.912 972.679 736.936 972.567 735.16H979.575C979.607 734.856 979.623 734.6 979.623 734.28C979.623 731.88 977.959 730.088 975.415 730.088C972.855 730.088 971.079 731.832 971.079 734.6C971.079 737.384 972.919 739.144 975.415 739.144C977.591 739.144 978.999 737.896 979.447 736.296ZM994.201 739H995.641V733.832C995.641 731.32 994.089 730.072 992.089 730.072C990.745 730.072 989.497 730.76 988.985 732.024C988.409 730.712 987.209 730.072 985.769 730.072C984.617 730.072 983.577 730.568 983.001 731.496V730.232H981.545V739H983.001V734.168C983.001 732.28 984.009 731.336 985.481 731.336C986.921 731.336 987.881 732.248 987.881 734.04V739H989.321V734.168C989.321 732.28 990.329 731.336 991.801 731.336C993.241 731.336 994.201 732.248 994.201 734.04V739ZM1001.75 734.6C1001.75 737.384 1003.53 739.144 1006.02 739.144C1008.2 739.144 1009.62 737.928 1010.07 736.184H1008.5C1008.18 737.288 1007.32 737.912 1006.02 737.912C1004.42 737.912 1003.24 736.776 1003.24 734.6C1003.24 732.456 1004.42 731.32 1006.02 731.32C1007.32 731.32 1008.2 731.992 1008.5 733.048H1010.07C1009.62 731.208 1008.2 730.088 1006.02 730.088C1003.53 730.088 1001.75 731.848 1001.75 734.6ZM1020.33 734.6C1020.33 731.832 1018.4 730.088 1015.9 730.088C1013.42 730.088 1011.47 731.832 1011.47 734.6C1011.47 737.384 1013.36 739.144 1015.84 739.144C1018.33 739.144 1020.33 737.384 1020.33 734.6ZM1012.96 734.6C1012.96 732.392 1014.35 731.352 1015.89 731.352C1017.39 731.352 1018.85 732.392 1018.85 734.6C1018.85 736.824 1017.36 737.864 1015.84 737.864C1014.32 737.864 1012.96 736.824 1012.96 734.6ZM1028.66 739H1030.1V733.832C1030.1 731.32 1028.55 730.072 1026.52 730.072C1025.34 730.072 1024.28 730.568 1023.7 731.48V730.232H1022.25V739H1023.7V734.152C1023.7 732.264 1024.73 731.336 1026.22 731.336C1027.69 731.336 1028.66 732.248 1028.66 734.04V739ZM1032.8 736.6C1032.8 738.36 1033.68 739 1035.23 739H1036.55V737.768H1035.47C1034.58 737.768 1034.26 737.464 1034.26 736.6V731.432H1036.55V730.232H1034.26V728.024H1032.8V730.232H1031.67V731.432H1032.8V736.6ZM1037.77 734.584C1037.77 737.304 1039.57 739.144 1041.91 739.144C1043.53 739.144 1044.66 738.312 1045.19 737.368V739H1046.66V730.232H1045.19V731.832C1044.68 730.92 1043.56 730.088 1041.93 730.088C1039.57 730.088 1037.77 731.848 1037.77 734.584ZM1045.19 734.6C1045.19 736.664 1043.81 737.864 1042.21 737.864C1040.61 737.864 1039.25 736.648 1039.25 734.584C1039.25 732.52 1040.61 731.352 1042.21 731.352C1043.81 731.352 1045.19 732.568 1045.19 734.6ZM1048.48 730.92H1049.86C1049.86 729.672 1050.67 728.92 1051.99 728.92C1053.28 728.92 1054.11 729.72 1054.11 731C1054.11 732.936 1052.56 733.288 1050.74 733.288H1050.27L1050.34 735.816H1051.6L1051.65 734.296C1053.89 734.296 1055.51 733.336 1055.51 731C1055.51 728.968 1054.07 727.704 1051.97 727.704C1049.87 727.704 1048.47 728.984 1048.48 730.92ZM1051.92 738.104C1051.92 737.544 1051.49 737.112 1050.96 737.112C1050.4 737.112 1049.97 737.544 1049.97 738.104C1049.97 738.664 1050.4 739.096 1050.96 739.096C1051.49 739.096 1051.92 738.664 1051.92 738.104Z" fill="#6A6180"/>
<path d="M928.56 759.4C928.56 762.744 931.008 765.096 934.224 765.096C936.704 765.096 938.72 763.784 939.472 761.48H936.896C936.368 762.568 935.408 763.096 934.208 763.096C932.256 763.096 930.864 761.656 930.864 759.4C930.864 757.128 932.256 755.704 934.208 755.704C935.408 755.704 936.368 756.232 936.896 757.304H939.472C938.72 755.016 936.704 753.688 934.224 753.688C931.008 753.688 928.56 756.056 928.56 759.4ZM940.809 760.536C940.809 763.304 942.601 765.144 944.841 765.144C946.249 765.144 947.257 764.472 947.785 763.704V765H950.041V756.136H947.785V757.4C947.257 756.664 946.281 755.992 944.857 755.992C942.601 755.992 940.809 757.768 940.809 760.536ZM947.785 760.568C947.785 762.248 946.665 763.176 945.433 763.176C944.233 763.176 943.097 762.216 943.097 760.536C943.097 758.856 944.233 757.96 945.433 757.96C946.665 757.96 947.785 758.888 947.785 760.568ZM951.653 760.536C951.653 763.304 953.445 765.144 955.701 765.144C957.093 765.144 958.085 764.504 958.613 763.688V765H960.885V753.16H958.613V757.368C958.005 756.536 956.885 755.992 955.717 755.992C953.445 755.992 951.653 757.768 951.653 760.536ZM958.629 760.568C958.629 762.248 957.509 763.176 956.277 763.176C955.077 763.176 953.941 762.216 953.941 760.536C953.941 758.856 955.077 757.96 956.277 757.96C957.509 757.96 958.629 758.888 958.629 760.568ZM962.497 760.536C962.497 763.304 964.289 765.144 966.529 765.144C967.937 765.144 968.945 764.472 969.473 763.704V765H971.729V756.136H969.473V757.4C968.945 756.664 967.969 755.992 966.545 755.992C964.289 755.992 962.497 757.768 962.497 760.536ZM969.473 760.568C969.473 762.248 968.353 763.176 967.121 763.176C965.921 763.176 964.785 762.216 964.785 760.536C964.785 758.856 965.921 757.96 967.121 757.96C968.353 757.96 969.473 758.888 969.473 760.568ZM980.797 762.472C980.733 759.224 975.821 760.232 975.821 758.616C975.821 758.104 976.253 757.768 977.085 757.768C977.965 757.768 978.509 758.232 978.573 758.92H980.717C980.589 757.16 979.293 755.992 977.149 755.992C974.957 755.992 973.645 757.176 973.645 758.648C973.645 761.896 978.653 760.888 978.653 762.472C978.653 762.984 978.173 763.384 977.293 763.384C976.397 763.384 975.773 762.872 975.693 762.2H973.437C973.533 763.848 975.085 765.144 977.309 765.144C979.469 765.144 980.797 763.992 980.797 762.472ZM982.987 762.248C982.987 764.28 984.123 765 985.819 765H987.227V763.112H986.187C985.483 763.112 985.243 762.856 985.243 762.264V757.976H987.227V756.136H985.243V753.944H982.987V756.136H981.931V757.976H982.987V762.248ZM991.078 760.584C991.078 758.872 991.878 758.36 993.206 758.36H993.798V756.008C992.566 756.008 991.638 756.6 991.078 757.512V756.136H988.838V765H991.078V760.584ZM999.115 757.832C1000.27 757.832 1001.2 758.568 1001.23 759.736H997.019C997.195 758.52 998.043 757.832 999.115 757.832ZM1003.32 762.216H1000.91C1000.62 762.808 1000.09 763.288 999.131 763.288C998.011 763.288 997.115 762.552 997.003 761.24H1003.48C1003.53 760.952 1003.55 760.664 1003.55 760.376C1003.55 757.736 1001.74 755.992 999.179 755.992C996.555 755.992 994.731 757.768 994.731 760.568C994.731 763.352 996.603 765.144 999.179 765.144C1001.37 765.144 1002.84 763.848 1003.32 762.216ZM1005.21 760.232H1012V758.344H1005.21V760.232ZM1021.39 762.472C1021.33 759.224 1016.41 760.232 1016.41 758.616C1016.41 758.104 1016.85 757.768 1017.68 757.768C1018.56 757.768 1019.1 758.232 1019.17 758.92H1021.31C1021.18 757.16 1019.89 755.992 1017.74 755.992C1015.55 755.992 1014.24 757.176 1014.24 758.648C1014.24 761.896 1019.25 760.888 1019.25 762.472C1019.25 762.984 1018.77 763.384 1017.89 763.384C1016.99 763.384 1016.37 762.872 1016.29 762.2H1014.03C1014.13 763.848 1015.68 765.144 1017.9 765.144C1020.06 765.144 1021.39 763.992 1021.39 762.472ZM1027.04 757.832C1028.19 757.832 1029.12 758.568 1029.15 759.736H1024.94C1025.12 758.52 1025.97 757.832 1027.04 757.832ZM1031.25 762.216H1028.83C1028.54 762.808 1028.01 763.288 1027.05 763.288C1025.93 763.288 1025.04 762.552 1024.93 761.24H1031.41C1031.45 760.952 1031.47 760.664 1031.47 760.376C1031.47 757.736 1029.66 755.992 1027.1 755.992C1024.48 755.992 1022.65 757.768 1022.65 760.568C1022.65 763.352 1024.53 765.144 1027.1 765.144C1029.29 765.144 1030.77 763.848 1031.25 762.216Z" fill="#8257E5"/>
<path d="M928 766.6H1032V767.4H928V766.6Z" fill="#8257E5"/>
<path d="M1199.23 729.624H1194.73V738H1199.23V737.1H1195.82V734.22H1198.87V733.32H1195.82V730.524H1199.23V729.624ZM1195.47 728.376V729.192L1198.03 727.824V726.876L1195.47 728.376ZM1203.67 734.688C1203.67 736.728 1205.03 738.108 1206.79 738.108C1207.99 738.108 1208.84 737.496 1209.24 736.764V738H1210.34V729.12H1209.24V732.6C1208.78 731.844 1207.84 731.316 1206.8 731.316C1205.03 731.316 1203.67 732.636 1203.67 734.688ZM1209.24 734.7C1209.24 736.248 1208.21 737.148 1207.01 737.148C1205.81 737.148 1204.79 736.236 1204.79 734.688C1204.79 733.14 1205.81 732.264 1207.01 732.264C1208.21 732.264 1209.24 733.176 1209.24 734.7ZM1214.99 732.24C1216.11 732.24 1217.07 732.948 1217.06 734.232H1212.91C1213.03 732.948 1213.92 732.24 1214.99 732.24ZM1218.06 735.972H1216.88C1216.64 736.68 1216.02 737.184 1215.03 737.184C1213.92 737.184 1212.98 736.452 1212.9 735.12H1218.15C1218.18 734.892 1218.19 734.7 1218.19 734.46C1218.19 732.66 1216.94 731.316 1215.03 731.316C1213.11 731.316 1211.78 732.624 1211.78 734.7C1211.78 736.788 1213.16 738.108 1215.03 738.108C1216.67 738.108 1217.72 737.172 1218.06 735.972ZM1222.42 734.688C1222.42 736.728 1223.78 738.108 1225.54 738.108C1226.74 738.108 1227.59 737.472 1227.99 736.764V738.144C1227.99 739.548 1227.11 740.292 1225.95 740.292C1224.87 740.292 1224.09 739.752 1223.85 738.96H1222.77C1222.99 740.364 1224.22 741.24 1225.95 741.24C1227.88 741.24 1229.09 739.956 1229.09 738.144V731.424H1227.99V732.624C1227.61 731.916 1226.74 731.316 1225.54 731.316C1223.78 731.316 1222.42 732.636 1222.42 734.688ZM1227.99 734.7C1227.99 736.248 1226.96 737.148 1225.76 737.148C1224.56 737.148 1223.54 736.236 1223.54 734.688C1223.54 733.14 1224.56 732.264 1225.76 732.264C1226.96 732.264 1227.99 733.176 1227.99 734.7ZM1232.03 734.424C1232.03 732.9 1232.82 732.432 1233.87 732.432H1234.16V731.304C1233.11 731.304 1232.4 731.76 1232.03 732.492V731.424H1230.94V738H1232.03V734.424ZM1235.01 734.688C1235.01 736.728 1236.36 738.108 1238.12 738.108C1239.33 738.108 1240.18 737.484 1240.58 736.776V738H1241.68V731.424H1240.58V732.624C1240.19 731.94 1239.35 731.316 1238.13 731.316C1236.36 731.316 1235.01 732.636 1235.01 734.688ZM1240.58 734.7C1240.58 736.248 1239.54 737.148 1238.34 737.148C1237.14 737.148 1236.12 736.236 1236.12 734.688C1236.12 733.14 1237.14 732.264 1238.34 732.264C1239.54 732.264 1240.58 733.176 1240.58 734.7ZM1243.12 734.7C1243.12 736.632 1244.27 737.916 1245.93 738.084V739.368H1246.53C1247.04 739.368 1247.29 739.512 1247.29 739.884C1247.29 740.268 1247.04 740.412 1246.53 740.412H1245.36V741.12H1246.74C1247.59 741.12 1248.21 740.64 1248.21 739.884C1248.21 739.092 1247.58 738.684 1246.66 738.696V738.096C1248.1 737.976 1249.05 737.1 1249.36 735.888H1248.18C1247.94 736.716 1247.29 737.184 1246.32 737.184C1245.12 737.184 1244.23 736.332 1244.23 734.7C1244.23 733.092 1245.12 732.24 1246.32 732.24C1247.29 732.24 1247.95 732.744 1248.18 733.536H1249.36C1249.02 732.156 1247.95 731.316 1246.32 731.316C1244.45 731.316 1243.12 732.636 1243.12 734.7ZM1250.41 734.688C1250.41 736.728 1251.76 738.108 1253.51 738.108C1254.73 738.108 1255.58 737.484 1255.97 736.776V738H1257.08V731.424H1255.97V732.624C1255.59 731.94 1254.75 731.316 1253.53 731.316C1251.76 731.316 1250.41 732.636 1250.41 734.688ZM1255.97 734.7C1255.97 736.248 1254.94 737.148 1253.74 737.148C1252.54 737.148 1251.52 736.236 1251.52 734.688C1251.52 733.14 1252.54 732.264 1253.74 732.264C1254.94 732.264 1255.97 733.176 1255.97 734.7Z" fill="#9C98A6"/>
<g opacity="0.5">
<path d="M1280 731.693C1280 729.653 1278.27 728 1276.14 728C1274.84 728 1273.7 728.611 1273 729.545C1272.3 728.611 1271.16 728 1269.86 728C1267.73 728 1266 729.653 1266 731.693C1266 731.981 1266.04 732.261 1266.1 732.531C1266.64 735.717 1270.34 739.077 1273 740C1275.65 739.077 1279.36 735.717 1279.9 732.531C1279.96 732.262 1280 731.982 1280 731.693Z" fill="#8257E5"/>
</g>
<rect x="928" y="536" width="352" height="56" rx="8" fill="#04D361"/>
<path d="M1081.49 559.024H1090.05V560.768H1083.54V563.52H1089.34V565.264H1083.54V568.256H1090.14V570H1081.49V559.024ZM1092.14 561.584H1093.73L1093.89 562.704H1094C1094.31 562.288 1094.69 561.968 1095.14 561.744C1095.6 561.509 1096.12 561.392 1096.7 561.392C1097.56 561.392 1098.22 561.627 1098.7 562.096C1099.18 562.555 1099.42 563.296 1099.42 564.32V570H1097.5V564.656C1097.5 564.08 1097.37 563.669 1097.1 563.424C1096.85 563.179 1096.46 563.056 1095.95 563.056C1095.42 563.056 1094.97 563.248 1094.61 563.632C1094.25 564.016 1094.06 564.507 1094.06 565.104V570H1092.14V561.584ZM1103.74 570.192C1103.03 570.192 1102.51 569.995 1102.19 569.6C1101.88 569.195 1101.73 568.693 1101.73 568.096V563.152H1100.7V561.584H1101.76L1102.11 559.232H1103.65V561.584H1105.09V563.152H1103.65V567.904C1103.65 568.384 1103.87 568.624 1104.33 568.624H1105.09V569.936C1104.91 570 1104.7 570.059 1104.45 570.112C1104.19 570.165 1103.95 570.192 1103.74 570.192ZM1106.64 561.584H1108.23L1108.4 562.912H1108.52C1108.9 561.899 1109.53 561.392 1110.4 561.392C1110.7 561.392 1110.97 561.44 1111.2 561.536V563.344H1110.6C1109.24 563.344 1108.56 564.101 1108.56 565.616V570H1106.64V561.584ZM1114.61 570.192C1113.93 570.192 1113.31 570.027 1112.76 569.696C1112.21 569.355 1111.94 568.731 1111.94 567.824C1111.94 566.747 1112.4 565.989 1113.32 565.552C1114.24 565.115 1115.54 564.896 1117.22 564.896V564.192C1117.22 563.787 1117.12 563.472 1116.9 563.248C1116.7 563.024 1116.33 562.912 1115.78 562.912C1115.22 562.912 1114.82 563.003 1114.58 563.184C1114.35 563.365 1114.23 563.589 1114.23 563.856V564.08H1112.37C1112.36 564.016 1112.36 563.899 1112.36 563.728C1112.36 563.003 1112.67 562.432 1113.29 562.016C1113.92 561.6 1114.75 561.392 1115.78 561.392C1116.9 561.392 1117.74 561.621 1118.29 562.08C1118.86 562.539 1119.14 563.195 1119.14 564.048V568.064C1119.14 568.256 1119.2 568.4 1119.3 568.496C1119.41 568.581 1119.54 568.624 1119.7 568.624H1120.21V569.936C1119.87 570.096 1119.47 570.176 1119.01 570.176C1118.6 570.176 1118.25 570.075 1117.97 569.872C1117.7 569.669 1117.51 569.392 1117.41 569.04H1117.3C1116.67 569.808 1115.78 570.192 1114.61 570.192ZM1115.19 568.656C1115.82 568.656 1116.32 568.475 1116.68 568.112C1117.04 567.749 1117.22 567.259 1117.22 566.64V566.256C1116.19 566.256 1115.38 566.357 1114.79 566.56C1114.2 566.752 1113.91 567.109 1113.91 567.632C1113.91 568.315 1114.34 568.656 1115.19 568.656ZM1121.46 561.584H1123.04L1123.22 562.912H1123.33C1123.71 561.899 1124.34 561.392 1125.22 561.392C1125.52 561.392 1125.78 561.44 1126.02 561.536V563.344H1125.41C1124.05 563.344 1123.38 564.101 1123.38 565.616V570H1121.46V561.584Z" fill="white"/>
<rect x="929" y="473" width="22" height="22" rx="7" fill="#04D361" stroke="#04D361" stroke-width="2"/>
<path d="M944 482L939 487L936 484" stroke="white" stroke-width="2" stroke-linecap="round" stroke-linejoin="round"/>
<path d="M969.078 479.242V489H973.768V487.964H970.352V479.242H969.078ZM978.383 482.28C979.699 482.28 980.819 483.106 980.805 484.604H975.961C976.101 483.106 977.137 482.28 978.383 482.28ZM981.967 486.634H980.595C980.315 487.46 979.587 488.048 978.439 488.048C977.137 488.048 976.045 487.194 975.947 485.64H982.079C982.107 485.374 982.121 485.15 982.121 484.87C982.121 482.77 980.665 481.202 978.439 481.202C976.199 481.202 974.645 482.728 974.645 485.15C974.645 487.586 976.255 489.126 978.439 489.126C980.343 489.126 981.575 488.034 981.967 486.634ZM994.877 489H996.137V484.478C996.137 482.28 994.779 481.188 993.029 481.188C991.853 481.188 990.761 481.79 990.313 482.896C989.809 481.748 988.759 481.188 987.499 481.188C986.491 481.188 985.581 481.622 985.077 482.434V481.328H983.803V489H985.077V484.772C985.077 483.12 985.959 482.294 987.247 482.294C988.507 482.294 989.347 483.092 989.347 484.66V489H990.607V484.772C990.607 483.12 991.489 482.294 992.777 482.294C994.037 482.294 994.877 483.092 994.877 484.66V489ZM999.5 482.756V478.64H998.226V489H999.5V487.586C999.976 488.426 1000.97 489.126 1002.37 489.126C1004.43 489.126 1006.01 487.516 1006.01 485.136C1006.01 482.742 1004.44 481.202 1002.37 481.202C1001.01 481.202 999.99 481.902 999.5 482.756ZM1004.71 485.136C1004.71 486.942 1003.52 488.006 1002.1 488.006C1000.72 488.006 999.5 486.956 999.5 485.15C999.5 483.372 1000.72 482.308 1002.1 482.308C1003.52 482.308 1004.71 483.33 1004.71 485.136ZM1008.96 484.828C1008.96 483.05 1009.89 482.504 1011.1 482.504H1011.44V481.188C1010.22 481.188 1009.4 481.72 1008.96 482.574V481.328H1007.69V489H1008.96V484.828ZM1012.43 485.136C1012.43 487.516 1014.02 489.126 1016.06 489.126C1017.47 489.126 1018.47 488.398 1018.93 487.572V489H1020.22V481.328H1018.93V482.728C1018.48 481.93 1017.5 481.202 1016.07 481.202C1014.02 481.202 1012.43 482.742 1012.43 485.136ZM1018.93 485.15C1018.93 486.956 1017.73 488.006 1016.33 488.006C1014.93 488.006 1013.74 486.942 1013.74 485.136C1013.74 483.33 1014.93 482.308 1016.33 482.308C1017.73 482.308 1018.93 483.372 1018.93 485.15ZM1023.64 484.828C1023.64 483.05 1024.57 482.504 1025.79 482.504H1026.12V481.188C1024.9 481.188 1024.08 481.72 1023.64 482.574V481.328H1022.37V489H1023.64V484.828ZM1027.33 484.408H1032.91V483.33H1027.33V484.408ZM1046.38 489H1047.64V484.478C1047.64 482.28 1046.28 481.188 1044.53 481.188C1043.35 481.188 1042.26 481.79 1041.81 482.896C1041.31 481.748 1040.26 481.188 1039 481.188C1037.99 481.188 1037.08 481.622 1036.58 482.434V481.328H1035.3V489H1036.58V484.772C1036.58 483.12 1037.46 482.294 1038.75 482.294C1040.01 482.294 1040.85 483.092 1040.85 484.66V489H1042.11V484.772C1042.11 483.12 1042.99 482.294 1044.28 482.294C1045.54 482.294 1046.38 483.092 1046.38 484.66V489ZM1052.99 482.28C1054.31 482.28 1055.43 483.106 1055.41 484.604H1050.57C1050.71 483.106 1051.74 482.28 1052.99 482.28ZM1056.57 486.634H1055.2C1054.92 487.46 1054.19 488.048 1053.05 488.048C1051.74 488.048 1050.65 487.194 1050.55 485.64H1056.69C1056.71 485.374 1056.73 485.15 1056.73 484.87C1056.73 482.77 1055.27 481.202 1053.05 481.202C1050.81 481.202 1049.25 482.728 1049.25 485.15C1049.25 487.586 1050.86 489.126 1053.05 489.126C1054.95 489.126 1056.18 488.034 1056.57 486.634Z" fill="#9C98A6"/>
<path d="M1136.72 479.228H1131.47V489H1136.72V487.95H1132.74V484.59H1136.3V483.54H1132.74V480.278H1136.72V479.228ZM1144.16 486.914C1144.1 484.17 1139.65 485.164 1139.65 483.344C1139.65 482.728 1140.21 482.28 1141.15 482.28C1142.17 482.28 1142.76 482.84 1142.82 483.61H1144.09C1144.01 482.112 1142.89 481.202 1141.19 481.202C1139.48 481.202 1138.38 482.168 1138.38 483.344C1138.38 486.2 1142.91 485.206 1142.91 486.914C1142.91 487.544 1142.35 488.048 1141.35 488.048C1140.27 488.048 1139.61 487.488 1139.54 486.746H1138.22C1138.31 488.146 1139.57 489.126 1141.36 489.126C1143.05 489.126 1144.16 488.174 1144.16 486.914ZM1145.48 485.136C1145.48 487.516 1147.06 489.126 1149.09 489.126C1150.52 489.126 1151.54 488.37 1151.98 487.586V492.64H1153.27V481.328H1151.98V482.728C1151.54 481.93 1150.54 481.202 1149.14 481.202C1147.06 481.202 1145.48 482.742 1145.48 485.136ZM1151.98 485.15C1151.98 486.956 1150.77 488.006 1149.37 488.006C1147.97 488.006 1146.78 486.942 1146.78 485.136C1146.78 483.33 1147.97 482.308 1149.37 482.308C1150.77 482.308 1151.98 483.372 1151.98 485.15ZM1162.22 481.328H1160.95V485.542C1160.95 487.194 1160.07 488.006 1158.75 488.006C1157.46 488.006 1156.61 487.208 1156.61 485.654V481.328H1155.35V485.822C1155.35 488.02 1156.74 489.112 1158.5 489.112C1159.52 489.112 1160.46 488.664 1160.95 487.866V489H1162.22V481.328ZM1167.64 482.28C1168.95 482.28 1170.07 483.106 1170.06 484.604H1165.21C1165.35 483.106 1166.39 482.28 1167.64 482.28ZM1171.22 486.634H1169.85C1169.57 487.46 1168.84 488.048 1167.69 488.048C1166.39 488.048 1165.3 487.194 1165.2 485.64H1171.33C1171.36 485.374 1171.37 485.15 1171.37 484.87C1171.37 482.77 1169.92 481.202 1167.69 481.202C1165.45 481.202 1163.9 482.728 1163.9 485.15C1163.9 487.586 1165.51 489.126 1167.69 489.126C1169.6 489.126 1170.83 488.034 1171.22 486.634ZM1172.58 485.15C1172.58 487.586 1174.13 489.126 1176.32 489.126C1178.22 489.126 1179.47 488.062 1179.86 486.536H1178.49C1178.21 487.502 1177.45 488.048 1176.32 488.048C1174.92 488.048 1173.88 487.054 1173.88 485.15C1173.88 483.274 1174.92 482.28 1176.32 482.28C1177.45 482.28 1178.22 482.868 1178.49 483.792H1179.86C1179.47 482.182 1178.22 481.202 1176.32 481.202C1174.13 481.202 1172.58 482.742 1172.58 485.15ZM1181.56 489H1182.83V481.328H1181.56V489ZM1182.22 480.082C1182.68 480.082 1183.06 479.704 1183.06 479.214C1183.06 478.724 1182.68 478.346 1182.22 478.346C1181.73 478.346 1181.35 478.724 1181.35 479.214C1181.35 479.704 1181.73 480.082 1182.22 480.082ZM1199.81 489H1201.07V484.478C1201.07 482.28 1199.71 481.188 1197.96 481.188C1196.79 481.188 1195.7 481.79 1195.25 482.896C1194.74 481.748 1193.69 481.188 1192.43 481.188C1191.43 481.188 1190.52 481.622 1190.01 482.434V481.328H1188.74V489H1190.01V484.772C1190.01 483.12 1190.89 482.294 1192.18 482.294C1193.44 482.294 1194.28 483.092 1194.28 484.66V489H1195.54V484.772C1195.54 483.12 1196.42 482.294 1197.71 482.294C1198.97 482.294 1199.81 483.092 1199.81 484.66V489ZM1203.16 489H1204.44V481.328H1203.16V489ZM1203.82 480.082C1204.28 480.082 1204.66 479.704 1204.66 479.214C1204.66 478.724 1204.28 478.346 1203.82 478.346C1203.33 478.346 1202.95 478.724 1202.95 479.214C1202.95 479.704 1203.33 480.082 1203.82 480.082ZM1212.22 489H1213.48V484.478C1213.48 482.28 1212.12 481.188 1210.35 481.188C1209.31 481.188 1208.39 481.622 1207.88 482.42V481.328H1206.61V489H1207.88V484.758C1207.88 483.106 1208.78 482.294 1210.08 482.294C1211.37 482.294 1212.22 483.092 1212.22 484.66V489ZM1215.56 489H1216.84V484.758C1216.84 483.106 1217.73 482.294 1219.03 482.294C1220.32 482.294 1221.18 483.092 1221.18 484.66V489H1222.44V484.478C1222.44 482.28 1221.08 481.188 1219.37 481.188C1218.29 481.188 1217.34 481.622 1216.84 482.434V478.64H1215.56V489ZM1224.04 485.136C1224.04 487.516 1225.62 489.126 1227.67 489.126C1229.08 489.126 1230.08 488.398 1230.54 487.572V489H1231.83V481.328H1230.54V482.728C1230.09 481.93 1229.11 481.202 1227.68 481.202C1225.62 481.202 1224.04 482.742 1224.04 485.136ZM1230.54 485.15C1230.54 486.956 1229.33 488.006 1227.93 488.006C1226.53 488.006 1225.34 486.942 1225.34 485.136C1225.34 483.33 1226.53 482.308 1227.93 482.308C1229.33 482.308 1230.54 483.372 1230.54 485.15ZM1243.23 486.914C1243.17 484.17 1238.72 485.164 1238.72 483.344C1238.72 482.728 1239.28 482.28 1240.22 482.28C1241.24 482.28 1241.83 482.84 1241.88 483.61H1243.16C1243.07 482.112 1241.95 481.202 1240.26 481.202C1238.55 481.202 1237.44 482.168 1237.44 483.344C1237.44 486.2 1241.98 485.206 1241.98 486.914C1241.98 487.544 1241.42 488.048 1240.41 488.048C1239.33 488.048 1238.68 487.488 1238.61 486.746H1237.29C1237.37 488.146 1238.63 489.126 1240.43 489.126C1242.12 489.126 1243.23 488.174 1243.23 486.914ZM1248.29 482.28C1249.6 482.28 1250.72 483.106 1250.71 484.604H1245.87C1246.01 483.106 1247.04 482.28 1248.29 482.28ZM1251.87 486.634H1250.5C1250.22 487.46 1249.49 488.048 1248.34 488.048C1247.04 488.048 1245.95 487.194 1245.85 485.64H1251.98C1252.01 485.374 1252.03 485.15 1252.03 484.87C1252.03 482.77 1250.57 481.202 1248.34 481.202C1246.1 481.202 1244.55 482.728 1244.55 485.15C1244.55 487.586 1246.16 489.126 1248.34 489.126C1250.25 489.126 1251.48 488.034 1251.87 486.634ZM1259.32 489H1260.58V484.478C1260.58 482.28 1259.22 481.188 1257.44 481.188C1256.41 481.188 1255.48 481.622 1254.98 482.42V481.328H1253.71V489H1254.98V484.758C1254.98 483.106 1255.88 482.294 1257.18 482.294C1258.47 482.294 1259.32 483.092 1259.32 484.66V489ZM1262.66 489H1263.94V484.758C1263.94 483.106 1264.83 482.294 1266.13 482.294C1267.42 482.294 1268.28 483.092 1268.28 484.66V489H1269.54V484.478C1269.54 482.28 1268.18 481.188 1266.47 481.188C1265.39 481.188 1264.44 481.622 1263.94 482.434V478.64H1262.66V489ZM1271.14 485.136C1271.14 487.516 1272.72 489.126 1274.77 489.126C1276.18 489.126 1277.18 488.398 1277.64 487.572V489H1278.93V481.328H1277.64V482.728C1277.19 481.93 1276.21 481.202 1274.78 481.202C1272.72 481.202 1271.14 482.742 1271.14 485.136ZM1277.64 485.15C1277.64 486.956 1276.43 488.006 1275.03 488.006C1273.63 488.006 1272.44 486.942 1272.44 485.136C1272.44 483.33 1273.63 482.308 1275.03 482.308C1276.43 482.308 1277.64 483.372 1277.64 485.15Z" fill="#9C98A6"/>
<path d="M930.484 260H935.524V249.38H943.552V245.384H935.524V238.94H946V234.872H930.484V260ZM948.278 249.956C948.278 256.184 952.31 260.324 957.35 260.324C960.518 260.324 962.786 258.812 963.974 257.084V260H969.05V240.056H963.974V242.9C962.786 241.244 960.59 239.732 957.386 239.732C952.31 239.732 948.278 243.728 948.278 249.956ZM963.974 250.028C963.974 253.808 961.454 255.896 958.682 255.896C955.982 255.896 953.426 253.736 953.426 249.956C953.426 246.176 955.982 244.16 958.682 244.16C961.454 244.16 963.974 246.248 963.974 250.028ZM987.364 240.056H972.892V244.196H981.568L972.856 255.932V260H987.472V255.86H978.58L987.364 244.124V240.056ZM999.943 243.872C1002.53 243.872 1004.62 245.528 1004.69 248.156H995.227C995.623 245.42 997.531 243.872 999.943 243.872ZM1009.41 253.736H1003.97C1003.33 255.068 1002.14 256.148 999.979 256.148C997.459 256.148 995.443 254.492 995.191 251.54H1009.77C1009.88 250.892 1009.91 250.244 1009.91 249.596C1009.91 243.656 1005.85 239.732 1000.09 239.732C994.183 239.732 990.079 243.728 990.079 250.028C990.079 256.292 994.291 260.324 1000.09 260.324C1005.02 260.324 1008.33 257.408 1009.41 253.736ZM1018.63 250.064C1018.63 246.212 1020.43 245.06 1023.42 245.06H1024.75V239.768C1021.98 239.768 1019.89 241.1 1018.63 243.152V240.056H1013.59V260H1018.63V250.064ZM1036.73 260H1041.77V233.36H1036.73V260ZM1066.01 250.028C1066.01 243.728 1061.51 239.732 1055.75 239.732C1049.99 239.732 1045.49 243.728 1045.49 250.028C1045.49 256.292 1049.84 260.324 1055.6 260.324C1061.4 260.324 1066.01 256.292 1066.01 250.028ZM1050.6 250.028C1050.6 246.032 1053.01 244.124 1055.67 244.124C1058.34 244.124 1060.82 246.032 1060.82 250.028C1060.82 253.988 1058.27 255.932 1055.6 255.932C1052.9 255.932 1050.6 253.988 1050.6 250.028ZM1068.41 249.956C1068.41 256.184 1072.44 260.324 1077.51 260.324C1080.65 260.324 1082.91 258.776 1084.1 257.048V260.144C1084.1 263.852 1081.94 265.436 1079.17 265.436C1076.65 265.436 1074.78 264.248 1074.27 262.448H1069.27C1069.77 267.02 1073.7 269.828 1079.31 269.828C1085.87 269.828 1089.18 265.544 1089.18 260.144V240.056H1084.1V242.9C1082.91 241.172 1080.65 239.732 1077.51 239.732C1072.44 239.732 1068.41 243.728 1068.41 249.956ZM1084.1 250.028C1084.1 253.808 1081.58 255.896 1078.81 255.896C1076.11 255.896 1073.55 253.736 1073.55 249.956C1073.55 246.176 1076.11 244.16 1078.81 244.16C1081.58 244.16 1084.1 246.248 1084.1 250.028ZM1094.1 260H1099.14V240.056H1094.1V260ZM1096.66 237.68C1098.42 237.68 1099.75 236.384 1099.75 234.728C1099.75 233.072 1098.42 231.776 1096.66 231.776C1094.86 231.776 1093.56 233.072 1093.56 234.728C1093.56 236.384 1094.86 237.68 1096.66 237.68ZM1118.09 260H1123.13V248.3C1123.13 242.792 1119.82 239.768 1115.17 239.768C1112.62 239.768 1110.46 240.848 1109.16 242.54V240.056H1104.12V260H1109.16V248.984C1109.16 245.78 1110.92 244.052 1113.66 244.052C1116.32 244.052 1118.09 245.78 1118.09 248.984V260Z" fill="#32264D"/>
<path d="M928.5 313C928.5 308.858 931.858 305.5 936 305.5H1272C1276.14 305.5 1279.5 308.858 1279.5 313V376.5H928.5V313Z" fill="#FAFAFC" stroke="#E6E6F0"/>
<path d="M957.424 324.624H952.924V333H957.424V332.1H954.016V329.22H957.064V328.32H954.016V325.524H957.424V324.624ZM958.848 329.064H963.636V328.14H958.848V329.064ZM975.178 333H976.258V329.124C976.258 327.24 975.094 326.304 973.594 326.304C972.586 326.304 971.65 326.82 971.266 327.768C970.834 326.784 969.934 326.304 968.854 326.304C967.99 326.304 967.21 326.676 966.778 327.372V326.424H965.686V333H966.778V329.376C966.778 327.96 967.534 327.252 968.638 327.252C969.718 327.252 970.438 327.936 970.438 329.28V333H971.518V329.376C971.518 327.96 972.274 327.252 973.378 327.252C974.458 327.252 975.178 327.936 975.178 329.28V333ZM977.641 329.688C977.641 331.728 978.997 333.108 980.749 333.108C981.961 333.108 982.813 332.484 983.209 331.776V333H984.313V326.424H983.209V327.624C982.825 326.94 981.985 326.316 980.761 326.316C978.997 326.316 977.641 327.636 977.641 329.688ZM983.209 329.7C983.209 331.248 982.177 332.148 980.977 332.148C979.777 332.148 978.757 331.236 978.757 329.688C978.757 328.14 979.777 327.264 980.977 327.264C982.177 327.264 983.209 328.176 983.209 329.7ZM986.158 333H987.25V326.424H986.158V333ZM986.722 325.356C987.118 325.356 987.442 325.032 987.442 324.612C987.442 324.192 987.118 323.868 986.722 323.868C986.302 323.868 985.978 324.192 985.978 324.612C985.978 325.032 986.302 325.356 986.722 325.356ZM989.112 333H990.204V324.12H989.112V333Z" fill="#C1BCCC"/>
<path d="M953.552 354.6C953.552 356.36 954.432 357 955.984 357H957.296V355.768H956.224C955.328 355.768 955.008 355.464 955.008 354.6V349.432H957.296V348.232H955.008V346.024H953.552V348.232H952.416V349.432H953.552V354.6ZM959.06 357H960.516V348.232H959.06V357ZM959.812 346.808C960.34 346.808 960.772 346.376 960.772 345.816C960.772 345.256 960.34 344.824 959.812 344.824C959.252 344.824 958.82 345.256 958.82 345.816C958.82 346.376 959.252 346.808 959.812 346.808ZM962.454 352.584C962.454 355.304 964.262 357.144 966.598 357.144C968.214 357.144 969.35 356.312 969.878 355.368V357H971.35V348.232H969.878V349.832C969.366 348.92 968.246 348.088 966.614 348.088C964.262 348.088 962.454 349.848 962.454 352.584ZM969.878 352.6C969.878 354.664 968.502 355.864 966.902 355.864C965.302 355.864 963.942 354.648 963.942 352.584C963.942 350.52 965.302 349.352 966.902 349.352C968.502 349.352 969.878 350.568 969.878 352.6ZM973.266 352.584C973.266 355.304 975.074 357.144 977.426 357.144C979.026 357.144 980.162 356.296 980.69 355.352V357.192C980.69 359.064 979.522 360.056 977.97 360.056C976.53 360.056 975.49 359.336 975.17 358.28H973.73C974.018 360.152 975.666 361.32 977.97 361.32C980.546 361.32 982.162 359.608 982.162 357.192V348.232H980.69V349.832C980.178 348.888 979.026 348.088 977.426 348.088C975.074 348.088 973.266 349.848 973.266 352.584ZM980.69 352.6C980.69 354.664 979.314 355.864 977.714 355.864C976.114 355.864 974.754 354.648 974.754 352.584C974.754 350.52 976.114 349.352 977.714 349.352C979.314 349.352 980.69 350.568 980.69 352.6ZM992.943 352.6C992.943 349.832 991.007 348.088 988.511 348.088C986.031 348.088 984.079 349.832 984.079 352.6C984.079 355.384 985.967 357.144 988.447 357.144C990.943 357.144 992.943 355.384 992.943 352.6ZM985.567 352.6C985.567 350.392 986.959 349.352 988.495 349.352C989.999 349.352 991.455 350.392 991.455 352.6C991.455 354.824 989.967 355.864 988.447 355.864C986.927 355.864 985.567 354.824 985.567 352.6ZM994.857 357H996.313V345.16H994.857V357ZM1006.57 348.232H1005.11V353.048C1005.11 354.936 1004.11 355.864 1002.6 355.864C1001.13 355.864 1000.15 354.952 1000.15 353.176V348.232H998.715V353.368C998.715 355.88 1000.3 357.128 1002.31 357.128C1003.48 357.128 1004.55 356.616 1005.11 355.704V357H1006.57V348.232ZM1008.48 352.6C1008.48 355.384 1010.26 357.144 1012.76 357.144C1014.93 357.144 1016.36 355.928 1016.8 354.184H1015.24C1014.92 355.288 1014.05 355.912 1012.76 355.912C1011.16 355.912 1009.97 354.776 1009.97 352.6C1009.97 350.456 1011.16 349.32 1012.76 349.32C1014.05 349.32 1014.93 349.992 1015.24 351.048H1016.8C1016.36 349.208 1014.93 348.088 1012.76 348.088C1010.26 348.088 1008.48 349.848 1008.48 352.6ZM1018.75 357H1020.2V352.152C1020.2 350.264 1021.23 349.336 1022.72 349.336C1024.19 349.336 1025.16 350.248 1025.16 352.04V357H1026.6V351.832C1026.6 349.32 1025.05 348.072 1023.1 348.072C1021.87 348.072 1020.78 348.568 1020.2 349.496V345.16H1018.75V357ZM1029.3 354.6C1029.3 356.36 1030.18 357 1031.73 357H1033.05V355.768H1031.97C1031.08 355.768 1030.76 355.464 1030.76 354.6V349.432H1033.05V348.232H1030.76V346.024H1029.3V348.232H1028.17V349.432H1029.3V354.6ZM1038.54 349.32C1040.04 349.32 1041.32 350.264 1041.31 351.976H1035.77C1035.93 350.264 1037.11 349.32 1038.54 349.32ZM1042.63 354.296H1041.07C1040.75 355.24 1039.91 355.912 1038.6 355.912C1037.11 355.912 1035.87 354.936 1035.75 353.16H1042.76C1042.79 352.856 1042.81 352.6 1042.81 352.28C1042.81 349.88 1041.15 348.088 1038.6 348.088C1036.04 348.088 1034.27 349.832 1034.27 352.6C1034.27 355.384 1036.11 357.144 1038.6 357.144C1040.78 357.144 1042.19 355.896 1042.63 354.296ZM1051.15 357H1052.59V351.832C1052.59 349.32 1051.04 348.072 1049 348.072C1047.82 348.072 1046.76 348.568 1046.19 349.48V348.232H1044.73V357H1046.19V352.152C1046.19 350.264 1047.21 349.336 1048.7 349.336C1050.17 349.336 1051.15 350.248 1051.15 352.04V357ZM1056.42 349.864V345.16H1054.97V357H1056.42V355.384C1056.97 356.344 1058.1 357.144 1059.7 357.144C1062.05 357.144 1063.86 355.304 1063.86 352.584C1063.86 349.848 1062.07 348.088 1059.7 348.088C1058.15 348.088 1056.98 348.888 1056.42 349.864ZM1062.37 352.584C1062.37 354.648 1061.01 355.864 1059.4 355.864C1057.81 355.864 1056.42 354.664 1056.42 352.6C1056.42 350.568 1057.81 349.352 1059.4 349.352C1061.01 349.352 1062.37 350.52 1062.37 352.584ZM1069.51 349.32C1071.01 349.32 1072.29 350.264 1072.27 351.976H1066.74C1066.9 350.264 1068.08 349.32 1069.51 349.32ZM1073.6 354.296H1072.03C1071.71 355.24 1070.88 355.912 1069.57 355.912C1068.08 355.912 1066.83 354.936 1066.72 353.16H1073.73C1073.76 352.856 1073.78 352.6 1073.78 352.28C1073.78 349.88 1072.11 348.088 1069.57 348.088C1067.01 348.088 1065.23 349.832 1065.23 352.6C1065.23 355.384 1067.07 357.144 1069.57 357.144C1071.75 357.144 1073.15 355.896 1073.6 354.296ZM1077.16 352.232C1077.16 350.2 1078.21 349.576 1079.6 349.576H1079.99V348.072C1078.6 348.072 1077.65 348.68 1077.16 349.656V348.232H1075.7V357H1077.16V352.232ZM1081.13 352.584C1081.13 355.304 1082.93 357.144 1085.29 357.144C1086.89 357.144 1088.02 356.296 1088.55 355.352V357.192C1088.55 359.064 1087.38 360.056 1085.83 360.056C1084.39 360.056 1083.35 359.336 1083.03 358.28H1081.59C1081.88 360.152 1083.53 361.32 1085.83 361.32C1088.41 361.32 1090.02 359.608 1090.02 357.192V348.232H1088.55V349.832C1088.04 348.888 1086.89 348.088 1085.29 348.088C1082.93 348.088 1081.13 349.848 1081.13 352.584ZM1088.55 352.6C1088.55 354.664 1087.17 355.864 1085.57 355.864C1083.97 355.864 1082.61 354.648 1082.61 352.584C1082.61 350.52 1083.97 349.352 1085.57 349.352C1087.17 349.352 1088.55 350.568 1088.55 352.6ZM1102.82 357.112C1105.04 357.112 1106.29 354.552 1106.29 352.088C1106.29 348.92 1104.1 346.744 1100.48 346.744C1095.78 346.744 1092.4 350.312 1092.4 354.872C1092.4 358.12 1094.69 360.184 1098.15 360.184C1099.25 360.184 1100.32 359.992 1101.28 359.592L1101.09 358.6C1100.27 358.984 1099.31 359.144 1098.43 359.144C1095.43 359.144 1093.6 357.592 1093.62 354.744C1093.62 350.824 1096.43 347.768 1100.31 347.768C1103.36 347.768 1105.11 349.384 1105.11 352.168C1105.11 353.848 1104.42 356.12 1103.04 356.12C1102.23 356.12 1102.1 355.512 1102.24 354.6L1103.04 349.976H1101.78L1101.6 350.968C1101.25 350.2 1100.56 349.816 1099.55 349.816C1097.22 349.816 1095.62 351.976 1095.62 354.36C1095.62 356.024 1096.58 357.112 1098.23 357.112C1099.35 357.112 1100.43 356.552 1101.09 355.624C1101.17 356.52 1101.73 357.112 1102.82 357.112ZM1101.28 353.048C1101.19 354.696 1100.07 355.976 1098.66 355.976C1097.54 355.976 1096.98 355.224 1096.98 354.136C1096.98 352.552 1097.95 350.936 1099.55 350.936C1100.8 350.936 1101.38 351.88 1101.28 353.048ZM1108.14 352.584C1108.14 355.304 1109.95 357.144 1112.3 357.144C1113.9 357.144 1115.04 356.296 1115.57 355.352V357.192C1115.57 359.064 1114.4 360.056 1112.85 360.056C1111.41 360.056 1110.37 359.336 1110.05 358.28H1108.61C1108.89 360.152 1110.54 361.32 1112.85 361.32C1115.42 361.32 1117.04 359.608 1117.04 357.192V348.232H1115.57V349.832C1115.05 348.888 1113.9 348.088 1112.3 348.088C1109.95 348.088 1108.14 349.848 1108.14 352.584ZM1115.57 352.6C1115.57 354.664 1114.19 355.864 1112.59 355.864C1110.99 355.864 1109.63 354.648 1109.63 352.584C1109.63 350.52 1110.99 349.352 1112.59 349.352C1114.19 349.352 1115.57 350.568 1115.57 352.6ZM1132.15 357H1133.59V351.832C1133.59 349.32 1132.04 348.072 1130.04 348.072C1128.7 348.072 1127.45 348.76 1126.94 350.024C1126.36 348.712 1125.16 348.072 1123.72 348.072C1122.57 348.072 1121.53 348.568 1120.95 349.496V348.232H1119.5V357H1120.95V352.168C1120.95 350.28 1121.96 349.336 1123.43 349.336C1124.87 349.336 1125.83 350.248 1125.83 352.04V357H1127.27V352.168C1127.27 350.28 1128.28 349.336 1129.75 349.336C1131.19 349.336 1132.15 350.248 1132.15 352.04V357ZM1135.44 352.584C1135.44 355.304 1137.25 357.144 1139.58 357.144C1141.2 357.144 1142.33 356.312 1142.86 355.368V357H1144.33V348.232H1142.86V349.832C1142.35 348.92 1141.23 348.088 1139.6 348.088C1137.25 348.088 1135.44 349.848 1135.44 352.584ZM1142.86 352.6C1142.86 354.664 1141.49 355.864 1139.89 355.864C1138.29 355.864 1136.93 354.648 1136.93 352.584C1136.93 350.52 1138.29 349.352 1139.89 349.352C1141.49 349.352 1142.86 350.568 1142.86 352.6ZM1146.79 357H1148.25V348.232H1146.79V357ZM1147.55 346.808C1148.07 346.808 1148.51 346.376 1148.51 345.816C1148.51 345.256 1148.07 344.824 1147.55 344.824C1146.99 344.824 1146.55 345.256 1146.55 345.816C1146.55 346.376 1146.99 346.808 1147.55 346.808ZM1150.73 357H1152.19V345.16H1150.73V357ZM1156.09 356.104C1156.09 355.544 1155.66 355.112 1155.13 355.112C1154.57 355.112 1154.14 355.544 1154.14 356.104C1154.14 356.664 1154.57 357.096 1155.13 357.096C1155.66 357.096 1156.09 356.664 1156.09 356.104ZM1157.48 352.6C1157.48 355.384 1159.26 357.144 1161.76 357.144C1163.93 357.144 1165.36 355.928 1165.8 354.184H1164.24C1163.92 355.288 1163.05 355.912 1161.76 355.912C1160.16 355.912 1158.97 354.776 1158.97 352.6C1158.97 350.456 1160.16 349.32 1161.76 349.32C1163.05 349.32 1163.93 349.992 1164.24 351.048H1165.8C1165.36 349.208 1163.93 348.088 1161.76 348.088C1159.26 348.088 1157.48 349.848 1157.48 352.6ZM1176.07 352.6C1176.07 349.832 1174.13 348.088 1171.64 348.088C1169.16 348.088 1167.2 349.832 1167.2 352.6C1167.2 355.384 1169.09 357.144 1171.57 357.144C1174.07 357.144 1176.07 355.384 1176.07 352.6ZM1168.69 352.6C1168.69 350.392 1170.08 349.352 1171.62 349.352C1173.12 349.352 1174.58 350.392 1174.58 352.6C1174.58 354.824 1173.09 355.864 1171.57 355.864C1170.05 355.864 1168.69 354.824 1168.69 352.6ZM1190.64 357H1192.08V351.832C1192.08 349.32 1190.53 348.072 1188.53 348.072C1187.18 348.072 1185.93 348.76 1185.42 350.024C1184.85 348.712 1183.65 348.072 1182.21 348.072C1181.05 348.072 1180.01 348.568 1179.44 349.496V348.232H1177.98V357H1179.44V352.168C1179.44 350.28 1180.45 349.336 1181.92 349.336C1183.36 349.336 1184.32 350.248 1184.32 352.04V357H1185.76V352.168C1185.76 350.28 1186.77 349.336 1188.24 349.336C1189.68 349.336 1190.64 350.248 1190.64 352.04V357Z" fill="#6A6180"/>
<path d="M928.5 376.5H1279.5V440C1279.5 444.142 1276.14 447.5 1272 447.5H936C931.858 447.5 928.5 444.142 928.5 440V376.5Z" fill="#FAFAFC" stroke="#E6E6F0"/>
<path d="M961.008 419.232H959.552V424.048C959.552 425.936 958.544 426.864 957.04 426.864C955.568 426.864 954.592 425.952 954.592 424.176V419.232H953.152V424.368C953.152 426.88 954.736 428.128 956.752 428.128C957.92 428.128 958.992 427.616 959.552 426.704V428H961.008V419.232ZM963.466 428H964.922V419.232H963.466V428ZM964.218 417.808C964.746 417.808 965.178 417.376 965.178 416.816C965.178 416.256 964.746 415.824 964.218 415.824C963.658 415.824 963.226 416.256 963.226 416.816C963.226 417.376 963.658 417.808 964.218 417.808ZM966.86 423.584C966.86 426.304 968.668 428.144 971.02 428.144C972.62 428.144 973.756 427.328 974.284 426.352V428H975.756V416.16H974.284V420.8C973.676 419.792 972.412 419.088 971.036 419.088C968.668 419.088 966.86 420.848 966.86 423.584ZM974.284 423.6C974.284 425.664 972.908 426.864 971.308 426.864C969.708 426.864 968.348 425.648 968.348 423.584C968.348 421.52 969.708 420.352 971.308 420.352C972.908 420.352 974.284 421.568 974.284 423.6ZM981.944 420.32C983.448 420.32 984.728 421.264 984.712 422.976H979.176C979.336 421.264 980.52 420.32 981.944 420.32ZM986.04 425.296H984.472C984.152 426.24 983.32 426.912 982.008 426.912C980.52 426.912 979.272 425.936 979.16 424.16H986.168C986.2 423.856 986.216 423.6 986.216 423.28C986.216 420.88 984.552 419.088 982.008 419.088C979.448 419.088 977.672 420.832 977.672 423.6C977.672 426.384 979.512 428.144 982.008 428.144C984.184 428.144 985.592 426.896 986.04 425.296ZM994.442 425.616C994.378 422.48 989.29 423.616 989.29 421.536C989.29 420.832 989.93 420.32 991.002 420.32C992.17 420.32 992.842 420.96 992.906 421.84H994.362C994.266 420.128 992.986 419.088 991.05 419.088C989.098 419.088 987.834 420.192 987.834 421.536C987.834 424.8 993.018 423.664 993.018 425.616C993.018 426.336 992.378 426.912 991.226 426.912C989.994 426.912 989.242 426.272 989.162 425.424H987.658C987.754 427.024 989.194 428.144 991.242 428.144C993.178 428.144 994.442 427.056 994.442 425.616ZM996.498 428H997.954V419.232H996.498V428ZM997.25 417.808C997.778 417.808 998.21 417.376 998.21 416.816C998.21 416.256 997.778 415.824 997.25 415.824C996.69 415.824 996.258 416.256 996.258 416.816C996.258 417.376 996.69 417.808 997.25 417.808ZM999.891 423.584C999.891 426.304 1001.7 428.144 1004.05 428.144C1005.65 428.144 1006.79 427.296 1007.32 426.352V428.192C1007.32 430.064 1006.15 431.056 1004.6 431.056C1003.16 431.056 1002.12 430.336 1001.8 429.28H1000.36C1000.64 431.152 1002.29 432.32 1004.6 432.32C1007.17 432.32 1008.79 430.608 1008.79 428.192V419.232H1007.32V420.832C1006.8 419.888 1005.65 419.088 1004.05 419.088C1001.7 419.088 999.891 420.848 999.891 423.584ZM1007.32 423.6C1007.32 425.664 1005.94 426.864 1004.34 426.864C1002.74 426.864 1001.38 425.648 1001.38 423.584C1001.38 421.52 1002.74 420.352 1004.34 420.352C1005.94 420.352 1007.32 421.568 1007.32 423.6ZM1017.66 428H1019.1V422.832C1019.1 420.32 1017.55 419.072 1015.52 419.072C1014.34 419.072 1013.28 419.568 1012.7 420.48V419.232H1011.25V428H1012.7V423.152C1012.7 421.264 1013.73 420.336 1015.22 420.336C1016.69 420.336 1017.66 421.248 1017.66 423.04V428ZM1021.48 428H1022.94V416.16H1021.48V428ZM1033.74 423.6C1033.74 420.832 1031.8 419.088 1029.31 419.088C1026.83 419.088 1024.88 420.832 1024.88 423.6C1024.88 426.384 1026.76 428.144 1029.24 428.144C1031.74 428.144 1033.74 426.384 1033.74 423.6ZM1026.36 423.6C1026.36 421.392 1027.76 420.352 1029.29 420.352C1030.8 420.352 1032.25 421.392 1032.25 423.6C1032.25 425.824 1030.76 426.864 1029.24 426.864C1027.72 426.864 1026.36 425.824 1026.36 423.6ZM1034.61 419.232L1038.05 428H1039.75L1043.19 419.232H1041.64L1038.92 426.656L1036.18 419.232H1034.61ZM1044.99 415.28V429.696H1046.45V415.28H1044.99Z" fill="#6A6180"/>
<path d="M958.36 401.72C958.36 398.624 953.848 399.968 953.848 397.808C953.848 396.908 954.556 396.44 955.456 396.464C956.476 396.476 957.004 397.112 957.076 397.676H958.276C958.144 396.404 957.1 395.528 955.504 395.528C953.848 395.528 952.732 396.464 952.732 397.844C952.732 400.952 957.256 399.512 957.256 401.768C957.256 402.56 956.632 403.16 955.576 403.16C954.412 403.16 953.92 402.464 953.848 401.768H952.684C952.708 403.148 953.896 404.084 955.576 404.084C957.388 404.084 958.36 402.908 958.36 401.72ZM962.763 398.24C963.891 398.24 964.851 398.948 964.839 400.232H960.687C960.807 398.948 961.695 398.24 962.763 398.24ZM965.835 401.972H964.659C964.419 402.68 963.795 403.184 962.811 403.184C961.695 403.184 960.759 402.452 960.675 401.12H965.931C965.955 400.892 965.967 400.7 965.967 400.46C965.967 398.66 964.719 397.316 962.811 397.316C960.891 397.316 959.559 398.624 959.559 400.7C959.559 402.788 960.939 404.108 962.811 404.108C964.443 404.108 965.499 403.172 965.835 401.972ZM972.22 404H973.3V400.124C973.3 398.24 972.136 397.304 970.612 397.304C969.724 397.304 968.932 397.676 968.5 398.36V397.424H967.408V404H968.5V400.364C968.5 398.948 969.268 398.252 970.384 398.252C971.488 398.252 972.22 398.936 972.22 400.28V404ZM975.084 404H976.176V400.364C976.176 398.948 976.944 398.252 978.06 398.252C979.164 398.252 979.896 398.936 979.896 400.28V404H980.976V400.124C980.976 398.24 979.812 397.304 978.348 397.304C977.424 397.304 976.608 397.676 976.176 398.372V395.12H975.084V404ZM982.352 400.688C982.352 402.728 983.708 404.108 985.46 404.108C986.672 404.108 987.524 403.484 987.92 402.776V404H989.024V397.424H987.92V398.624C987.536 397.94 986.696 397.316 985.472 397.316C983.708 397.316 982.352 398.636 982.352 400.688ZM987.92 400.7C987.92 402.248 986.888 403.148 985.688 403.148C984.488 403.148 983.468 402.236 983.468 400.688C983.468 399.14 984.488 398.264 985.688 398.264C986.888 398.264 987.92 399.176 987.92 400.7Z" fill="#C1BCCC"/>
<path d="M1244 419C1243.16 419 1242.32 418.822 1241.5 418.505" stroke="#8257E5" stroke-width="1.5" stroke-linecap="round" stroke-linejoin="round"/>
<path d="M1252.88 412.468C1250.99 415.967 1247.49 419 1244 419" stroke="#8257E5" stroke-width="1.5" stroke-linecap="round" stroke-linejoin="round"/>
<path d="M1251.08 408.921C1251.77 409.73 1252.38 410.612 1252.88 411.533C1253.04 411.824 1253.04 412.177 1252.88 412.468" stroke="#8257E5" stroke-width="1.5" stroke-linecap="round" stroke-linejoin="round"/>
<path d="M1237 419L1251 405" stroke="#8257E5" stroke-width="1.5" stroke-linecap="round" stroke-linejoin="round"/>
<path d="M1241.77 414.227C1240.54 412.997 1240.54 411.002 1241.77 409.772C1243 408.542 1245 408.542 1246.23 409.772" stroke="#8257E5" stroke-width="1.5" stroke-linecap="round" stroke-linejoin="round"/>
<path d="M1249.04 406.956C1247.5 405.759 1245.75 405 1244 405C1240.5 405 1237.01 408.033 1235.12 411.533C1234.96 411.824 1234.96 412.177 1235.12 412.468C1236.06 414.217 1237.41 415.849 1238.96 417.045" stroke="#8257E5" stroke-width="1.5" stroke-linecap="round" stroke-linejoin="round"/>
<path d="M928 389C928 388.448 928.448 388 929 388C929.552 388 930 388.448 930 389V435C930 435.552 929.552 436 929 436C928.448 436 928 435.552 928 435V389Z" fill="#8257E5"/>
<defs>
<clipPath id="clip0">
<rect width="334.173" height="97.6421" fill="white" transform="translate(217 326)"/>
</clipPath>
</defs>
</svg>
